M48
; DRILL file {KiCad 8.0.5} date 2024-11-24T13:45:12+0100
; FORMAT={-:-/ absolute / inch / decimal}
; #@! TF.CreationDate,2024-11-24T13:45:12+01:00
; #@! TF.GenerationSoftware,Kicad,Pcbnew,8.0.5
; #@! TF.FileFunction,Plated,1,2,PTH
FMAT,2
INCH
; #@! TA.AperFunction,Plated,PTH,ViaDrill
T1C0.0118
; #@! TA.AperFunction,Plated,PTH,ComponentDrill
T2C0.0315
; #@! TA.AperFunction,Plated,PTH,ComponentDrill
T3C0.0394
; #@! TA.AperFunction,Plated,PTH,ComponentDrill
T4C0.0409
%
G90
G05
T1
X3.86Y-3.0
X3.9Y-3.0
X3.9291Y-3.0339
X3.94Y-3.0
X4.0Y-3.4
X4.26Y-3.1175
X4.3Y-3.0904
X4.4Y-3.04
X4.42Y-2.6
X4.44Y-3.06
X4.5028Y-3.08
X4.52Y-2.56
X4.52Y-2.96
X4.52Y-3.04
X4.56Y-2.1
X4.58Y-2.38
X4.62Y-2.82
X4.66Y-2.1
X4.66Y-2.24
X4.66Y-2.38
X4.66Y-2.52
X4.8169Y-2.72
X4.82Y-1.98
X4.82Y-2.08
X4.82Y-2.24
X4.82Y-2.38
X4.9Y-2.8
X4.94Y-1.86
X4.9803Y-2.72
X5.0Y-2.38
X5.04Y-2.88
X5.04Y-2.96
X5.1172Y-3.5236
X5.18Y-4.12
X5.2Y-2.48
X5.2Y-2.66
X5.2172Y-2.58
X5.2756Y-2.126
X5.28Y-2.46
X5.28Y-2.5
X5.28Y-2.8
X5.28Y-2.9
X5.3Y-2.36
X5.3Y-2.54
X5.315Y-2.0669
X5.32Y-2.76
X5.34Y-2.34
X5.34Y-2.42
X5.34Y-2.66
X5.34Y-2.9
X5.34Y-3.0
X5.34Y-3.08
X5.36Y-3.34
X5.36Y-3.42
X5.36Y-4.14
X5.3628Y-2.5
X5.76Y-4.26
X5.76Y-4.48
X6.34Y-3.34
X6.5Y-2.76
X6.52Y-2.5
X6.52Y-2.58
X6.52Y-2.84
X6.52Y-3.32
X6.52Y-3.8
X6.52Y-3.9
X6.54Y-2.32
X6.54Y-3.7
X6.5428Y-3.02
X6.5428Y-3.12
X6.5551Y-2.0866
X6.5748Y-2.126
X6.58Y-2.18
X6.68Y-3.64
X6.6828Y-3.46
X6.7Y-2.4015
X6.74Y-2.1
X6.74Y-3.4
X6.84Y-2.78
X6.86Y-3.06
X7.18Y-2.64
X7.22Y-2.9958
X7.26Y-3.0415
X7.4Y-3.0643
X7.44Y-3.06
X7.5Y-3.38
X7.7756Y-3.081
X7.7811Y-3.0411
X7.7953Y-3.0118
X7.8937Y-3.0512
T2
X3.2387Y-3.38
X3.2387Y-3.5
X3.24Y-2.9
X3.24Y-3.02
X3.24Y-3.14
X3.24Y-3.26
X3.24Y-3.62
X3.24Y-3.74
X3.3175Y-3.38
X3.3175Y-3.5
X3.3187Y-2.9
X3.3187Y-3.02
X3.3187Y-3.14
X3.3187Y-3.26
X3.3187Y-3.62
X3.3187Y-3.74
X3.3962Y-3.38
X3.3962Y-3.5
X3.3975Y-2.9
X3.3975Y-3.02
X3.3975Y-3.14
X3.3975Y-3.26
X3.3975Y-3.62
X3.3975Y-3.74
X4.7613Y-2.92
X4.7613Y-3.04
X4.7613Y-3.22
X4.7613Y-3.36
X4.7613Y-3.52
X4.7613Y-3.64
X4.7613Y-3.76
X4.7625Y-3.88
X4.84Y-2.92
X4.84Y-3.04
X4.84Y-3.22
X4.84Y-3.36
X4.84Y-3.52
X4.84Y-3.64
X4.84Y-3.76
X4.8413Y-3.88
X4.9187Y-2.92
X4.9187Y-3.04
X4.9187Y-3.22
X4.9187Y-3.36
X4.9187Y-3.52
X4.9187Y-3.64
X4.9187Y-3.76
X4.92Y-3.88
X5.14Y-2.44
X5.14Y-2.5187
X5.14Y-2.5975
X5.14Y-2.6762
X5.14Y-2.755
X5.14Y-2.8337
X5.14Y-2.9124
X5.14Y-2.9912
X5.14Y-3.0699
X5.14Y-3.1487
X5.14Y-3.2274
X5.76Y-4.6206
X5.76Y-4.6994
X6.6Y-2.4263
X6.6Y-2.505
X6.6Y-2.5838
X6.6Y-2.6625
X6.6Y-2.7413
X6.6Y-2.82
X6.6Y-2.8987
X6.6Y-2.9775
X6.6Y-3.0562
X6.6Y-3.135
X6.6Y-3.2137
X6.6Y-3.2924
X6.6Y-3.3712
X6.6Y-3.4499
X6.6Y-3.5287
X6.6Y-3.6074
X6.6Y-3.6861
X6.6Y-3.7649
X6.6Y-3.8436
X6.9387Y-3.32
X6.9387Y-3.44
X6.9387Y-3.56
X6.9387Y-3.68
X6.94Y-2.84
X6.94Y-3.2
X6.9413Y-2.96
X6.9413Y-3.08
X7.0175Y-3.32
X7.0175Y-3.44
X7.0175Y-3.56
X7.0175Y-3.68
X7.0187Y-2.84
X7.0187Y-3.2
X7.02Y-2.96
X7.02Y-3.08
X7.0962Y-3.32
X7.0962Y-3.44
X7.0962Y-3.56
X7.0962Y-3.68
X7.0975Y-2.84
X7.0975Y-3.2
X7.0987Y-2.96
X7.0987Y-3.08
X8.12Y-2.88
X8.12Y-3.0
X8.1213Y-3.12
X8.1213Y-3.24
X8.1213Y-3.36
X8.1213Y-3.72
X8.1225Y-3.48
X8.1225Y-3.6
X8.1987Y-2.88
X8.1987Y-3.0
X8.2Y-3.12
X8.2Y-3.24
X8.2Y-3.36
X8.2Y-3.72
X8.2013Y-3.48
X8.2013Y-3.6
X8.2775Y-2.88
X8.2775Y-3.0
X8.2787Y-3.12
X8.2787Y-3.24
X8.2787Y-3.36
X8.2787Y-3.72
X8.28Y-3.48
X8.28Y-3.6
T3
X6.72Y-2.6
X7.0153Y-2.6
T4
X5.437Y-2.2559
X5.437Y-2.3559
X5.437Y-2.4559
X5.437Y-2.5559
X5.437Y-2.6559
X5.437Y-2.7559
X5.437Y-2.8559
X5.437Y-2.9559
X5.437Y-3.0559
X5.437Y-3.1559
X5.437Y-3.2559
X5.437Y-3.3559
X5.437Y-3.4559
X5.437Y-3.5559
X5.437Y-3.6559
X5.437Y-3.7559
X5.437Y-3.8559
X5.437Y-3.9559
X5.437Y-4.0559
X6.437Y-2.2559
X6.437Y-2.3559
X6.437Y-2.4559
X6.437Y-2.5559
X6.437Y-2.6559
X6.437Y-2.7559
X6.437Y-2.8559
X6.437Y-2.9559
X6.437Y-3.0559
X6.437Y-3.1559
X6.437Y-3.2559
X6.437Y-3.3559
X6.437Y-3.4559
X6.437Y-3.5559
X6.437Y-3.6559
X6.437Y-3.7559
X6.437Y-3.8559
X6.437Y-3.9559
X6.437Y-4.0559
M30
