%TF.GenerationSoftware,KiCad,Pcbnew,8.0.5*%
%TF.CreationDate,2024-12-05T19:43:49+01:00*%
%TF.ProjectId,navrh03,6e617672-6830-4332-9e6b-696361645f70,rev?*%
%TF.SameCoordinates,Original*%
%TF.FileFunction,Copper,L1,Top*%
%TF.FilePolarity,Positive*%
%FSLAX46Y46*%
G04 Gerber Fmt 4.6, Leading zero omitted, Abs format (unit mm)*
G04 Created by KiCad (PCBNEW 8.0.5) date 2024-12-05 19:43:49*
%MOMM*%
%LPD*%
G01*
G04 APERTURE LIST*
G04 Aperture macros list*
%AMRoundRect*
0 Rectangle with rounded corners*
0 $1 Rounding radius*
0 $2 $3 $4 $5 $6 $7 $8 $9 X,Y pos of 4 corners*
0 Add a 4 corners polygon primitive as box body*
4,1,4,$2,$3,$4,$5,$6,$7,$8,$9,$2,$3,0*
0 Add four circle primitives for the rounded corners*
1,1,$1+$1,$2,$3*
1,1,$1+$1,$4,$5*
1,1,$1+$1,$6,$7*
1,1,$1+$1,$8,$9*
0 Add four rect primitives between the rounded corners*
20,1,$1+$1,$2,$3,$4,$5,0*
20,1,$1+$1,$4,$5,$6,$7,0*
20,1,$1+$1,$6,$7,$8,$9,0*
20,1,$1+$1,$8,$9,$2,$3,0*%
G04 Aperture macros list end*
%TA.AperFunction,SMDPad,CuDef*%
%ADD10R,1.000000X1.500000*%
%TD*%
%TA.AperFunction,ComponentPad*%
%ADD11R,1.350000X1.350000*%
%TD*%
%TA.AperFunction,ComponentPad*%
%ADD12O,1.350000X1.350000*%
%TD*%
%TA.AperFunction,SMDPad,CuDef*%
%ADD13RoundRect,0.250000X-0.287500X-0.275000X0.287500X-0.275000X0.287500X0.275000X-0.287500X0.275000X0*%
%TD*%
%TA.AperFunction,SMDPad,CuDef*%
%ADD14RoundRect,0.100000X0.130000X0.100000X-0.130000X0.100000X-0.130000X-0.100000X0.130000X-0.100000X0*%
%TD*%
%TA.AperFunction,SMDPad,CuDef*%
%ADD15RoundRect,0.100000X-0.130000X-0.100000X0.130000X-0.100000X0.130000X0.100000X-0.130000X0.100000X0*%
%TD*%
%TA.AperFunction,SMDPad,CuDef*%
%ADD16RoundRect,0.100000X-0.100000X0.130000X-0.100000X-0.130000X0.100000X-0.130000X0.100000X0.130000X0*%
%TD*%
%TA.AperFunction,SMDPad,CuDef*%
%ADD17R,0.990600X0.304800*%
%TD*%
%TA.AperFunction,SMDPad,CuDef*%
%ADD18RoundRect,0.250000X0.287500X0.275000X-0.287500X0.275000X-0.287500X-0.275000X0.287500X-0.275000X0*%
%TD*%
%TA.AperFunction,ComponentPad*%
%ADD19C,2.000000*%
%TD*%
%TA.AperFunction,SMDPad,CuDef*%
%ADD20R,5.090000X6.320000*%
%TD*%
%TA.AperFunction,SMDPad,CuDef*%
%ADD21RoundRect,0.242500X-0.242500X-1.267500X0.242500X-1.267500X0.242500X1.267500X-0.242500X1.267500X0*%
%TD*%
%TA.AperFunction,ComponentPad*%
%ADD22R,1.560000X1.560000*%
%TD*%
%TA.AperFunction,ComponentPad*%
%ADD23C,1.560000*%
%TD*%
%TA.AperFunction,ViaPad*%
%ADD24C,0.600000*%
%TD*%
%TA.AperFunction,Conductor*%
%ADD25C,0.500000*%
%TD*%
%TA.AperFunction,Conductor*%
%ADD26C,0.200000*%
%TD*%
G04 APERTURE END LIST*
D10*
%TO.P,JP3,1,A*%
%TO.N,GND*%
X117022000Y-55149000D03*
%TO.P,JP3,2,B*%
%TO.N,A2*%
X118322000Y-55149000D03*
%TD*%
D11*
%TO.P,J2,1,Pin_1*%
%TO.N,GND*%
X146304000Y-117364000D03*
D12*
%TO.P,J2,2,Pin_2*%
%TO.N,Net-(J2-Pin_2)*%
X146304000Y-119364000D03*
%TD*%
D11*
%TO.P,J13R1,1,Pin_1*%
%TO.N,GND*%
X176276000Y-81280000D03*
D12*
%TO.P,J13R1,2,Pin_2*%
%TO.N,5.0V*%
X178276000Y-81280000D03*
%TO.P,J13R1,3,Pin_3*%
%TO.N,Net-(J13R1-Pin_3)*%
X180276000Y-81280000D03*
%TD*%
D13*
%TO.P,C2,1*%
%TO.N,GND*%
X114095500Y-73152000D03*
%TO.P,C2,2*%
X115520500Y-73152000D03*
%TD*%
D14*
%TO.P,R34,1*%
%TO.N,PWM1B*%
X97668000Y-80772000D03*
%TO.P,R34,2*%
%TO.N,Net-(J21-Pin_3)*%
X97028000Y-80772000D03*
%TD*%
D15*
%TO.P,R30,1*%
%TO.N,PWM13B*%
X110261000Y-82296000D03*
%TO.P,R30,2*%
%TO.N,Net-(J17-Pin_3)*%
X110901000Y-82296000D03*
%TD*%
%TO.P,R2,1*%
%TO.N,GND*%
X113792000Y-79248000D03*
%TO.P,R2,2*%
%TO.N,Net-(U1-Left1-#OE)*%
X114432000Y-79248000D03*
%TD*%
D11*
%TO.P,J24,1,Pin_1*%
%TO.N,GND*%
X82264000Y-85852000D03*
D12*
%TO.P,J24,2,Pin_2*%
%TO.N,5.0V*%
X84264000Y-85852000D03*
%TO.P,J24,3,Pin_3*%
%TO.N,Net-(J24-Pin_3)*%
X86264000Y-85852000D03*
%TD*%
D15*
%TO.P,R25,1*%
%TO.N,PWM8B*%
X110079000Y-87376000D03*
%TO.P,R25,2*%
%TO.N,Net-(J12-Pin_3)*%
X110719000Y-87376000D03*
%TD*%
%TO.P,R6,1*%
%TO.N,A2*%
X122453000Y-55308000D03*
%TO.P,R6,2*%
%TO.N,GND*%
X123093000Y-55308000D03*
%TD*%
D11*
%TO.P,J15R1,1,Pin_1*%
%TO.N,GND*%
X176244000Y-87376000D03*
D12*
%TO.P,J15R1,2,Pin_2*%
%TO.N,5.0V*%
X178244000Y-87376000D03*
%TO.P,J15R1,3,Pin_3*%
%TO.N,Net-(J15R1-Pin_3)*%
X180244000Y-87376000D03*
%TD*%
D15*
%TO.P,R15,1*%
%TO.N,PWM14*%
X199161000Y-81280000D03*
%TO.P,R15,2*%
%TO.N,Net-(J10-Pin_3)*%
X199801000Y-81280000D03*
%TD*%
%TO.P,R3,1*%
%TO.N,A5*%
X122290000Y-65560000D03*
%TO.P,R3,2*%
%TO.N,GND*%
X122930000Y-65560000D03*
%TD*%
D14*
%TO.P,R22,1*%
%TO.N,PWM5*%
X187427000Y-84328000D03*
%TO.P,R22,2*%
%TO.N,Net-(J15R1-Pin_3)*%
X186787000Y-84328000D03*
%TD*%
D15*
%TO.P,R7,1*%
%TO.N,A1*%
X122453000Y-51308000D03*
%TO.P,R7,2*%
%TO.N,GND*%
X123093000Y-51308000D03*
%TD*%
D14*
%TO.P,R23,1*%
%TO.N,PWM6*%
X187427000Y-85344000D03*
%TO.P,R23,2*%
%TO.N,Net-(J16R1-Pin_3)*%
X186787000Y-85344000D03*
%TD*%
D11*
%TO.P,J19,1,Pin_1*%
%TO.N,GND*%
X124936000Y-74168000D03*
D12*
%TO.P,J19,2,Pin_2*%
%TO.N,5.0V*%
X122936000Y-74168000D03*
%TO.P,J19,3,Pin_3*%
%TO.N,Net-(J19-Pin_3)*%
X120936000Y-74168000D03*
%TD*%
D15*
%TO.P,R4,1*%
%TO.N,A4*%
X122453000Y-62512000D03*
%TO.P,R4,2*%
%TO.N,GND*%
X123093000Y-62512000D03*
%TD*%
D10*
%TO.P,JP6,1,A*%
%TO.N,GND*%
X117022000Y-65799000D03*
%TO.P,JP6,2,B*%
%TO.N,A5*%
X118322000Y-65799000D03*
%TD*%
D14*
%TO.P,R17,1*%
%TO.N,PWM0*%
X187427000Y-79248000D03*
%TO.P,R17,2*%
%TO.N,Net-(J10R1-Pin_3)*%
X186787000Y-79248000D03*
%TD*%
D11*
%TO.P,J14R1,1,Pin_1*%
%TO.N,GND*%
X176244000Y-84328000D03*
D12*
%TO.P,J14R1,2,Pin_2*%
%TO.N,5.0V*%
X178244000Y-84328000D03*
%TO.P,J14R1,3,Pin_3*%
%TO.N,Net-(J14R1-Pin_3)*%
X180244000Y-84328000D03*
%TD*%
D11*
%TO.P,J25,1,Pin_1*%
%TO.N,GND*%
X82264000Y-88900000D03*
D12*
%TO.P,J25,2,Pin_2*%
%TO.N,5.0V*%
X84264000Y-88900000D03*
%TO.P,J25,3,Pin_3*%
%TO.N,Net-(J25-Pin_3)*%
X86264000Y-88900000D03*
%TD*%
D10*
%TO.P,JP5,1,A*%
%TO.N,GND*%
X117022000Y-62249000D03*
%TO.P,JP5,2,B*%
%TO.N,A4*%
X118322000Y-62249000D03*
%TD*%
D15*
%TO.P,R8J1,1*%
%TO.N,A0*%
X122453000Y-47808000D03*
%TO.P,R8J1,2*%
%TO.N,GND*%
X123093000Y-47808000D03*
%TD*%
D11*
%TO.P,J18,1,Pin_1*%
%TO.N,GND*%
X124936000Y-77216000D03*
D12*
%TO.P,J18,2,Pin_2*%
%TO.N,5.0V*%
X122936000Y-77216000D03*
%TO.P,J18,3,Pin_3*%
%TO.N,Net-(J18-Pin_3)*%
X120936000Y-77216000D03*
%TD*%
D11*
%TO.P,J12,1,Pin_1*%
%TO.N,GND*%
X124968000Y-98552000D03*
D12*
%TO.P,J12,2,Pin_2*%
%TO.N,5.0V*%
X122968000Y-98552000D03*
%TO.P,J12,3,Pin_3*%
%TO.N,Net-(J12-Pin_3)*%
X120968000Y-98552000D03*
%TD*%
D15*
%TO.P,R26,1*%
%TO.N,PWM9B*%
X110079000Y-86360000D03*
%TO.P,R26,2*%
%TO.N,Net-(J13-Pin_3)*%
X110719000Y-86360000D03*
%TD*%
%TO.P,R32,1*%
%TO.N,PWM15B*%
X110261000Y-80264000D03*
%TO.P,R32,2*%
%TO.N,Net-(J19-Pin_3)*%
X110901000Y-80264000D03*
%TD*%
%TO.P,R5,1*%
%TO.N,A3*%
X122453000Y-58448000D03*
%TO.P,R5,2*%
%TO.N,GND*%
X123093000Y-58448000D03*
%TD*%
%TO.P,R31,1*%
%TO.N,PWM14B*%
X110261000Y-81280000D03*
%TO.P,R31,2*%
%TO.N,Net-(J18-Pin_3)*%
X110901000Y-81280000D03*
%TD*%
D14*
%TO.P,R19,1*%
%TO.N,PWM2*%
X187427000Y-81280000D03*
%TO.P,R19,2*%
%TO.N,Net-(J12R1-Pin_3)*%
X186787000Y-81280000D03*
%TD*%
D11*
%TO.P,J22,1,Pin_1*%
%TO.N,GND*%
X82296000Y-79756000D03*
D12*
%TO.P,J22,2,Pin_2*%
%TO.N,5.0V*%
X84296000Y-79756000D03*
%TO.P,J22,3,Pin_3*%
%TO.N,Net-(J22-Pin_3)*%
X86296000Y-79756000D03*
%TD*%
D14*
%TO.P,R40,1*%
%TO.N,PWM7B*%
X97536000Y-86868000D03*
%TO.P,R40,2*%
%TO.N,Net-(J27-Pin_3)*%
X96896000Y-86868000D03*
%TD*%
D11*
%TO.P,J3,1,Pin_1*%
%TO.N,Net-(J3-Pin_1)*%
X167640000Y-61628000D03*
D12*
%TO.P,J3,2,Pin_2*%
%TO.N,Net-(J3-Pin_2)*%
X167640000Y-63628000D03*
%TO.P,J3,3,Pin_3*%
%TO.N,Net-(J3-Pin_3)*%
X167640000Y-65628000D03*
%TO.P,J3,4,Pin_4*%
%TO.N,Net-(J3-Pin_4)*%
X167640000Y-67628000D03*
%TO.P,J3,5,Pin_5*%
%TO.N,Net-(J3-Pin_5)*%
X167640000Y-69628000D03*
%TO.P,J3,6,Pin_6*%
%TO.N,Net-(J3-Pin_6)*%
X167640000Y-71628000D03*
%TO.P,J3,7,Pin_7*%
%TO.N,Net-(J3-Pin_7)*%
X167640000Y-73628000D03*
%TO.P,J3,8,Pin_8*%
%TO.N,Net-(J3-Pin_8)*%
X167640000Y-75628000D03*
%TO.P,J3,9,Pin_9*%
%TO.N,Net-(J3-Pin_9)*%
X167640000Y-77628000D03*
%TO.P,J3,10,Pin_10*%
%TO.N,Net-(J3-Pin_10)*%
X167640000Y-79628000D03*
%TO.P,J3,11,Pin_11*%
%TO.N,Net-(J3-Pin_11)*%
X167640000Y-81628000D03*
%TO.P,J3,12,Pin_12*%
%TO.N,Net-(J3-Pin_12)*%
X167640000Y-83628000D03*
%TO.P,J3,13,Pin_13*%
%TO.N,Net-(J3-Pin_13)*%
X167640000Y-85628000D03*
%TO.P,J3,14,Pin_14*%
%TO.N,Net-(J3-Pin_14)*%
X167640000Y-87628000D03*
%TO.P,J3,15,Pin_15*%
%TO.N,Net-(J3-Pin_15)*%
X167640000Y-89628000D03*
%TO.P,J3,16,Pin_16*%
%TO.N,Net-(J3-Pin_16)*%
X167640000Y-91628000D03*
%TO.P,J3,17,Pin_17*%
%TO.N,Net-(J3-Pin_17)*%
X167640000Y-93628000D03*
%TO.P,J3,18,Pin_18*%
%TO.N,Net-(J3-Pin_18)*%
X167640000Y-95628000D03*
%TO.P,J3,19,Pin_19*%
%TO.N,Net-(J3-Pin_19)*%
X167640000Y-97628000D03*
%TD*%
D11*
%TO.P,J20,1,Pin_1*%
%TO.N,GND*%
X82296000Y-73660000D03*
D12*
%TO.P,J20,2,Pin_2*%
%TO.N,5.0V*%
X84296000Y-73660000D03*
%TO.P,J20,3,Pin_3*%
%TO.N,Net-(J20-Pin_3)*%
X86296000Y-73660000D03*
%TD*%
D11*
%TO.P,J4,1,Pin_1*%
%TO.N,GND*%
X210280000Y-94488000D03*
D12*
%TO.P,J4,2,Pin_2*%
%TO.N,5.0V*%
X208280000Y-94488000D03*
%TO.P,J4,3,Pin_3*%
%TO.N,Net-(J4-Pin_3)*%
X206280000Y-94488000D03*
%TD*%
D11*
%TO.P,J23,1,Pin_1*%
%TO.N,GND*%
X82296000Y-82804000D03*
D12*
%TO.P,J23,2,Pin_2*%
%TO.N,5.0V*%
X84296000Y-82804000D03*
%TO.P,J23,3,Pin_3*%
%TO.N,Net-(J23-Pin_3)*%
X86296000Y-82804000D03*
%TD*%
D15*
%TO.P,R28,1*%
%TO.N,PWM11B*%
X110079000Y-84328000D03*
%TO.P,R28,2*%
%TO.N,Net-(J15-Pin_3)*%
X110719000Y-84328000D03*
%TD*%
D11*
%TO.P,J7,1,Pin_1*%
%TO.N,GND*%
X210280000Y-85344000D03*
D12*
%TO.P,J7,2,Pin_2*%
%TO.N,5.0V*%
X208280000Y-85344000D03*
%TO.P,J7,3,Pin_3*%
%TO.N,Net-(J7-Pin_3)*%
X206280000Y-85344000D03*
%TD*%
D10*
%TO.P,JP1,1,A*%
%TO.N,GND*%
X117022000Y-48049000D03*
%TO.P,JP1,2,B*%
%TO.N,A0*%
X118322000Y-48049000D03*
%TD*%
D14*
%TO.P,R37,1*%
%TO.N,PWM4B*%
X97511000Y-83820000D03*
%TO.P,R37,2*%
%TO.N,Net-(J24-Pin_3)*%
X96871000Y-83820000D03*
%TD*%
D16*
%TO.P,R1,1*%
%TO.N,GND*%
X199136000Y-78257000D03*
%TO.P,R1,2*%
%TO.N,Net-(U2-#OE)*%
X199136000Y-78897000D03*
%TD*%
D11*
%TO.P,J10,1,Pin_1*%
%TO.N,GND*%
X210248000Y-76200000D03*
D12*
%TO.P,J10,2,Pin_2*%
%TO.N,5.0V*%
X208248000Y-76200000D03*
%TO.P,J10,3,Pin_3*%
%TO.N,Net-(J10-Pin_3)*%
X206248000Y-76200000D03*
%TD*%
D11*
%TO.P,J13,1,Pin_1*%
%TO.N,GND*%
X124936000Y-95504000D03*
D12*
%TO.P,J13,2,Pin_2*%
%TO.N,5.0V*%
X122936000Y-95504000D03*
%TO.P,J13,3,Pin_3*%
%TO.N,Net-(J13-Pin_3)*%
X120936000Y-95504000D03*
%TD*%
D11*
%TO.P,J10R1,1,Pin_1*%
%TO.N,GND*%
X176276000Y-72136000D03*
D12*
%TO.P,J10R1,2,Pin_2*%
%TO.N,5.0V*%
X178276000Y-72136000D03*
%TO.P,J10R1,3,Pin_3*%
%TO.N,Net-(J10R1-Pin_3)*%
X180276000Y-72136000D03*
%TD*%
D11*
%TO.P,J26,1,Pin_1*%
%TO.N,GND*%
X82296000Y-91948000D03*
D12*
%TO.P,J26,2,Pin_2*%
%TO.N,5.0V*%
X84296000Y-91948000D03*
%TO.P,J26,3,Pin_3*%
%TO.N,Net-(J26-Pin_3)*%
X86296000Y-91948000D03*
%TD*%
D11*
%TO.P,J16R1,1,Pin_1*%
%TO.N,GND*%
X176244000Y-90424000D03*
D12*
%TO.P,J16R1,2,Pin_2*%
%TO.N,5.0V*%
X178244000Y-90424000D03*
%TO.P,J16R1,3,Pin_3*%
%TO.N,Net-(J16R1-Pin_3)*%
X180244000Y-90424000D03*
%TD*%
D15*
%TO.P,R8,1*%
%TO.N,PWM8*%
X198979000Y-87376000D03*
%TO.P,R8,2*%
%TO.N,Net-(J4-Pin_3)*%
X199619000Y-87376000D03*
%TD*%
D14*
%TO.P,R21,1*%
%TO.N,PWM4*%
X187427000Y-83312000D03*
%TO.P,R21,2*%
%TO.N,Net-(J14R1-Pin_3)*%
X186787000Y-83312000D03*
%TD*%
D15*
%TO.P,R13,1*%
%TO.N,PWM12*%
X198979000Y-83312000D03*
%TO.P,R13,2*%
%TO.N,Net-(J8-Pin_3)*%
X199619000Y-83312000D03*
%TD*%
D14*
%TO.P,R39,1*%
%TO.N,PWM6B*%
X97511000Y-85852000D03*
%TO.P,R39,2*%
%TO.N,Net-(J26-Pin_3)*%
X96871000Y-85852000D03*
%TD*%
D11*
%TO.P,J14,1,Pin_1*%
%TO.N,GND*%
X124936000Y-92456000D03*
D12*
%TO.P,J14,2,Pin_2*%
%TO.N,5.0V*%
X122936000Y-92456000D03*
%TO.P,J14,3,Pin_3*%
%TO.N,Net-(J14-Pin_3)*%
X120936000Y-92456000D03*
%TD*%
D11*
%TO.P,J12R1,1,Pin_1*%
%TO.N,GND*%
X176308000Y-78232000D03*
D12*
%TO.P,J12R1,2,Pin_2*%
%TO.N,5.0V*%
X178308000Y-78232000D03*
%TO.P,J12R1,3,Pin_3*%
%TO.N,Net-(J12R1-Pin_3)*%
X180308000Y-78232000D03*
%TD*%
D14*
%TO.P,R35,1*%
%TO.N,PWM2B*%
X97693000Y-81788000D03*
%TO.P,R35,2*%
%TO.N,Net-(J22-Pin_3)*%
X97053000Y-81788000D03*
%TD*%
%TO.P,R36,1*%
%TO.N,PWM3B*%
X97693000Y-82804000D03*
%TO.P,R36,2*%
%TO.N,Net-(J23-Pin_3)*%
X97053000Y-82804000D03*
%TD*%
D15*
%TO.P,R12,1*%
%TO.N,PWM11*%
X198979000Y-84328000D03*
%TO.P,R12,2*%
%TO.N,Net-(J7-Pin_3)*%
X199619000Y-84328000D03*
%TD*%
%TO.P,R10,1*%
%TO.N,PWM9*%
X198979000Y-86360000D03*
%TO.P,R10,2*%
%TO.N,Net-(J5-Pin_3)*%
X199619000Y-86360000D03*
%TD*%
D14*
%TO.P,R38,1*%
%TO.N,PWM5B*%
X97511000Y-84836000D03*
%TO.P,R38,2*%
%TO.N,Net-(J25-Pin_3)*%
X96871000Y-84836000D03*
%TD*%
D17*
%TO.P,U2,1,A0*%
%TO.N,A0*%
X190582200Y-76275000D03*
%TO.P,U2,2,A1*%
%TO.N,A1*%
X190582200Y-76925000D03*
%TO.P,U2,3,A2*%
%TO.N,A2*%
X190582200Y-77575000D03*
%TO.P,U2,4,A3*%
%TO.N,A3*%
X190582200Y-78225000D03*
%TO.P,U2,5,A4*%
%TO.N,A4*%
X190582200Y-78875000D03*
%TO.P,U2,6,PWM0*%
%TO.N,PWM0*%
X190582200Y-79525000D03*
%TO.P,U2,7,PWM1*%
%TO.N,PWM1*%
X190582200Y-80175000D03*
%TO.P,U2,8,PWM2*%
%TO.N,PWM2*%
X190582200Y-80825000D03*
%TO.P,U2,9,PWM3*%
%TO.N,PWM3*%
X190582200Y-81475000D03*
%TO.P,U2,10,PWM4*%
%TO.N,PWM4*%
X190582200Y-82125000D03*
%TO.P,U2,11,PWM5*%
%TO.N,PWM5*%
X190582200Y-82775000D03*
%TO.P,U2,12,PWM6*%
%TO.N,PWM6*%
X190582200Y-83425000D03*
%TO.P,U2,13,PWM7*%
%TO.N,PWM7*%
X190582200Y-84075000D03*
%TO.P,U2,14,GND*%
%TO.N,GND*%
X190582200Y-84725000D03*
%TO.P,U2,15,PWM8*%
%TO.N,PWM8*%
X196417800Y-84725000D03*
%TO.P,U2,16,PWM9*%
%TO.N,PWM9*%
X196417800Y-84075000D03*
%TO.P,U2,17,PWM10*%
%TO.N,PWM10*%
X196417800Y-83425000D03*
%TO.P,U2,18,PWM11*%
%TO.N,PWM11*%
X196417800Y-82775000D03*
%TO.P,U2,19,PWM12*%
%TO.N,PWM12*%
X196417800Y-82125000D03*
%TO.P,U2,20,PWM13*%
%TO.N,PWM13*%
X196417800Y-81475000D03*
%TO.P,U2,21,PWM14*%
%TO.N,PWM14*%
X196417800Y-80825000D03*
%TO.P,U2,22,PWM15*%
%TO.N,PWM15*%
X196417800Y-80175000D03*
%TO.P,U2,23,#OE*%
%TO.N,Net-(U2-#OE)*%
X196417800Y-79525000D03*
%TO.P,U2,24,A5*%
%TO.N,A5*%
X196417800Y-78875000D03*
%TO.P,U2,25,EXTCLK*%
%TO.N,GND*%
X196417800Y-78225000D03*
%TO.P,U2,26,SCL*%
%TO.N,SCL1*%
X196417800Y-77575000D03*
%TO.P,U2,27,SDA*%
%TO.N,SDA1*%
X196417800Y-76925000D03*
%TO.P,U2,28,VDD*%
%TO.N,5.0V*%
X196417800Y-76275000D03*
%TD*%
D15*
%TO.P,R27,1*%
%TO.N,PWM10B*%
X110079000Y-85344000D03*
%TO.P,R27,2*%
%TO.N,Net-(J14-Pin_3)*%
X110719000Y-85344000D03*
%TD*%
%TO.P,R29,1*%
%TO.N,PWM12B*%
X110079000Y-83312000D03*
%TO.P,R29,2*%
%TO.N,Net-(J16-Pin_3)*%
X110719000Y-83312000D03*
%TD*%
D18*
%TO.P,C3,1*%
%TO.N,5.0V*%
X155652500Y-122936000D03*
%TO.P,C3,2*%
%TO.N,GND*%
X154227500Y-122936000D03*
%TD*%
D14*
%TO.P,R18,1*%
%TO.N,PWM1*%
X187427000Y-80264000D03*
%TO.P,R18,2*%
%TO.N,Net-(J11R1-Pin_3)*%
X186787000Y-80264000D03*
%TD*%
D11*
%TO.P,J17R1,1,Pin_1*%
%TO.N,GND*%
X176244000Y-93472000D03*
D12*
%TO.P,J17R1,2,Pin_2*%
%TO.N,5.0V*%
X178244000Y-93472000D03*
%TO.P,J17R1,3,Pin_3*%
%TO.N,Net-(J17R1-Pin_3)*%
X180244000Y-93472000D03*
%TD*%
D11*
%TO.P,J5,1,Pin_1*%
%TO.N,GND*%
X210312000Y-91440000D03*
D12*
%TO.P,J5,2,Pin_2*%
%TO.N,5.0V*%
X208312000Y-91440000D03*
%TO.P,J5,3,Pin_3*%
%TO.N,Net-(J5-Pin_3)*%
X206312000Y-91440000D03*
%TD*%
D14*
%TO.P,R33,1*%
%TO.N,PWM0B*%
X99060000Y-79756000D03*
%TO.P,R33,2*%
%TO.N,Net-(J20-Pin_3)*%
X98420000Y-79756000D03*
%TD*%
D10*
%TO.P,JP4,1,A*%
%TO.N,GND*%
X117022000Y-58699000D03*
%TO.P,JP4,2,B*%
%TO.N,A3*%
X118322000Y-58699000D03*
%TD*%
D11*
%TO.P,J11R1,1,Pin_1*%
%TO.N,GND*%
X176308000Y-75184000D03*
D12*
%TO.P,J11R1,2,Pin_2*%
%TO.N,5.0V*%
X178308000Y-75184000D03*
%TO.P,J11R1,3,Pin_3*%
%TO.N,Net-(J11R1-Pin_3)*%
X180308000Y-75184000D03*
%TD*%
D11*
%TO.P,J15,1,Pin_1*%
%TO.N,GND*%
X124936000Y-89408000D03*
D12*
%TO.P,J15,2,Pin_2*%
%TO.N,5.0V*%
X122936000Y-89408000D03*
%TO.P,J15,3,Pin_3*%
%TO.N,Net-(J15-Pin_3)*%
X120936000Y-89408000D03*
%TD*%
D11*
%TO.P,J6,1,Pin_1*%
%TO.N,GND*%
X210312000Y-88392000D03*
D12*
%TO.P,J6,2,Pin_2*%
%TO.N,5.0V*%
X208312000Y-88392000D03*
%TO.P,J6,3,Pin_3*%
%TO.N,Net-(J6-Pin_3)*%
X206312000Y-88392000D03*
%TD*%
D15*
%TO.P,R16,1*%
%TO.N,PWM15*%
X199136000Y-80264000D03*
%TO.P,R16,2*%
%TO.N,Net-(J11-Pin_3)*%
X199776000Y-80264000D03*
%TD*%
%TO.P,R14,1*%
%TO.N,PWM13*%
X199136000Y-82296000D03*
%TO.P,R14,2*%
%TO.N,Net-(J9-Pin_3)*%
X199776000Y-82296000D03*
%TD*%
D14*
%TO.P,R24,1*%
%TO.N,PWM7*%
X187427000Y-86360000D03*
%TO.P,R24,2*%
%TO.N,Net-(J17R1-Pin_3)*%
X186787000Y-86360000D03*
%TD*%
D15*
%TO.P,R11,1*%
%TO.N,PWM10*%
X198979000Y-85344000D03*
%TO.P,R11,2*%
%TO.N,Net-(J6-Pin_3)*%
X199619000Y-85344000D03*
%TD*%
D11*
%TO.P,J17,1,Pin_1*%
%TO.N,GND*%
X124936000Y-81788000D03*
D12*
%TO.P,J17,2,Pin_2*%
%TO.N,5.0V*%
X122936000Y-81788000D03*
%TO.P,J17,3,Pin_3*%
%TO.N,Net-(J17-Pin_3)*%
X120936000Y-81788000D03*
%TD*%
D11*
%TO.P,J28,1,Pin_1*%
%TO.N,Net-(J28-Pin_1)*%
X130556000Y-81976000D03*
D12*
%TO.P,J28,2,Pin_2*%
%TO.N,Net-(J28-Pin_2)*%
X130556000Y-79976000D03*
%TO.P,J28,3,Pin_3*%
%TO.N,Net-(J28-Pin_3)*%
X130556000Y-77976000D03*
%TO.P,J28,4,Pin_4*%
%TO.N,Net-(J28-Pin_4)*%
X130556000Y-75976000D03*
%TO.P,J28,5,Pin_5*%
%TO.N,Net-(J28-Pin_5)*%
X130556000Y-73976000D03*
%TO.P,J28,6,Pin_6*%
%TO.N,Net-(J28-Pin_6)*%
X130556000Y-71976000D03*
%TO.P,J28,7,Pin_7*%
%TO.N,Net-(J28-Pin_7)*%
X130556000Y-69976000D03*
%TO.P,J28,8,Pin_8*%
%TO.N,Net-(J28-Pin_8)*%
X130556000Y-67976000D03*
%TO.P,J28,9,Pin_9*%
%TO.N,Net-(J28-Pin_9)*%
X130556000Y-65976000D03*
%TO.P,J28,10,Pin_10*%
%TO.N,Net-(J28-Pin_10)*%
X130556000Y-63976000D03*
%TO.P,J28,11,Pin_11*%
%TO.N,unconnected-(J28-Pin_11-Pad11)*%
X130556000Y-61976000D03*
%TD*%
D11*
%TO.P,J27,1,Pin_1*%
%TO.N,GND*%
X82296000Y-94996000D03*
D12*
%TO.P,J27,2,Pin_2*%
%TO.N,5.0V*%
X84296000Y-94996000D03*
%TO.P,J27,3,Pin_3*%
%TO.N,Net-(J27-Pin_3)*%
X86296000Y-94996000D03*
%TD*%
D19*
%TO.P,C1,1*%
%TO.N,5.0V*%
X178188000Y-66040000D03*
%TO.P,C1,2*%
%TO.N,GND*%
X170688000Y-66040000D03*
%TD*%
D11*
%TO.P,J8,1,Pin_1*%
%TO.N,GND*%
X210280000Y-82296000D03*
D12*
%TO.P,J8,2,Pin_2*%
%TO.N,5.0V*%
X208280000Y-82296000D03*
%TO.P,J8,3,Pin_3*%
%TO.N,Net-(J8-Pin_3)*%
X206280000Y-82296000D03*
%TD*%
D10*
%TO.P,JP2,1,A*%
%TO.N,GND*%
X117022000Y-51308000D03*
%TO.P,JP2,2,B*%
%TO.N,A1*%
X118322000Y-51308000D03*
%TD*%
D11*
%TO.P,J9,1,Pin_1*%
%TO.N,GND*%
X210280000Y-79248000D03*
D12*
%TO.P,J9,2,Pin_2*%
%TO.N,5.0V*%
X208280000Y-79248000D03*
%TO.P,J9,3,Pin_3*%
%TO.N,Net-(J9-Pin_3)*%
X206280000Y-79248000D03*
%TD*%
D11*
%TO.P,J11,1,Pin_1*%
%TO.N,GND*%
X210248000Y-73152000D03*
D12*
%TO.P,J11,2,Pin_2*%
%TO.N,5.0V*%
X208248000Y-73152000D03*
%TO.P,J11,3,Pin_3*%
%TO.N,Net-(J11-Pin_3)*%
X206248000Y-73152000D03*
%TD*%
D20*
%TO.P,Q1,4*%
%TO.N,5.0V*%
X154432000Y-112876000D03*
D21*
%TO.P,Q1,3*%
%TO.N,Net-(J2-Pin_2)*%
X156718000Y-119406000D03*
%TO.P,Q1,1*%
%TO.N,GND*%
X152146000Y-119406000D03*
%TD*%
D14*
%TO.P,R20,1*%
%TO.N,PWM3*%
X187427000Y-82296000D03*
%TO.P,R20,2*%
%TO.N,Net-(J13R1-Pin_3)*%
X186787000Y-82296000D03*
%TD*%
D11*
%TO.P,J21,1,Pin_1*%
%TO.N,GND*%
X82296000Y-76708000D03*
D12*
%TO.P,J21,2,Pin_2*%
%TO.N,5.0V*%
X84296000Y-76708000D03*
%TO.P,J21,3,Pin_3*%
%TO.N,Net-(J21-Pin_3)*%
X86296000Y-76708000D03*
%TD*%
D22*
%TO.P,U3,1,3V3*%
%TO.N,unconnected-(J28-Pin_11-Pad11)*%
X138100000Y-57300000D03*
D23*
%TO.P,U3,2,EN*%
%TO.N,Net-(J3-Pin_1)*%
X138100000Y-59840000D03*
%TO.P,U3,3,VP*%
%TO.N,Net-(J3-Pin_2)*%
X138100000Y-62380000D03*
%TO.P,U3,4,VN*%
%TO.N,Net-(J3-Pin_3)*%
X138100000Y-64920000D03*
%TO.P,U3,5,34*%
%TO.N,Net-(J28-Pin_5)*%
X138100000Y-67460000D03*
%TO.P,U3,6,35*%
%TO.N,Net-(J28-Pin_4)*%
X138100000Y-70000000D03*
%TO.P,U3,7,32*%
%TO.N,SDA1*%
X138100000Y-72540000D03*
%TO.P,U3,8,33*%
%TO.N,SCL1*%
X138100000Y-75080000D03*
%TO.P,U3,9,25*%
%TO.N,SDA0*%
X138100000Y-77620000D03*
%TO.P,U3,10,26*%
%TO.N,SCL0*%
X138100000Y-80160000D03*
%TO.P,U3,11,27*%
%TO.N,Net-(J28-Pin_6)*%
X138100000Y-82700000D03*
%TO.P,U3,12,14*%
%TO.N,Net-(J3-Pin_12)*%
X138100000Y-85240000D03*
%TO.P,U3,13,12*%
%TO.N,Net-(J3-Pin_10)*%
X138100000Y-87780000D03*
%TO.P,U3,14,GND*%
%TO.N,GND*%
X138100000Y-90320000D03*
%TO.P,U3,15,13*%
%TO.N,Net-(J3-Pin_11)*%
X138100000Y-92860000D03*
%TO.P,U3,16,D2*%
%TO.N,Net-(J28-Pin_3)*%
X138100000Y-95400000D03*
%TO.P,U3,17,D3*%
%TO.N,Net-(J28-Pin_2)*%
X138100000Y-97940000D03*
%TO.P,U3,18,CMD*%
%TO.N,Net-(J28-Pin_1)*%
X138100000Y-100480000D03*
%TO.P,U3,19,5V*%
%TO.N,5.0V*%
X138100000Y-103020000D03*
%TO.P,U3,20,GND*%
%TO.N,GND*%
X163500000Y-57300000D03*
%TO.P,U3,21,23*%
%TO.N,Net-(J28-Pin_7)*%
X163500000Y-59840000D03*
%TO.P,U3,22,22*%
%TO.N,Net-(J28-Pin_8)*%
X163500000Y-62380000D03*
%TO.P,U3,23,TX*%
%TO.N,Net-(J3-Pin_4)*%
X163500000Y-64920000D03*
%TO.P,U3,24,RX*%
%TO.N,Net-(J3-Pin_5)*%
X163500000Y-67460000D03*
%TO.P,U3,25,21*%
%TO.N,Net-(J28-Pin_9)*%
X163500000Y-70000000D03*
%TO.P,U3,26,GND*%
%TO.N,GND*%
X163500000Y-72540000D03*
%TO.P,U3,27,19*%
%TO.N,Net-(J28-Pin_10)*%
X163500000Y-75080000D03*
%TO.P,U3,28,18*%
%TO.N,Net-(J3-Pin_16)*%
X163500000Y-77620000D03*
%TO.P,U3,29,5*%
%TO.N,Net-(J3-Pin_9)*%
X163500000Y-80160000D03*
%TO.P,U3,30,17*%
%TO.N,Net-(J3-Pin_15)*%
X163500000Y-82700000D03*
%TO.P,U3,31,16*%
%TO.N,Net-(J3-Pin_14)*%
X163500000Y-85240000D03*
%TO.P,U3,32,4*%
%TO.N,Net-(J3-Pin_8)*%
X163500000Y-87780000D03*
%TO.P,U3,33,0*%
%TO.N,Net-(J3-Pin_6)*%
X163500000Y-90320000D03*
%TO.P,U3,34,2*%
%TO.N,Net-(J3-Pin_7)*%
X163500000Y-92860000D03*
%TO.P,U3,35,15*%
%TO.N,Net-(J3-Pin_13)*%
X163500000Y-95400000D03*
%TO.P,U3,36,D1*%
%TO.N,Net-(J3-Pin_18)*%
X163500000Y-97940000D03*
%TO.P,U3,37,D0*%
%TO.N,Net-(J3-Pin_17)*%
X163500000Y-100480000D03*
%TO.P,U3,38,CLK*%
%TO.N,Net-(J3-Pin_19)*%
X163500000Y-103020000D03*
%TD*%
D17*
%TO.P,U1-Left1,1,A0*%
%TO.N,A0*%
X101222200Y-76547000D03*
%TO.P,U1-Left1,2,A1*%
%TO.N,A1*%
X101222200Y-77197000D03*
%TO.P,U1-Left1,3,A2*%
%TO.N,A2*%
X101222200Y-77847000D03*
%TO.P,U1-Left1,4,A3*%
%TO.N,A3*%
X101222200Y-78497000D03*
%TO.P,U1-Left1,5,A4*%
%TO.N,A4*%
X101222200Y-79147000D03*
%TO.P,U1-Left1,6,PWM0*%
%TO.N,PWM0B*%
X101222200Y-79797000D03*
%TO.P,U1-Left1,7,PWM1*%
%TO.N,PWM1B*%
X101222200Y-80447000D03*
%TO.P,U1-Left1,8,PWM2*%
%TO.N,PWM2B*%
X101222200Y-81097000D03*
%TO.P,U1-Left1,9,PWM3*%
%TO.N,PWM3B*%
X101222200Y-81747000D03*
%TO.P,U1-Left1,10,PWM4*%
%TO.N,PWM4B*%
X101222200Y-82397000D03*
%TO.P,U1-Left1,11,PWM5*%
%TO.N,PWM5B*%
X101222200Y-83047000D03*
%TO.P,U1-Left1,12,PWM6*%
%TO.N,PWM6B*%
X101222200Y-83697000D03*
%TO.P,U1-Left1,13,PWM7*%
%TO.N,PWM7B*%
X101222200Y-84347000D03*
%TO.P,U1-Left1,14,GND*%
%TO.N,GND*%
X101222200Y-84997000D03*
%TO.P,U1-Left1,15,PWM8*%
%TO.N,PWM8B*%
X107057800Y-84997000D03*
%TO.P,U1-Left1,16,PWM9*%
%TO.N,PWM9B*%
X107057800Y-84347000D03*
%TO.P,U1-Left1,17,PWM10*%
%TO.N,PWM10B*%
X107057800Y-83697000D03*
%TO.P,U1-Left1,18,PWM11*%
%TO.N,PWM11B*%
X107057800Y-83047000D03*
%TO.P,U1-Left1,19,PWM12*%
%TO.N,PWM12B*%
X107057800Y-82397000D03*
%TO.P,U1-Left1,20,PWM13*%
%TO.N,PWM13B*%
X107057800Y-81747000D03*
%TO.P,U1-Left1,21,PWM14*%
%TO.N,PWM14B*%
X107057800Y-81097000D03*
%TO.P,U1-Left1,22,PWM15*%
%TO.N,PWM15B*%
X107057800Y-80447000D03*
%TO.P,U1-Left1,23,#OE*%
%TO.N,Net-(U1-Left1-#OE)*%
X107057800Y-79797000D03*
%TO.P,U1-Left1,24,A5*%
%TO.N,A5*%
X107057800Y-79147000D03*
%TO.P,U1-Left1,25,EXTCLK*%
%TO.N,GND*%
X107057800Y-78497000D03*
%TO.P,U1-Left1,26,SCL*%
%TO.N,SCL0*%
X107057800Y-77847000D03*
%TO.P,U1-Left1,27,SDA*%
%TO.N,SDA0*%
X107057800Y-77197000D03*
%TO.P,U1-Left1,28,VDD*%
%TO.N,GND*%
X107057800Y-76547000D03*
%TD*%
D11*
%TO.P,J16,1,Pin_1*%
%TO.N,GND*%
X124936000Y-85344000D03*
D12*
%TO.P,J16,2,Pin_2*%
%TO.N,5.0V*%
X122936000Y-85344000D03*
%TO.P,J16,3,Pin_3*%
%TO.N,Net-(J16-Pin_3)*%
X120936000Y-85344000D03*
%TD*%
D24*
%TO.N,GND*%
X200500000Y-77500000D03*
X146304000Y-113792000D03*
X109220000Y-78497000D03*
X124460000Y-71120000D03*
X146304000Y-108204000D03*
X129976000Y-89500000D03*
X101600000Y-86360000D03*
X117348000Y-71628000D03*
X197500000Y-78257000D03*
X190500000Y-85852000D03*
%TO.N,5.0V*%
X136144000Y-105156000D03*
X131572000Y-104648000D03*
%TO.N,Net-(J3-Pin_2)*%
X170180000Y-60998000D03*
X135636000Y-61468000D03*
%TO.N,Net-(J3-Pin_3)*%
X165608000Y-65532000D03*
X134620000Y-64516000D03*
%TO.N,Net-(J3-Pin_1)*%
X135636000Y-59436000D03*
X167132000Y-55372000D03*
%TO.N,A0*%
X125476000Y-47244000D03*
X171196000Y-53340000D03*
%TO.N,A1*%
X182372000Y-67056000D03*
X115824000Y-53340000D03*
X100076000Y-76200000D03*
X122428000Y-50292000D03*
X112268000Y-66040000D03*
X118364000Y-53340000D03*
%TO.N,A2*%
X183388000Y-76093000D03*
X184404000Y-77253000D03*
X99798566Y-77061020D03*
X188976000Y-77724000D03*
X122428000Y-52832000D03*
X118364000Y-56896000D03*
%TO.N,A3*%
X174244000Y-77724000D03*
X187960000Y-77833000D03*
X118364000Y-60452000D03*
X114808000Y-65024000D03*
X116332000Y-60452000D03*
X173736000Y-70612000D03*
X122428000Y-56896000D03*
X99060000Y-76200000D03*
%TO.N,A4*%
X127000000Y-60452000D03*
X98044000Y-76200000D03*
X118364000Y-64008000D03*
X167000000Y-54000000D03*
X122428000Y-60452000D03*
X134000000Y-54000000D03*
%TO.N,A5*%
X108204000Y-79184000D03*
X122350000Y-69088000D03*
X126500000Y-69088000D03*
X114372000Y-78232000D03*
X135000000Y-52500000D03*
X166500000Y-53000000D03*
%TO.N,SDA0*%
X114808000Y-75184000D03*
X135636000Y-76200000D03*
X111760000Y-77216000D03*
X114808000Y-77216000D03*
%TO.N,SCL0*%
X112776000Y-77724000D03*
X135636000Y-78232000D03*
%TO.N,Net-(J3-Pin_8)*%
X166188000Y-76708000D03*
X166188000Y-79248000D03*
%TO.N,Net-(J3-Pin_17)*%
X165608000Y-99060000D03*
X165608000Y-96520000D03*
%TO.N,Net-(J28-Pin_4)*%
X135128000Y-70104000D03*
X128016000Y-75184000D03*
%TO.N,SCL1*%
X135636000Y-73660000D03*
X197640536Y-77244536D03*
%TO.N,Net-(J28-Pin_8)*%
X136216000Y-63500000D03*
X132080000Y-67564000D03*
X134112000Y-63500000D03*
X165608000Y-63500000D03*
%TO.N,Net-(J28-Pin_10)*%
X132080000Y-62992000D03*
X134112000Y-62484000D03*
X134112000Y-73660000D03*
%TO.N,Net-(J3-Pin_12)*%
X136144000Y-84836000D03*
X165608000Y-84328000D03*
%TO.N,Net-(J28-Pin_9)*%
X132516000Y-65532000D03*
%TO.N,Net-(J3-Pin_11)*%
X171196000Y-86360000D03*
X169672000Y-92456000D03*
%TO.N,Net-(J3-Pin_5)*%
X165100000Y-70104000D03*
X165608000Y-72136000D03*
%TO.N,Net-(J28-Pin_5)*%
X135636000Y-67564000D03*
X128016000Y-73152000D03*
%TO.N,Net-(J3-Pin_7)*%
X169744000Y-87884000D03*
%TO.N,Net-(J3-Pin_10)*%
X136144000Y-86868000D03*
X166116000Y-93980000D03*
%TO.N,Net-(J3-Pin_15)*%
X161036000Y-84836000D03*
%TO.N,SDA1*%
X198000000Y-76500000D03*
X134112000Y-71120000D03*
%TO.N,Net-(J28-Pin_7)*%
X166116000Y-58928000D03*
X134620000Y-59944000D03*
%TD*%
D25*
%TO.N,GND*%
X169164000Y-107188000D02*
X146304000Y-107188000D01*
X176244000Y-100108000D02*
X169164000Y-107188000D01*
X176244000Y-93472000D02*
X176244000Y-100108000D01*
X146304000Y-107188000D02*
X146304000Y-108204000D01*
D26*
X122930000Y-65560000D02*
X122930000Y-72162000D01*
D25*
X82296000Y-94996000D02*
X82296000Y-73660000D01*
D26*
X117022000Y-62249000D02*
X117022000Y-58699000D01*
X117022000Y-55149000D02*
X117022000Y-51308000D01*
X123093000Y-47808000D02*
X123093000Y-51308000D01*
X167244426Y-68583000D02*
X168145000Y-68583000D01*
X117022000Y-55149000D02*
X117022000Y-58699000D01*
X123093000Y-65397000D02*
X122930000Y-65560000D01*
X113792000Y-74880500D02*
X113792000Y-79248000D01*
X110700500Y-76547000D02*
X114095500Y-73152000D01*
X117022000Y-70225500D02*
X114095500Y-73152000D01*
D25*
X210312000Y-85852000D02*
X210312000Y-88392000D01*
D26*
X115520500Y-73152000D02*
X113792000Y-74880500D01*
D25*
X210312000Y-91440000D02*
X210312000Y-94456000D01*
D26*
X176276000Y-72136000D02*
X176276000Y-71628000D01*
X107057800Y-76547000D02*
X110700500Y-76547000D01*
X115824000Y-73152000D02*
X117348000Y-71628000D01*
D25*
X210280000Y-79248000D02*
X210280000Y-82296000D01*
D26*
X210248000Y-76644000D02*
X210280000Y-76676000D01*
D25*
X127492000Y-98552000D02*
X146304000Y-117364000D01*
D26*
X168145000Y-68583000D02*
X170688000Y-66040000D01*
X124968000Y-98552000D02*
X124968000Y-98044000D01*
X210312000Y-94456000D02*
X210280000Y-94488000D01*
X166685000Y-69355000D02*
X166685000Y-69142426D01*
X196417800Y-78225000D02*
X196449800Y-78257000D01*
X129884000Y-89408000D02*
X129976000Y-89500000D01*
X166624000Y-63962574D02*
X167244426Y-64583000D01*
X151213000Y-120339000D02*
X152146000Y-119406000D01*
X117022000Y-62249000D02*
X117022000Y-65799000D01*
D25*
X210248000Y-73152000D02*
X210248000Y-76200000D01*
D26*
X166624000Y-60452000D02*
X166624000Y-63962574D01*
X109220000Y-78497000D02*
X113041000Y-78497000D01*
X199743000Y-78257000D02*
X200500000Y-77500000D01*
X123093000Y-62512000D02*
X123093000Y-65397000D01*
X124936000Y-71596000D02*
X124460000Y-71120000D01*
D25*
X146304000Y-113792000D02*
X146304000Y-117364000D01*
D26*
X163500000Y-57300000D02*
X165308244Y-57300000D01*
X146304000Y-117364000D02*
X145329000Y-118339000D01*
D25*
X176244000Y-93472000D02*
X176244000Y-72168000D01*
D26*
X124936000Y-89408000D02*
X129884000Y-89408000D01*
X190582200Y-85769800D02*
X190500000Y-85852000D01*
X199136000Y-78257000D02*
X199743000Y-78257000D01*
X165308244Y-57300000D02*
X166696000Y-58687756D01*
X197500000Y-78257000D02*
X199136000Y-78257000D01*
D25*
X124968000Y-98552000D02*
X127492000Y-98552000D01*
D26*
X145329000Y-119767859D02*
X145900141Y-120339000D01*
X196449800Y-78257000D02*
X197500000Y-78257000D01*
X145329000Y-118339000D02*
X145329000Y-119767859D01*
D25*
X210312000Y-88392000D02*
X210312000Y-91440000D01*
X124936000Y-98012000D02*
X124936000Y-74168000D01*
D26*
X210248000Y-76200000D02*
X210248000Y-76644000D01*
D25*
X210280000Y-82296000D02*
X210280000Y-85344000D01*
D26*
X124936000Y-74168000D02*
X124936000Y-71596000D01*
X176244000Y-72168000D02*
X176276000Y-72136000D01*
X117022000Y-48049000D02*
X117022000Y-51308000D01*
X145900141Y-120339000D02*
X151213000Y-120339000D01*
X123093000Y-51308000D02*
X123093000Y-55308000D01*
X113041000Y-78497000D02*
X113792000Y-79248000D01*
X190582200Y-84725000D02*
X190582200Y-85769800D01*
X122930000Y-72162000D02*
X124936000Y-74168000D01*
X107057800Y-78497000D02*
X109220000Y-78497000D01*
X101600000Y-86360000D02*
X101600000Y-85374800D01*
X114095500Y-73152000D02*
X115520500Y-73152000D01*
X115520500Y-73152000D02*
X115824000Y-73152000D01*
X152146000Y-119406000D02*
X154227500Y-121487500D01*
X210280000Y-85820000D02*
X210312000Y-85852000D01*
X101600000Y-85374800D02*
X101222200Y-84997000D01*
X170760000Y-65580000D02*
X170300000Y-66040000D01*
X210280000Y-85344000D02*
X210280000Y-85820000D01*
X163500000Y-72540000D02*
X166685000Y-69355000D01*
X117022000Y-65799000D02*
X117022000Y-70225500D01*
X113648500Y-72705000D02*
X114095500Y-73152000D01*
X154227500Y-121487500D02*
X154227500Y-122936000D01*
X176276000Y-71628000D02*
X170688000Y-66040000D01*
X123093000Y-58448000D02*
X123093000Y-62512000D01*
X163800000Y-72540000D02*
X163500000Y-72540000D01*
X166696000Y-60380000D02*
X166624000Y-60452000D01*
X167244426Y-64583000D02*
X169231000Y-64583000D01*
X166696000Y-58687756D02*
X166696000Y-60380000D01*
X124968000Y-98044000D02*
X124936000Y-98012000D01*
X169231000Y-64583000D02*
X170688000Y-66040000D01*
D25*
X210280000Y-76676000D02*
X210280000Y-79248000D01*
D26*
X166685000Y-69142426D02*
X167244426Y-68583000D01*
X123093000Y-55308000D02*
X123093000Y-58448000D01*
%TO.N,5.0V*%
X178276000Y-72136000D02*
X178276000Y-71152000D01*
X154432000Y-112876000D02*
X158496000Y-116940000D01*
X158496000Y-121412000D02*
X156972000Y-122936000D01*
D25*
X89800000Y-100500000D02*
X84296000Y-94996000D01*
X178244000Y-90424000D02*
X178244000Y-93472000D01*
X178244000Y-97804000D02*
X179500000Y-99060000D01*
X121020000Y-100500000D02*
X89800000Y-100500000D01*
X122936000Y-98044000D02*
X122936000Y-74168000D01*
D26*
X158496000Y-116940000D02*
X158496000Y-121412000D01*
D25*
X122968000Y-98552000D02*
X121020000Y-100500000D01*
D26*
X178244000Y-90424000D02*
X178244000Y-89980000D01*
X200495800Y-72197000D02*
X207293000Y-72197000D01*
X208248000Y-79216000D02*
X208280000Y-79248000D01*
X178244000Y-89980000D02*
X178276000Y-89948000D01*
D25*
X143864000Y-112876000D02*
X136144000Y-105156000D01*
D26*
X122968000Y-98076000D02*
X122936000Y-98044000D01*
X178276000Y-66516000D02*
X177800000Y-66040000D01*
D25*
X208280000Y-79248000D02*
X208280000Y-82296000D01*
X178276000Y-89948000D02*
X178276000Y-72136000D01*
X179500000Y-100408000D02*
X167032000Y-112876000D01*
D26*
X154432000Y-112876000D02*
X147956000Y-112876000D01*
D25*
X154432000Y-112876000D02*
X143864000Y-112876000D01*
X179500000Y-99060000D02*
X179500000Y-100408000D01*
D26*
X156972000Y-122936000D02*
X155652500Y-122936000D01*
X207293000Y-72197000D02*
X208248000Y-73152000D01*
D25*
X179500000Y-99060000D02*
X203708000Y-99060000D01*
X203708000Y-99060000D02*
X208280000Y-94488000D01*
D26*
X178188000Y-71064000D02*
X178188000Y-66040000D01*
D25*
X131064000Y-104140000D02*
X131572000Y-104648000D01*
D26*
X178276000Y-71152000D02*
X178188000Y-71064000D01*
X122968000Y-98552000D02*
X122968000Y-98076000D01*
D25*
X178244000Y-93472000D02*
X178244000Y-97804000D01*
X128556000Y-104140000D02*
X131064000Y-104140000D01*
X208280000Y-82296000D02*
X208280000Y-94488000D01*
X167032000Y-112876000D02*
X154432000Y-112876000D01*
D26*
X137964000Y-103156000D02*
X138100000Y-103020000D01*
D25*
X208248000Y-76200000D02*
X208248000Y-79216000D01*
X84296000Y-73660000D02*
X84296000Y-94996000D01*
D26*
X147956000Y-112876000D02*
X138100000Y-103020000D01*
X178406000Y-65500000D02*
X177866000Y-66040000D01*
X196417800Y-76275000D02*
X200495800Y-72197000D01*
D25*
X208248000Y-73152000D02*
X208248000Y-76200000D01*
X122968000Y-98552000D02*
X128556000Y-104140000D01*
D26*
%TO.N,Net-(J2-Pin_2)*%
X148072000Y-117596000D02*
X154908000Y-117596000D01*
X154908000Y-117596000D02*
X156718000Y-119406000D01*
X146304000Y-119364000D02*
X148072000Y-117596000D01*
%TO.N,Net-(J3-Pin_2)*%
X137980000Y-62500000D02*
X136668000Y-62500000D01*
X136668000Y-62500000D02*
X135636000Y-61468000D01*
X167640000Y-63538000D02*
X170180000Y-60998000D01*
X170180000Y-60960000D02*
X170180000Y-60998000D01*
X137980000Y-62500000D02*
X138100000Y-62380000D01*
X167640000Y-63628000D02*
X167640000Y-63538000D01*
%TO.N,Net-(J3-Pin_3)*%
X138100000Y-64920000D02*
X135024000Y-64920000D01*
X165704000Y-65628000D02*
X165608000Y-65532000D01*
X167640000Y-65628000D02*
X165704000Y-65628000D01*
X135024000Y-64920000D02*
X134620000Y-64516000D01*
%TO.N,Net-(J3-Pin_1)*%
X167640000Y-55880000D02*
X167640000Y-61628000D01*
X167132000Y-55372000D02*
X167640000Y-55880000D01*
X136548000Y-59840000D02*
X138100000Y-59840000D01*
X135636000Y-59436000D02*
X136144000Y-59436000D01*
X136144000Y-59436000D02*
X136548000Y-59840000D01*
%TO.N,Net-(J5-Pin_3)*%
X201232000Y-86360000D02*
X206312000Y-91440000D01*
X199619000Y-86360000D02*
X201232000Y-86360000D01*
%TO.N,Net-(J6-Pin_3)*%
X206312000Y-88392000D02*
X203264000Y-85344000D01*
X203264000Y-85344000D02*
X199619000Y-85344000D01*
%TO.N,Net-(J7-Pin_3)*%
X205264000Y-84328000D02*
X206280000Y-85344000D01*
X199619000Y-84328000D02*
X205264000Y-84328000D01*
%TO.N,Net-(J8-Pin_3)*%
X203200000Y-82296000D02*
X202184000Y-83312000D01*
X202184000Y-83312000D02*
X199619000Y-83312000D01*
X206280000Y-82296000D02*
X203200000Y-82296000D01*
%TO.N,Net-(J9-Pin_3)*%
X204248000Y-81280000D02*
X206280000Y-79248000D01*
X199776000Y-82296000D02*
X200792000Y-81280000D01*
X200792000Y-81280000D02*
X204248000Y-81280000D01*
%TO.N,Net-(J10-Pin_3)*%
X204881000Y-76200000D02*
X206248000Y-76200000D01*
X199801000Y-81280000D02*
X204881000Y-76200000D01*
%TO.N,Net-(J10R1-Pin_3)*%
X186787000Y-78647000D02*
X180276000Y-72136000D01*
X186787000Y-79248000D02*
X186787000Y-78647000D01*
%TO.N,Net-(J11-Pin_3)*%
X199776000Y-79624000D02*
X206248000Y-73152000D01*
X199776000Y-80264000D02*
X199776000Y-79624000D01*
%TO.N,Net-(J11R1-Pin_3)*%
X185388000Y-80264000D02*
X180308000Y-75184000D01*
X186787000Y-80264000D02*
X185388000Y-80264000D01*
%TO.N,Net-(J12-Pin_3)*%
X110719000Y-88303000D02*
X120968000Y-98552000D01*
X110719000Y-87376000D02*
X110719000Y-88303000D01*
%TO.N,Net-(J12R1-Pin_3)*%
X183356000Y-81280000D02*
X180308000Y-78232000D01*
X186787000Y-81280000D02*
X183356000Y-81280000D01*
%TO.N,Net-(J13-Pin_3)*%
X110719000Y-86360000D02*
X111792000Y-86360000D01*
X111792000Y-86360000D02*
X120936000Y-95504000D01*
%TO.N,Net-(J13R1-Pin_3)*%
X186787000Y-82296000D02*
X181292000Y-82296000D01*
X181292000Y-82296000D02*
X180276000Y-81280000D01*
%TO.N,Net-(J14-Pin_3)*%
X120936000Y-92456000D02*
X113824000Y-85344000D01*
X113824000Y-85344000D02*
X110719000Y-85344000D01*
%TO.N,Net-(J14R1-Pin_3)*%
X181260000Y-83312000D02*
X180244000Y-84328000D01*
X186787000Y-83312000D02*
X181260000Y-83312000D01*
%TO.N,Net-(J15-Pin_3)*%
X114300000Y-84328000D02*
X110719000Y-84328000D01*
X119380000Y-89408000D02*
X114300000Y-84328000D01*
X120936000Y-89408000D02*
X119380000Y-89408000D01*
%TO.N,Net-(J15R1-Pin_3)*%
X186787000Y-84328000D02*
X183292000Y-84328000D01*
X183292000Y-84328000D02*
X180244000Y-87376000D01*
%TO.N,Net-(J16-Pin_3)*%
X110719000Y-83312000D02*
X116332000Y-83312000D01*
X116332000Y-83312000D02*
X118364000Y-85344000D01*
X118364000Y-85344000D02*
X120936000Y-85344000D01*
%TO.N,Net-(J16R1-Pin_3)*%
X185324000Y-85344000D02*
X180244000Y-90424000D01*
X186787000Y-85344000D02*
X185324000Y-85344000D01*
%TO.N,Net-(J17-Pin_3)*%
X111409000Y-81788000D02*
X110901000Y-82296000D01*
X120936000Y-81788000D02*
X111409000Y-81788000D01*
%TO.N,Net-(J17R1-Pin_3)*%
X186787000Y-86929000D02*
X180244000Y-93472000D01*
X186787000Y-86360000D02*
X186787000Y-86929000D01*
%TO.N,Net-(J18-Pin_3)*%
X120936000Y-77216000D02*
X116872000Y-81280000D01*
X116872000Y-81280000D02*
X110901000Y-81280000D01*
%TO.N,Net-(J19-Pin_3)*%
X114840000Y-80264000D02*
X110901000Y-80264000D01*
X120936000Y-74168000D02*
X114840000Y-80264000D01*
%TO.N,Net-(J20-Pin_3)*%
X92392000Y-79756000D02*
X98420000Y-79756000D01*
X86296000Y-73660000D02*
X92392000Y-79756000D01*
%TO.N,Net-(J21-Pin_3)*%
X86296000Y-76708000D02*
X90360000Y-80772000D01*
X90360000Y-80772000D02*
X97028000Y-80772000D01*
%TO.N,Net-(J22-Pin_3)*%
X88328000Y-81788000D02*
X97053000Y-81788000D01*
X86296000Y-79756000D02*
X88328000Y-81788000D01*
%TO.N,Net-(J23-Pin_3)*%
X86296000Y-82804000D02*
X97053000Y-82804000D01*
%TO.N,Net-(J24-Pin_3)*%
X88296000Y-83820000D02*
X96871000Y-83820000D01*
X86264000Y-85852000D02*
X88296000Y-83820000D01*
%TO.N,Net-(J25-Pin_3)*%
X90328000Y-84836000D02*
X96871000Y-84836000D01*
X86264000Y-88900000D02*
X90328000Y-84836000D01*
%TO.N,Net-(J26-Pin_3)*%
X92392000Y-85852000D02*
X96871000Y-85852000D01*
X86296000Y-91948000D02*
X92392000Y-85852000D01*
%TO.N,Net-(J27-Pin_3)*%
X86296000Y-94996000D02*
X94424000Y-86868000D01*
X94424000Y-86868000D02*
X96896000Y-86868000D01*
%TO.N,Net-(J28-Pin_2)*%
X137188000Y-97028000D02*
X138100000Y-97940000D01*
X130556000Y-79976000D02*
X133096000Y-82516000D01*
X133096000Y-97028000D02*
X137188000Y-97028000D01*
X133096000Y-82516000D02*
X133096000Y-97028000D01*
%TO.N,Net-(J28-Pin_1)*%
X134008000Y-100480000D02*
X138100000Y-100480000D01*
X130556000Y-97028000D02*
X134008000Y-100480000D01*
X130556000Y-81976000D02*
X130556000Y-97028000D01*
%TO.N,Net-(J28-Pin_3)*%
X135128000Y-94488000D02*
X137188000Y-94488000D01*
X138000000Y-95500000D02*
X138100000Y-95400000D01*
X137188000Y-94488000D02*
X138100000Y-95400000D01*
X135128000Y-82548000D02*
X135128000Y-94488000D01*
X130556000Y-77976000D02*
X135128000Y-82548000D01*
%TO.N,A0*%
X122817001Y-47244000D02*
X125476000Y-47244000D01*
X179832000Y-61976000D02*
X180848000Y-62992000D01*
X180848000Y-62992000D02*
X180848000Y-63500000D01*
X122212000Y-48049000D02*
X122453000Y-47808000D01*
X118242000Y-47019000D02*
X118322000Y-47099000D01*
X171196000Y-53340000D02*
X171196000Y-61976000D01*
X122453000Y-47808000D02*
X122453000Y-47608001D01*
X171196000Y-61976000D02*
X179832000Y-61976000D01*
X122453000Y-47608001D02*
X122817001Y-47244000D01*
X102108000Y-73660000D02*
X102108000Y-61153000D01*
X183388000Y-73152000D02*
X186511000Y-76275000D01*
X102108000Y-61153000D02*
X116242000Y-47019000D01*
X186511000Y-76275000D02*
X190582200Y-76275000D01*
X118322000Y-48049000D02*
X122212000Y-48049000D01*
X180848000Y-63500000D02*
X183388000Y-66040000D01*
X183388000Y-66040000D02*
X183388000Y-73152000D01*
X118322000Y-47099000D02*
X118322000Y-48049000D01*
X101222200Y-74545800D02*
X102108000Y-73660000D01*
X101222200Y-76547000D02*
X101222200Y-74545800D01*
X116242000Y-47019000D02*
X118242000Y-47019000D01*
%TO.N,A1*%
X186623598Y-76925000D02*
X182372000Y-72673402D01*
X190582200Y-76925000D02*
X186623598Y-76925000D01*
X122428000Y-51283000D02*
X122453000Y-51308000D01*
X112268000Y-66040000D02*
X112268000Y-56896000D01*
X100526900Y-77197000D02*
X100446900Y-77117000D01*
X118322000Y-52790000D02*
X118322000Y-51308000D01*
X101222200Y-77197000D02*
X100526900Y-77197000D01*
X122428000Y-50292000D02*
X122428000Y-51283000D01*
X100446900Y-76570900D02*
X100076000Y-76200000D01*
X118322000Y-51308000D02*
X122453000Y-51308000D01*
X118364000Y-52832000D02*
X118322000Y-52790000D01*
X182372000Y-72673402D02*
X182372000Y-67056000D01*
X118364000Y-53340000D02*
X118364000Y-52832000D01*
X112268000Y-56896000D02*
X115824000Y-53340000D01*
X100446900Y-77117000D02*
X100446900Y-76570900D01*
%TO.N,A2*%
X118322000Y-56854000D02*
X118364000Y-56896000D01*
X190433200Y-77724000D02*
X190582200Y-77575000D01*
X183388000Y-76093000D02*
X183388000Y-77216000D01*
X122294000Y-55149000D02*
X122453000Y-55308000D01*
X118322000Y-55149000D02*
X118322000Y-56854000D01*
X122453000Y-55308000D02*
X122453000Y-52857000D01*
X184367000Y-77216000D02*
X184404000Y-77253000D01*
X188976000Y-77724000D02*
X190433200Y-77724000D01*
X118322000Y-55149000D02*
X122294000Y-55149000D01*
X183388000Y-77216000D02*
X184367000Y-77216000D01*
X99798566Y-77061020D02*
X100584546Y-77847000D01*
X100584546Y-77847000D02*
X101222200Y-77847000D01*
X122453000Y-52857000D02*
X122428000Y-52832000D01*
%TO.N,A3*%
X122428000Y-58423000D02*
X122453000Y-58448000D01*
X101222200Y-78497000D02*
X100414302Y-78497000D01*
X190582200Y-78225000D02*
X190503200Y-78304000D01*
X114808000Y-61976000D02*
X116332000Y-60452000D01*
X118322000Y-58699000D02*
X122202000Y-58699000D01*
X122428000Y-56896000D02*
X122428000Y-58423000D01*
X99060000Y-77142698D02*
X99060000Y-76200000D01*
X100414302Y-78497000D02*
X99060000Y-77142698D01*
X173736000Y-77216000D02*
X173736000Y-70612000D01*
X174244000Y-77724000D02*
X173736000Y-77216000D01*
X118364000Y-60452000D02*
X118364000Y-58741000D01*
X122202000Y-58699000D02*
X122453000Y-58448000D01*
X188431000Y-78304000D02*
X187960000Y-77833000D01*
X114808000Y-65024000D02*
X114808000Y-61976000D01*
X118364000Y-58741000D02*
X118322000Y-58699000D01*
X190503200Y-78304000D02*
X188431000Y-78304000D01*
%TO.N,A4*%
X190582200Y-78875000D02*
X187824172Y-78875000D01*
X170816000Y-58235756D02*
X167080244Y-54500000D01*
X181231000Y-67087000D02*
X176500000Y-62356000D01*
X118322000Y-63966000D02*
X118364000Y-64008000D01*
X134000000Y-54000000D02*
X133452000Y-54000000D01*
X167080244Y-54080244D02*
X167000000Y-54000000D01*
X122190000Y-62249000D02*
X122453000Y-62512000D01*
X118322000Y-62249000D02*
X122190000Y-62249000D01*
X176500000Y-62356000D02*
X171038599Y-62356000D01*
X167080244Y-54500000D02*
X167080244Y-54080244D01*
X100526900Y-79147000D02*
X101222200Y-79147000D01*
X170816000Y-62133401D02*
X170816000Y-58235756D01*
X133452000Y-54000000D02*
X127000000Y-60452000D01*
X187824172Y-78875000D02*
X181231000Y-72281828D01*
X98044000Y-76200000D02*
X98044000Y-76664100D01*
X98044000Y-76664100D02*
X100526900Y-79147000D01*
X122453000Y-60477000D02*
X122428000Y-60452000D01*
X122453000Y-62512000D02*
X122453000Y-60477000D01*
X118322000Y-62249000D02*
X118322000Y-63966000D01*
X171038599Y-62356000D02*
X170816000Y-62133401D01*
X181231000Y-72281828D02*
X181231000Y-67087000D01*
%TO.N,A5*%
X166740000Y-52760000D02*
X171436244Y-52760000D01*
X133871756Y-52760000D02*
X126420000Y-60211756D01*
X122290000Y-69028000D02*
X122350000Y-69088000D01*
X118561000Y-65560000D02*
X118322000Y-65799000D01*
X126420000Y-60211756D02*
X126420000Y-69008000D01*
X196417800Y-78875000D02*
X194389900Y-78875000D01*
X134740000Y-52760000D02*
X133871756Y-52760000D01*
X194351899Y-75675655D02*
X171436244Y-52760000D01*
X135000000Y-52500000D02*
X134740000Y-52760000D01*
X108204000Y-79184000D02*
X107094800Y-79184000D01*
X118322000Y-65799000D02*
X118322000Y-74522244D01*
X122290000Y-65560000D02*
X122290000Y-69028000D01*
X122290000Y-65560000D02*
X118561000Y-65560000D01*
X126420000Y-69008000D02*
X126500000Y-69088000D01*
X114612244Y-78232000D02*
X114372000Y-78232000D01*
X194389900Y-78875000D02*
X194351899Y-78836999D01*
X194351899Y-78836999D02*
X194351899Y-75675655D01*
X166500000Y-53000000D02*
X166740000Y-52760000D01*
X107094800Y-79184000D02*
X107057800Y-79147000D01*
X118322000Y-74522244D02*
X114612244Y-78232000D01*
%TO.N,Net-(U2-#OE)*%
X198549500Y-78897000D02*
X197921500Y-79525000D01*
X197921500Y-79525000D02*
X196417800Y-79525000D01*
X199136000Y-78897000D02*
X198549500Y-78897000D01*
%TO.N,Net-(U1-Left1-#OE)*%
X114115999Y-79764000D02*
X107090800Y-79764000D01*
X114432000Y-79447999D02*
X114115999Y-79764000D01*
X107090800Y-79764000D02*
X107057800Y-79797000D01*
X114432000Y-79248000D02*
X114432000Y-79447999D01*
%TO.N,PWM8*%
X196417800Y-84814800D02*
X198979000Y-87376000D01*
X196417800Y-84725000D02*
X196417800Y-84814800D01*
%TO.N,PWM9*%
X198120000Y-85081900D02*
X198120000Y-85501000D01*
X198120000Y-85501000D02*
X198979000Y-86360000D01*
X197113100Y-84075000D02*
X198120000Y-85081900D01*
X196417800Y-84075000D02*
X197113100Y-84075000D01*
%TO.N,PWM10*%
X196417800Y-83425000D02*
X197060000Y-83425000D01*
X197060000Y-83425000D02*
X198979000Y-85344000D01*
%TO.N,PWM11*%
X196417800Y-82775000D02*
X197426000Y-82775000D01*
X197426000Y-82775000D02*
X198979000Y-84328000D01*
%TO.N,PWM12*%
X196417800Y-82125000D02*
X197792000Y-82125000D01*
X197792000Y-82125000D02*
X198979000Y-83312000D01*
%TO.N,PWM13*%
X196417800Y-81475000D02*
X198315000Y-81475000D01*
X198315000Y-81475000D02*
X199136000Y-82296000D01*
%TO.N,PWM14*%
X198706000Y-80825000D02*
X199161000Y-81280000D01*
X196417800Y-80825000D02*
X198706000Y-80825000D01*
%TO.N,PWM15*%
X199047000Y-80175000D02*
X199136000Y-80264000D01*
X196417800Y-80175000D02*
X199047000Y-80175000D01*
%TO.N,PWM0*%
X187427000Y-79248000D02*
X187704000Y-79525000D01*
X190582200Y-79525000D02*
X187704000Y-79525000D01*
%TO.N,PWM1*%
X190582200Y-80175000D02*
X187516000Y-80175000D01*
X187516000Y-80175000D02*
X187427000Y-80264000D01*
%TO.N,PWM2*%
X190582200Y-80825000D02*
X187882000Y-80825000D01*
X187882000Y-80825000D02*
X187427000Y-81280000D01*
%TO.N,PWM3*%
X188248000Y-81475000D02*
X187427000Y-82296000D01*
X190582200Y-81475000D02*
X188248000Y-81475000D01*
%TO.N,PWM4*%
X190582200Y-82125000D02*
X188614000Y-82125000D01*
X188614000Y-82125000D02*
X187427000Y-83312000D01*
%TO.N,PWM5*%
X190582200Y-82775000D02*
X188980000Y-82775000D01*
X188980000Y-82775000D02*
X187427000Y-84328000D01*
%TO.N,PWM6*%
X187427000Y-85344000D02*
X189346000Y-83425000D01*
X189346000Y-83425000D02*
X190582200Y-83425000D01*
%TO.N,PWM7*%
X187452000Y-86360000D02*
X187427000Y-86360000D01*
X189737000Y-84075000D02*
X187452000Y-86360000D01*
X190582200Y-84075000D02*
X189737000Y-84075000D01*
%TO.N,PWM8B*%
X107057800Y-84997000D02*
X109436800Y-87376000D01*
X109436800Y-87376000D02*
X110079000Y-87376000D01*
%TO.N,PWM9B*%
X108066000Y-84347000D02*
X110079000Y-86360000D01*
X107057800Y-84347000D02*
X108066000Y-84347000D01*
%TO.N,PWM10B*%
X107057800Y-83697000D02*
X108432000Y-83697000D01*
X108432000Y-83697000D02*
X110079000Y-85344000D01*
%TO.N,PWM11B*%
X107057800Y-83047000D02*
X108798000Y-83047000D01*
X108798000Y-83047000D02*
X110079000Y-84328000D01*
%TO.N,PWM12B*%
X109164000Y-82397000D02*
X110079000Y-83312000D01*
X107057800Y-82397000D02*
X109164000Y-82397000D01*
%TO.N,PWM13B*%
X107057800Y-81747000D02*
X109712000Y-81747000D01*
X109712000Y-81747000D02*
X110261000Y-82296000D01*
%TO.N,PWM14B*%
X107057800Y-81097000D02*
X110078000Y-81097000D01*
X110078000Y-81097000D02*
X110261000Y-81280000D01*
%TO.N,PWM15B*%
X107057800Y-80447000D02*
X110078000Y-80447000D01*
X110078000Y-80447000D02*
X110261000Y-80264000D01*
%TO.N,PWM0B*%
X101181200Y-79756000D02*
X101222200Y-79797000D01*
X99060000Y-79756000D02*
X101181200Y-79756000D01*
%TO.N,PWM1B*%
X100442585Y-80447000D02*
X101222200Y-80447000D01*
X98259314Y-80656000D02*
X100233585Y-80656000D01*
X100233585Y-80656000D02*
X100442585Y-80447000D01*
X98143314Y-80772000D02*
X98259314Y-80656000D01*
X97668000Y-80772000D02*
X98143314Y-80772000D01*
%TO.N,PWM2B*%
X98384000Y-81097000D02*
X101222200Y-81097000D01*
X97693000Y-81788000D02*
X98384000Y-81097000D01*
%TO.N,PWM3B*%
X98750000Y-81747000D02*
X101222200Y-81747000D01*
X97693000Y-82804000D02*
X98750000Y-81747000D01*
%TO.N,PWM4B*%
X98934000Y-82397000D02*
X101222200Y-82397000D01*
X97511000Y-83820000D02*
X98934000Y-82397000D01*
%TO.N,PWM5B*%
X99300000Y-83047000D02*
X101222200Y-83047000D01*
X97511000Y-84836000D02*
X99300000Y-83047000D01*
%TO.N,PWM6B*%
X99666000Y-83697000D02*
X101222200Y-83697000D01*
X97511000Y-85852000D02*
X99666000Y-83697000D01*
%TO.N,PWM7B*%
X98005900Y-86868000D02*
X97536000Y-86868000D01*
X101222200Y-84347000D02*
X100526900Y-84347000D01*
X100526900Y-84347000D02*
X98005900Y-86868000D01*
%TO.N,SDA0*%
X136680000Y-76200000D02*
X135636000Y-76200000D01*
X111760000Y-77216000D02*
X111741000Y-77197000D01*
X114808000Y-77216000D02*
X114808000Y-75184000D01*
X111741000Y-77197000D02*
X107057800Y-77197000D01*
X138100000Y-77620000D02*
X136680000Y-76200000D01*
%TO.N,SCL0*%
X107057800Y-77847000D02*
X112653000Y-77847000D01*
X112653000Y-77847000D02*
X112776000Y-77724000D01*
X136172000Y-78232000D02*
X138100000Y-80160000D01*
X135636000Y-78232000D02*
X136172000Y-78232000D01*
%TO.N,Net-(J3-Pin_8)*%
X165028000Y-80408000D02*
X166188000Y-79248000D01*
X165028000Y-86252000D02*
X165028000Y-80408000D01*
X166188000Y-76708000D02*
X166560000Y-76708000D01*
X166560000Y-76708000D02*
X167640000Y-75628000D01*
X163500000Y-87780000D02*
X165028000Y-86252000D01*
%TO.N,Net-(J3-Pin_17)*%
X165608000Y-95660000D02*
X165608000Y-96520000D01*
X164412000Y-99568000D02*
X163500000Y-100480000D01*
X165100000Y-99568000D02*
X164412000Y-99568000D01*
X165608000Y-99060000D02*
X165100000Y-99568000D01*
X167640000Y-93628000D02*
X165608000Y-95660000D01*
%TO.N,Net-(J3-Pin_6)*%
X167640000Y-71628000D02*
X164560000Y-74708000D01*
X163939067Y-76560000D02*
X162708000Y-76560000D01*
X160456000Y-78812000D02*
X160456000Y-87276000D01*
X163500000Y-90320000D02*
X164116000Y-90320000D01*
X162708000Y-76560000D02*
X160456000Y-78812000D01*
X160456000Y-87276000D02*
X163500000Y-90320000D01*
X164560000Y-75939067D02*
X163939067Y-76560000D01*
X164560000Y-74708000D02*
X164560000Y-75939067D01*
%TO.N,Net-(J3-Pin_9)*%
X166685000Y-78583000D02*
X165077000Y-78583000D01*
X165077000Y-78583000D02*
X163500000Y-80160000D01*
X167640000Y-77628000D02*
X166685000Y-78583000D01*
%TO.N,Net-(J28-Pin_4)*%
X138100000Y-70000000D02*
X135232000Y-70000000D01*
X128808000Y-75976000D02*
X130556000Y-75976000D01*
X128016000Y-75184000D02*
X128808000Y-75976000D01*
X135232000Y-70000000D02*
X135128000Y-70104000D01*
%TO.N,SCL1*%
X197253000Y-77575000D02*
X197612000Y-77216000D01*
X137056000Y-75080000D02*
X135636000Y-73660000D01*
X138129686Y-75080000D02*
X138100000Y-75080000D01*
X197612000Y-77216000D02*
X197640536Y-77244536D01*
X196417800Y-77575000D02*
X197253000Y-77575000D01*
X138100000Y-75080000D02*
X137056000Y-75080000D01*
%TO.N,Net-(J28-Pin_8)*%
X165608000Y-63500000D02*
X164620000Y-63500000D01*
X131668000Y-67976000D02*
X132080000Y-67564000D01*
X134112000Y-63500000D02*
X136216000Y-63500000D01*
X130556000Y-67976000D02*
X131668000Y-67976000D01*
X164620000Y-63500000D02*
X163500000Y-62380000D01*
%TO.N,Net-(J28-Pin_10)*%
X133253401Y-72801401D02*
X133253401Y-69946599D01*
X133532000Y-63064000D02*
X134112000Y-62484000D01*
X133676000Y-69524000D02*
X133676000Y-64516000D01*
X134112000Y-73660000D02*
X133253401Y-72801401D01*
X132080000Y-62992000D02*
X131540000Y-62992000D01*
X133253401Y-69946599D02*
X133676000Y-69524000D01*
X133676000Y-64516000D02*
X133532000Y-64372000D01*
X131540000Y-62992000D02*
X130556000Y-63976000D01*
X133532000Y-64372000D02*
X133532000Y-63064000D01*
%TO.N,Net-(J3-Pin_18)*%
X165328000Y-97940000D02*
X163500000Y-97940000D01*
X167640000Y-95628000D02*
X165328000Y-97940000D01*
%TO.N,Net-(J3-Pin_19)*%
X167640000Y-97628000D02*
X167640000Y-98880000D01*
X167640000Y-98880000D02*
X163500000Y-103020000D01*
%TO.N,Net-(J3-Pin_4)*%
X163500000Y-64920000D02*
X166208000Y-67628000D01*
X166208000Y-67628000D02*
X167640000Y-67628000D01*
%TO.N,Net-(J3-Pin_12)*%
X166940000Y-84328000D02*
X167640000Y-83628000D01*
X165608000Y-84328000D02*
X166940000Y-84328000D01*
X136548000Y-85240000D02*
X136144000Y-84836000D01*
X138100000Y-85240000D02*
X136548000Y-85240000D01*
%TO.N,Net-(J28-Pin_9)*%
X132516000Y-65532000D02*
X132072000Y-65976000D01*
X132072000Y-65976000D02*
X130556000Y-65976000D01*
%TO.N,Net-(J3-Pin_11)*%
X171196000Y-86360000D02*
X171196000Y-90932000D01*
X171196000Y-90932000D02*
X169672000Y-92456000D01*
%TO.N,Net-(J28-Pin_6)*%
X130556000Y-71976000D02*
X131511000Y-72931000D01*
X131511000Y-72931000D02*
X131511000Y-76111000D01*
X131511000Y-76111000D02*
X138100000Y-82700000D01*
%TO.N,Net-(J3-Pin_5)*%
X165608000Y-72136000D02*
X165608000Y-71660000D01*
X165608000Y-71660000D02*
X167640000Y-69628000D01*
X163500000Y-67460000D02*
X165100000Y-69060000D01*
X165100000Y-69060000D02*
X165100000Y-70104000D01*
%TO.N,Net-(J28-Pin_5)*%
X135740000Y-67460000D02*
X138100000Y-67460000D01*
X128840000Y-73976000D02*
X130556000Y-73976000D01*
X128016000Y-73152000D02*
X128840000Y-73976000D01*
X135636000Y-67564000D02*
X135740000Y-67460000D01*
%TO.N,Net-(J3-Pin_7)*%
X167640000Y-73628000D02*
X169744000Y-75732000D01*
X169744000Y-75732000D02*
X169744000Y-87884000D01*
%TO.N,Net-(J3-Pin_10)*%
X166116000Y-87801426D02*
X166116000Y-93980000D01*
X168595000Y-86023574D02*
X168035574Y-86583000D01*
X168595000Y-80583000D02*
X168595000Y-86023574D01*
X138100000Y-87780000D02*
X137188000Y-86868000D01*
X137188000Y-86868000D02*
X136144000Y-86868000D01*
X167334426Y-86583000D02*
X166116000Y-87801426D01*
X168035574Y-86583000D02*
X167334426Y-86583000D01*
X167640000Y-79628000D02*
X168595000Y-80583000D01*
%TO.N,Net-(J3-Pin_15)*%
X163500000Y-82700000D02*
X162440000Y-83760000D01*
X162440000Y-83760000D02*
X162112000Y-83760000D01*
X163500000Y-82700000D02*
X163500000Y-82228000D01*
X162112000Y-83760000D02*
X161036000Y-84836000D01*
%TO.N,SDA1*%
X134112000Y-71120000D02*
X136680000Y-71120000D01*
X136680000Y-71120000D02*
X138100000Y-72540000D01*
%TO.N,Net-(J3-Pin_13)*%
X165832000Y-85628000D02*
X167640000Y-85628000D01*
X165608000Y-93292000D02*
X165608000Y-85852000D01*
X163500000Y-95400000D02*
X165608000Y-93292000D01*
X165608000Y-85852000D02*
X165832000Y-85628000D01*
%TO.N,Net-(J3-Pin_16)*%
X169164000Y-90104000D02*
X167640000Y-91628000D01*
X166297426Y-77620000D02*
X167244426Y-76673000D01*
X169164000Y-77801426D02*
X169164000Y-90104000D01*
X168035574Y-76673000D02*
X169164000Y-77801426D01*
X167244426Y-76673000D02*
X168035574Y-76673000D01*
X163500000Y-77620000D02*
X166297426Y-77620000D01*
%TO.N,Net-(J28-Pin_7)*%
X166116000Y-58928000D02*
X165204000Y-59840000D01*
X133096000Y-69088000D02*
X131444000Y-69088000D01*
X131444000Y-69088000D02*
X130556000Y-69976000D01*
X165204000Y-59840000D02*
X163500000Y-59840000D01*
X134620000Y-59944000D02*
X133096000Y-61468000D01*
X133096000Y-61468000D02*
X133096000Y-69088000D01*
%TO.N,Net-(J4-Pin_3)*%
X199619000Y-87376000D02*
X199619000Y-87827000D01*
X199619000Y-87827000D02*
X206280000Y-94488000D01*
%TO.N,unconnected-(J28-Pin_11-Pad11)*%
X131064000Y-61976000D02*
X130556000Y-61976000D01*
X135740000Y-57300000D02*
X131064000Y-61976000D01*
X138100000Y-57300000D02*
X135740000Y-57300000D01*
%TO.N,SDA1*%
X196417800Y-76925000D02*
X197015500Y-76925000D01*
X197440500Y-76500000D02*
X197015500Y-76925000D01*
X198000000Y-76500000D02*
X197440500Y-76500000D01*
%TD*%
M02*
