%TF.GenerationSoftware,KiCad,Pcbnew,8.0.5*%
%TF.CreationDate,2024-12-05T19:43:49+01:00*%
%TF.ProjectId,navrh03,6e617672-6830-4332-9e6b-696361645f70,rev?*%
%TF.SameCoordinates,Original*%
%TF.FileFunction,Copper,L2,Bot*%
%TF.FilePolarity,Positive*%
%FSLAX46Y46*%
G04 Gerber Fmt 4.6, Leading zero omitted, Abs format (unit mm)*
G04 Created by KiCad (PCBNEW 8.0.5) date 2024-12-05 19:43:49*
%MOMM*%
%LPD*%
G01*
G04 APERTURE LIST*
%TA.AperFunction,ComponentPad*%
%ADD10R,1.350000X1.350000*%
%TD*%
%TA.AperFunction,ComponentPad*%
%ADD11O,1.350000X1.350000*%
%TD*%
%TA.AperFunction,ComponentPad*%
%ADD12C,2.000000*%
%TD*%
%TA.AperFunction,ComponentPad*%
%ADD13R,1.560000X1.560000*%
%TD*%
%TA.AperFunction,ComponentPad*%
%ADD14C,1.560000*%
%TD*%
%TA.AperFunction,ViaPad*%
%ADD15C,0.600000*%
%TD*%
%TA.AperFunction,Conductor*%
%ADD16C,0.200000*%
%TD*%
%TA.AperFunction,Conductor*%
%ADD17C,0.500000*%
%TD*%
G04 APERTURE END LIST*
D10*
%TO.P,J2,1,Pin_1*%
%TO.N,GND*%
X146304000Y-117364000D03*
D11*
%TO.P,J2,2,Pin_2*%
%TO.N,Net-(J2-Pin_2)*%
X146304000Y-119364000D03*
%TD*%
D10*
%TO.P,J13R1,1,Pin_1*%
%TO.N,GND*%
X176276000Y-81280000D03*
D11*
%TO.P,J13R1,2,Pin_2*%
%TO.N,5.0V*%
X178276000Y-81280000D03*
%TO.P,J13R1,3,Pin_3*%
%TO.N,Net-(J13R1-Pin_3)*%
X180276000Y-81280000D03*
%TD*%
D10*
%TO.P,J24,1,Pin_1*%
%TO.N,GND*%
X82264000Y-85852000D03*
D11*
%TO.P,J24,2,Pin_2*%
%TO.N,5.0V*%
X84264000Y-85852000D03*
%TO.P,J24,3,Pin_3*%
%TO.N,Net-(J24-Pin_3)*%
X86264000Y-85852000D03*
%TD*%
D10*
%TO.P,J15R1,1,Pin_1*%
%TO.N,GND*%
X176244000Y-87376000D03*
D11*
%TO.P,J15R1,2,Pin_2*%
%TO.N,5.0V*%
X178244000Y-87376000D03*
%TO.P,J15R1,3,Pin_3*%
%TO.N,Net-(J15R1-Pin_3)*%
X180244000Y-87376000D03*
%TD*%
D10*
%TO.P,J19,1,Pin_1*%
%TO.N,GND*%
X124936000Y-74168000D03*
D11*
%TO.P,J19,2,Pin_2*%
%TO.N,5.0V*%
X122936000Y-74168000D03*
%TO.P,J19,3,Pin_3*%
%TO.N,Net-(J19-Pin_3)*%
X120936000Y-74168000D03*
%TD*%
D10*
%TO.P,J14R1,1,Pin_1*%
%TO.N,GND*%
X176244000Y-84328000D03*
D11*
%TO.P,J14R1,2,Pin_2*%
%TO.N,5.0V*%
X178244000Y-84328000D03*
%TO.P,J14R1,3,Pin_3*%
%TO.N,Net-(J14R1-Pin_3)*%
X180244000Y-84328000D03*
%TD*%
D10*
%TO.P,J25,1,Pin_1*%
%TO.N,GND*%
X82264000Y-88900000D03*
D11*
%TO.P,J25,2,Pin_2*%
%TO.N,5.0V*%
X84264000Y-88900000D03*
%TO.P,J25,3,Pin_3*%
%TO.N,Net-(J25-Pin_3)*%
X86264000Y-88900000D03*
%TD*%
D10*
%TO.P,J18,1,Pin_1*%
%TO.N,GND*%
X124936000Y-77216000D03*
D11*
%TO.P,J18,2,Pin_2*%
%TO.N,5.0V*%
X122936000Y-77216000D03*
%TO.P,J18,3,Pin_3*%
%TO.N,Net-(J18-Pin_3)*%
X120936000Y-77216000D03*
%TD*%
D10*
%TO.P,J12,1,Pin_1*%
%TO.N,GND*%
X124968000Y-98552000D03*
D11*
%TO.P,J12,2,Pin_2*%
%TO.N,5.0V*%
X122968000Y-98552000D03*
%TO.P,J12,3,Pin_3*%
%TO.N,Net-(J12-Pin_3)*%
X120968000Y-98552000D03*
%TD*%
D10*
%TO.P,J22,1,Pin_1*%
%TO.N,GND*%
X82296000Y-79756000D03*
D11*
%TO.P,J22,2,Pin_2*%
%TO.N,5.0V*%
X84296000Y-79756000D03*
%TO.P,J22,3,Pin_3*%
%TO.N,Net-(J22-Pin_3)*%
X86296000Y-79756000D03*
%TD*%
D10*
%TO.P,J3,1,Pin_1*%
%TO.N,Net-(J3-Pin_1)*%
X167640000Y-61628000D03*
D11*
%TO.P,J3,2,Pin_2*%
%TO.N,Net-(J3-Pin_2)*%
X167640000Y-63628000D03*
%TO.P,J3,3,Pin_3*%
%TO.N,Net-(J3-Pin_3)*%
X167640000Y-65628000D03*
%TO.P,J3,4,Pin_4*%
%TO.N,Net-(J3-Pin_4)*%
X167640000Y-67628000D03*
%TO.P,J3,5,Pin_5*%
%TO.N,Net-(J3-Pin_5)*%
X167640000Y-69628000D03*
%TO.P,J3,6,Pin_6*%
%TO.N,Net-(J3-Pin_6)*%
X167640000Y-71628000D03*
%TO.P,J3,7,Pin_7*%
%TO.N,Net-(J3-Pin_7)*%
X167640000Y-73628000D03*
%TO.P,J3,8,Pin_8*%
%TO.N,Net-(J3-Pin_8)*%
X167640000Y-75628000D03*
%TO.P,J3,9,Pin_9*%
%TO.N,Net-(J3-Pin_9)*%
X167640000Y-77628000D03*
%TO.P,J3,10,Pin_10*%
%TO.N,Net-(J3-Pin_10)*%
X167640000Y-79628000D03*
%TO.P,J3,11,Pin_11*%
%TO.N,Net-(J3-Pin_11)*%
X167640000Y-81628000D03*
%TO.P,J3,12,Pin_12*%
%TO.N,Net-(J3-Pin_12)*%
X167640000Y-83628000D03*
%TO.P,J3,13,Pin_13*%
%TO.N,Net-(J3-Pin_13)*%
X167640000Y-85628000D03*
%TO.P,J3,14,Pin_14*%
%TO.N,Net-(J3-Pin_14)*%
X167640000Y-87628000D03*
%TO.P,J3,15,Pin_15*%
%TO.N,Net-(J3-Pin_15)*%
X167640000Y-89628000D03*
%TO.P,J3,16,Pin_16*%
%TO.N,Net-(J3-Pin_16)*%
X167640000Y-91628000D03*
%TO.P,J3,17,Pin_17*%
%TO.N,Net-(J3-Pin_17)*%
X167640000Y-93628000D03*
%TO.P,J3,18,Pin_18*%
%TO.N,Net-(J3-Pin_18)*%
X167640000Y-95628000D03*
%TO.P,J3,19,Pin_19*%
%TO.N,Net-(J3-Pin_19)*%
X167640000Y-97628000D03*
%TD*%
D10*
%TO.P,J20,1,Pin_1*%
%TO.N,GND*%
X82296000Y-73660000D03*
D11*
%TO.P,J20,2,Pin_2*%
%TO.N,5.0V*%
X84296000Y-73660000D03*
%TO.P,J20,3,Pin_3*%
%TO.N,Net-(J20-Pin_3)*%
X86296000Y-73660000D03*
%TD*%
D10*
%TO.P,J4,1,Pin_1*%
%TO.N,GND*%
X210280000Y-94488000D03*
D11*
%TO.P,J4,2,Pin_2*%
%TO.N,5.0V*%
X208280000Y-94488000D03*
%TO.P,J4,3,Pin_3*%
%TO.N,Net-(J4-Pin_3)*%
X206280000Y-94488000D03*
%TD*%
D10*
%TO.P,J23,1,Pin_1*%
%TO.N,GND*%
X82296000Y-82804000D03*
D11*
%TO.P,J23,2,Pin_2*%
%TO.N,5.0V*%
X84296000Y-82804000D03*
%TO.P,J23,3,Pin_3*%
%TO.N,Net-(J23-Pin_3)*%
X86296000Y-82804000D03*
%TD*%
D10*
%TO.P,J7,1,Pin_1*%
%TO.N,GND*%
X210280000Y-85344000D03*
D11*
%TO.P,J7,2,Pin_2*%
%TO.N,5.0V*%
X208280000Y-85344000D03*
%TO.P,J7,3,Pin_3*%
%TO.N,Net-(J7-Pin_3)*%
X206280000Y-85344000D03*
%TD*%
D10*
%TO.P,J10,1,Pin_1*%
%TO.N,GND*%
X210248000Y-76200000D03*
D11*
%TO.P,J10,2,Pin_2*%
%TO.N,5.0V*%
X208248000Y-76200000D03*
%TO.P,J10,3,Pin_3*%
%TO.N,Net-(J10-Pin_3)*%
X206248000Y-76200000D03*
%TD*%
D10*
%TO.P,J13,1,Pin_1*%
%TO.N,GND*%
X124936000Y-95504000D03*
D11*
%TO.P,J13,2,Pin_2*%
%TO.N,5.0V*%
X122936000Y-95504000D03*
%TO.P,J13,3,Pin_3*%
%TO.N,Net-(J13-Pin_3)*%
X120936000Y-95504000D03*
%TD*%
D10*
%TO.P,J10R1,1,Pin_1*%
%TO.N,GND*%
X176276000Y-72136000D03*
D11*
%TO.P,J10R1,2,Pin_2*%
%TO.N,5.0V*%
X178276000Y-72136000D03*
%TO.P,J10R1,3,Pin_3*%
%TO.N,Net-(J10R1-Pin_3)*%
X180276000Y-72136000D03*
%TD*%
D10*
%TO.P,J26,1,Pin_1*%
%TO.N,GND*%
X82296000Y-91948000D03*
D11*
%TO.P,J26,2,Pin_2*%
%TO.N,5.0V*%
X84296000Y-91948000D03*
%TO.P,J26,3,Pin_3*%
%TO.N,Net-(J26-Pin_3)*%
X86296000Y-91948000D03*
%TD*%
D10*
%TO.P,J16R1,1,Pin_1*%
%TO.N,GND*%
X176244000Y-90424000D03*
D11*
%TO.P,J16R1,2,Pin_2*%
%TO.N,5.0V*%
X178244000Y-90424000D03*
%TO.P,J16R1,3,Pin_3*%
%TO.N,Net-(J16R1-Pin_3)*%
X180244000Y-90424000D03*
%TD*%
D10*
%TO.P,J14,1,Pin_1*%
%TO.N,GND*%
X124936000Y-92456000D03*
D11*
%TO.P,J14,2,Pin_2*%
%TO.N,5.0V*%
X122936000Y-92456000D03*
%TO.P,J14,3,Pin_3*%
%TO.N,Net-(J14-Pin_3)*%
X120936000Y-92456000D03*
%TD*%
D10*
%TO.P,J12R1,1,Pin_1*%
%TO.N,GND*%
X176308000Y-78232000D03*
D11*
%TO.P,J12R1,2,Pin_2*%
%TO.N,5.0V*%
X178308000Y-78232000D03*
%TO.P,J12R1,3,Pin_3*%
%TO.N,Net-(J12R1-Pin_3)*%
X180308000Y-78232000D03*
%TD*%
D10*
%TO.P,J17R1,1,Pin_1*%
%TO.N,GND*%
X176244000Y-93472000D03*
D11*
%TO.P,J17R1,2,Pin_2*%
%TO.N,5.0V*%
X178244000Y-93472000D03*
%TO.P,J17R1,3,Pin_3*%
%TO.N,Net-(J17R1-Pin_3)*%
X180244000Y-93472000D03*
%TD*%
D10*
%TO.P,J5,1,Pin_1*%
%TO.N,GND*%
X210312000Y-91440000D03*
D11*
%TO.P,J5,2,Pin_2*%
%TO.N,5.0V*%
X208312000Y-91440000D03*
%TO.P,J5,3,Pin_3*%
%TO.N,Net-(J5-Pin_3)*%
X206312000Y-91440000D03*
%TD*%
D10*
%TO.P,J11R1,1,Pin_1*%
%TO.N,GND*%
X176308000Y-75184000D03*
D11*
%TO.P,J11R1,2,Pin_2*%
%TO.N,5.0V*%
X178308000Y-75184000D03*
%TO.P,J11R1,3,Pin_3*%
%TO.N,Net-(J11R1-Pin_3)*%
X180308000Y-75184000D03*
%TD*%
D10*
%TO.P,J15,1,Pin_1*%
%TO.N,GND*%
X124936000Y-89408000D03*
D11*
%TO.P,J15,2,Pin_2*%
%TO.N,5.0V*%
X122936000Y-89408000D03*
%TO.P,J15,3,Pin_3*%
%TO.N,Net-(J15-Pin_3)*%
X120936000Y-89408000D03*
%TD*%
D10*
%TO.P,J6,1,Pin_1*%
%TO.N,GND*%
X210312000Y-88392000D03*
D11*
%TO.P,J6,2,Pin_2*%
%TO.N,5.0V*%
X208312000Y-88392000D03*
%TO.P,J6,3,Pin_3*%
%TO.N,Net-(J6-Pin_3)*%
X206312000Y-88392000D03*
%TD*%
D10*
%TO.P,J17,1,Pin_1*%
%TO.N,GND*%
X124936000Y-81788000D03*
D11*
%TO.P,J17,2,Pin_2*%
%TO.N,5.0V*%
X122936000Y-81788000D03*
%TO.P,J17,3,Pin_3*%
%TO.N,Net-(J17-Pin_3)*%
X120936000Y-81788000D03*
%TD*%
D10*
%TO.P,J28,1,Pin_1*%
%TO.N,Net-(J28-Pin_1)*%
X130556000Y-81976000D03*
D11*
%TO.P,J28,2,Pin_2*%
%TO.N,Net-(J28-Pin_2)*%
X130556000Y-79976000D03*
%TO.P,J28,3,Pin_3*%
%TO.N,Net-(J28-Pin_3)*%
X130556000Y-77976000D03*
%TO.P,J28,4,Pin_4*%
%TO.N,Net-(J28-Pin_4)*%
X130556000Y-75976000D03*
%TO.P,J28,5,Pin_5*%
%TO.N,Net-(J28-Pin_5)*%
X130556000Y-73976000D03*
%TO.P,J28,6,Pin_6*%
%TO.N,Net-(J28-Pin_6)*%
X130556000Y-71976000D03*
%TO.P,J28,7,Pin_7*%
%TO.N,Net-(J28-Pin_7)*%
X130556000Y-69976000D03*
%TO.P,J28,8,Pin_8*%
%TO.N,Net-(J28-Pin_8)*%
X130556000Y-67976000D03*
%TO.P,J28,9,Pin_9*%
%TO.N,Net-(J28-Pin_9)*%
X130556000Y-65976000D03*
%TO.P,J28,10,Pin_10*%
%TO.N,Net-(J28-Pin_10)*%
X130556000Y-63976000D03*
%TO.P,J28,11,Pin_11*%
%TO.N,unconnected-(J28-Pin_11-Pad11)*%
X130556000Y-61976000D03*
%TD*%
D10*
%TO.P,J27,1,Pin_1*%
%TO.N,GND*%
X82296000Y-94996000D03*
D11*
%TO.P,J27,2,Pin_2*%
%TO.N,5.0V*%
X84296000Y-94996000D03*
%TO.P,J27,3,Pin_3*%
%TO.N,Net-(J27-Pin_3)*%
X86296000Y-94996000D03*
%TD*%
D12*
%TO.P,C1,1*%
%TO.N,5.0V*%
X178188000Y-66040000D03*
%TO.P,C1,2*%
%TO.N,GND*%
X170688000Y-66040000D03*
%TD*%
D10*
%TO.P,J8,1,Pin_1*%
%TO.N,GND*%
X210280000Y-82296000D03*
D11*
%TO.P,J8,2,Pin_2*%
%TO.N,5.0V*%
X208280000Y-82296000D03*
%TO.P,J8,3,Pin_3*%
%TO.N,Net-(J8-Pin_3)*%
X206280000Y-82296000D03*
%TD*%
D10*
%TO.P,J9,1,Pin_1*%
%TO.N,GND*%
X210280000Y-79248000D03*
D11*
%TO.P,J9,2,Pin_2*%
%TO.N,5.0V*%
X208280000Y-79248000D03*
%TO.P,J9,3,Pin_3*%
%TO.N,Net-(J9-Pin_3)*%
X206280000Y-79248000D03*
%TD*%
D10*
%TO.P,J11,1,Pin_1*%
%TO.N,GND*%
X210248000Y-73152000D03*
D11*
%TO.P,J11,2,Pin_2*%
%TO.N,5.0V*%
X208248000Y-73152000D03*
%TO.P,J11,3,Pin_3*%
%TO.N,Net-(J11-Pin_3)*%
X206248000Y-73152000D03*
%TD*%
D10*
%TO.P,J21,1,Pin_1*%
%TO.N,GND*%
X82296000Y-76708000D03*
D11*
%TO.P,J21,2,Pin_2*%
%TO.N,5.0V*%
X84296000Y-76708000D03*
%TO.P,J21,3,Pin_3*%
%TO.N,Net-(J21-Pin_3)*%
X86296000Y-76708000D03*
%TD*%
D13*
%TO.P,U3,1,3V3*%
%TO.N,unconnected-(J28-Pin_11-Pad11)*%
X138100000Y-57300000D03*
D14*
%TO.P,U3,2,EN*%
%TO.N,Net-(J3-Pin_1)*%
X138100000Y-59840000D03*
%TO.P,U3,3,VP*%
%TO.N,Net-(J3-Pin_2)*%
X138100000Y-62380000D03*
%TO.P,U3,4,VN*%
%TO.N,Net-(J3-Pin_3)*%
X138100000Y-64920000D03*
%TO.P,U3,5,34*%
%TO.N,Net-(J28-Pin_5)*%
X138100000Y-67460000D03*
%TO.P,U3,6,35*%
%TO.N,Net-(J28-Pin_4)*%
X138100000Y-70000000D03*
%TO.P,U3,7,32*%
%TO.N,SDA1*%
X138100000Y-72540000D03*
%TO.P,U3,8,33*%
%TO.N,SCL1*%
X138100000Y-75080000D03*
%TO.P,U3,9,25*%
%TO.N,SDA0*%
X138100000Y-77620000D03*
%TO.P,U3,10,26*%
%TO.N,SCL0*%
X138100000Y-80160000D03*
%TO.P,U3,11,27*%
%TO.N,Net-(J28-Pin_6)*%
X138100000Y-82700000D03*
%TO.P,U3,12,14*%
%TO.N,Net-(J3-Pin_12)*%
X138100000Y-85240000D03*
%TO.P,U3,13,12*%
%TO.N,Net-(J3-Pin_10)*%
X138100000Y-87780000D03*
%TO.P,U3,14,GND*%
%TO.N,GND*%
X138100000Y-90320000D03*
%TO.P,U3,15,13*%
%TO.N,Net-(J3-Pin_11)*%
X138100000Y-92860000D03*
%TO.P,U3,16,D2*%
%TO.N,Net-(J28-Pin_3)*%
X138100000Y-95400000D03*
%TO.P,U3,17,D3*%
%TO.N,Net-(J28-Pin_2)*%
X138100000Y-97940000D03*
%TO.P,U3,18,CMD*%
%TO.N,Net-(J28-Pin_1)*%
X138100000Y-100480000D03*
%TO.P,U3,19,5V*%
%TO.N,5.0V*%
X138100000Y-103020000D03*
%TO.P,U3,20,GND*%
%TO.N,GND*%
X163500000Y-57300000D03*
%TO.P,U3,21,23*%
%TO.N,Net-(J28-Pin_7)*%
X163500000Y-59840000D03*
%TO.P,U3,22,22*%
%TO.N,Net-(J28-Pin_8)*%
X163500000Y-62380000D03*
%TO.P,U3,23,TX*%
%TO.N,Net-(J3-Pin_4)*%
X163500000Y-64920000D03*
%TO.P,U3,24,RX*%
%TO.N,Net-(J3-Pin_5)*%
X163500000Y-67460000D03*
%TO.P,U3,25,21*%
%TO.N,Net-(J28-Pin_9)*%
X163500000Y-70000000D03*
%TO.P,U3,26,GND*%
%TO.N,GND*%
X163500000Y-72540000D03*
%TO.P,U3,27,19*%
%TO.N,Net-(J28-Pin_10)*%
X163500000Y-75080000D03*
%TO.P,U3,28,18*%
%TO.N,Net-(J3-Pin_16)*%
X163500000Y-77620000D03*
%TO.P,U3,29,5*%
%TO.N,Net-(J3-Pin_9)*%
X163500000Y-80160000D03*
%TO.P,U3,30,17*%
%TO.N,Net-(J3-Pin_15)*%
X163500000Y-82700000D03*
%TO.P,U3,31,16*%
%TO.N,Net-(J3-Pin_14)*%
X163500000Y-85240000D03*
%TO.P,U3,32,4*%
%TO.N,Net-(J3-Pin_8)*%
X163500000Y-87780000D03*
%TO.P,U3,33,0*%
%TO.N,Net-(J3-Pin_6)*%
X163500000Y-90320000D03*
%TO.P,U3,34,2*%
%TO.N,Net-(J3-Pin_7)*%
X163500000Y-92860000D03*
%TO.P,U3,35,15*%
%TO.N,Net-(J3-Pin_13)*%
X163500000Y-95400000D03*
%TO.P,U3,36,D1*%
%TO.N,Net-(J3-Pin_18)*%
X163500000Y-97940000D03*
%TO.P,U3,37,D0*%
%TO.N,Net-(J3-Pin_17)*%
X163500000Y-100480000D03*
%TO.P,U3,38,CLK*%
%TO.N,Net-(J3-Pin_19)*%
X163500000Y-103020000D03*
%TD*%
D10*
%TO.P,J16,1,Pin_1*%
%TO.N,GND*%
X124936000Y-85344000D03*
D11*
%TO.P,J16,2,Pin_2*%
%TO.N,5.0V*%
X122936000Y-85344000D03*
%TO.P,J16,3,Pin_3*%
%TO.N,Net-(J16-Pin_3)*%
X120936000Y-85344000D03*
%TD*%
D15*
%TO.N,GND*%
X200500000Y-77500000D03*
X146304000Y-113792000D03*
X109220000Y-78497000D03*
X124460000Y-71120000D03*
X146304000Y-108204000D03*
X129976000Y-89500000D03*
X101600000Y-86360000D03*
X117348000Y-71628000D03*
X197500000Y-78257000D03*
X190500000Y-85852000D03*
%TO.N,5.0V*%
X136144000Y-105156000D03*
X131572000Y-104648000D03*
%TO.N,Net-(J3-Pin_2)*%
X170180000Y-60998000D03*
X135636000Y-61468000D03*
%TO.N,Net-(J3-Pin_3)*%
X165608000Y-65532000D03*
X134620000Y-64516000D03*
%TO.N,Net-(J3-Pin_1)*%
X135636000Y-59436000D03*
X167132000Y-55372000D03*
%TO.N,A0*%
X125476000Y-47244000D03*
X171196000Y-53340000D03*
%TO.N,A1*%
X182372000Y-67056000D03*
X115824000Y-53340000D03*
X100076000Y-76200000D03*
X122428000Y-50292000D03*
X112268000Y-66040000D03*
X118364000Y-53340000D03*
%TO.N,A2*%
X183388000Y-76093000D03*
X184404000Y-77253000D03*
X99798566Y-77061020D03*
X188976000Y-77724000D03*
X122428000Y-52832000D03*
X118364000Y-56896000D03*
%TO.N,A3*%
X174244000Y-77724000D03*
X187960000Y-77833000D03*
X118364000Y-60452000D03*
X114808000Y-65024000D03*
X116332000Y-60452000D03*
X173736000Y-70612000D03*
X122428000Y-56896000D03*
X99060000Y-76200000D03*
%TO.N,A4*%
X127000000Y-60452000D03*
X98044000Y-76200000D03*
X118364000Y-64008000D03*
X167000000Y-54000000D03*
X122428000Y-60452000D03*
X134000000Y-54000000D03*
%TO.N,A5*%
X108204000Y-79184000D03*
X122350000Y-69088000D03*
X126500000Y-69088000D03*
X114372000Y-78232000D03*
X135000000Y-52500000D03*
X166500000Y-53000000D03*
%TO.N,SDA0*%
X114808000Y-75184000D03*
X135636000Y-76200000D03*
X111760000Y-77216000D03*
X114808000Y-77216000D03*
%TO.N,SCL0*%
X112776000Y-77724000D03*
X135636000Y-78232000D03*
%TO.N,Net-(J3-Pin_8)*%
X166188000Y-76708000D03*
X166188000Y-79248000D03*
%TO.N,Net-(J3-Pin_17)*%
X165608000Y-99060000D03*
X165608000Y-96520000D03*
%TO.N,Net-(J28-Pin_4)*%
X135128000Y-70104000D03*
X128016000Y-75184000D03*
%TO.N,SCL1*%
X135636000Y-73660000D03*
X197640536Y-77244536D03*
%TO.N,Net-(J28-Pin_8)*%
X136216000Y-63500000D03*
X132080000Y-67564000D03*
X134112000Y-63500000D03*
X165608000Y-63500000D03*
%TO.N,Net-(J28-Pin_10)*%
X132080000Y-62992000D03*
X134112000Y-62484000D03*
X134112000Y-73660000D03*
%TO.N,Net-(J3-Pin_12)*%
X136144000Y-84836000D03*
X165608000Y-84328000D03*
%TO.N,Net-(J28-Pin_9)*%
X132516000Y-65532000D03*
%TO.N,Net-(J3-Pin_11)*%
X171196000Y-86360000D03*
X169672000Y-92456000D03*
%TO.N,Net-(J3-Pin_5)*%
X165100000Y-70104000D03*
X165608000Y-72136000D03*
%TO.N,Net-(J28-Pin_5)*%
X135636000Y-67564000D03*
X128016000Y-73152000D03*
%TO.N,Net-(J3-Pin_7)*%
X169744000Y-87884000D03*
%TO.N,Net-(J3-Pin_10)*%
X136144000Y-86868000D03*
X166116000Y-93980000D03*
%TO.N,Net-(J3-Pin_15)*%
X161036000Y-84836000D03*
%TO.N,SDA1*%
X198000000Y-76500000D03*
X134112000Y-71120000D03*
%TO.N,Net-(J28-Pin_7)*%
X166116000Y-58928000D03*
X134620000Y-59944000D03*
%TD*%
D16*
%TO.N,SCL1*%
X197420000Y-77024000D02*
X197640536Y-77244536D01*
X197612000Y-76067756D02*
X197420000Y-76259756D01*
X197612000Y-75184000D02*
X197612000Y-76067756D01*
X184636756Y-75184000D02*
X197612000Y-75184000D01*
X183968000Y-75852756D02*
X184636756Y-75184000D01*
X183968000Y-76333244D02*
X183968000Y-75852756D01*
X197420000Y-76259756D02*
X197420000Y-77024000D01*
X183628244Y-76673000D02*
X183968000Y-76333244D01*
X164560000Y-73988574D02*
X167244426Y-76673000D01*
X135292244Y-71480000D02*
X163939067Y-71480000D01*
X134352244Y-70540000D02*
X135292244Y-71480000D01*
X133871756Y-70540000D02*
X134352244Y-70540000D01*
X133532000Y-70879756D02*
X133871756Y-70540000D01*
X167244426Y-76673000D02*
X183628244Y-76673000D01*
X133532000Y-71556000D02*
X133532000Y-70879756D01*
X135636000Y-73660000D02*
X133532000Y-71556000D01*
X164560000Y-72100933D02*
X164560000Y-73988574D01*
X163939067Y-71480000D02*
X164560000Y-72100933D01*
%TO.N,GND*%
X200500000Y-75344000D02*
X200500000Y-77500000D01*
X204344000Y-71500000D02*
X200500000Y-75344000D01*
X209676000Y-71500000D02*
X204344000Y-71500000D01*
X210248000Y-72072000D02*
X209676000Y-71500000D01*
X210248000Y-73152000D02*
X210248000Y-72072000D01*
D17*
X89916000Y-102616000D02*
X123952000Y-102616000D01*
D16*
X195555000Y-78257000D02*
X197500000Y-78257000D01*
X130796000Y-90320000D02*
X138100000Y-90320000D01*
D17*
X82296000Y-94996000D02*
X89916000Y-102616000D01*
D16*
X195072000Y-81280000D02*
X195072000Y-78740000D01*
X108070756Y-78497000D02*
X102616000Y-83951756D01*
X123952000Y-71628000D02*
X124460000Y-71120000D01*
D17*
X146304000Y-117364000D02*
X166608000Y-117364000D01*
D16*
X117348000Y-71628000D02*
X123952000Y-71628000D01*
X190500000Y-85852000D02*
X195072000Y-81280000D01*
D17*
X128016000Y-106680000D02*
X132080000Y-106680000D01*
X123952000Y-102616000D02*
X128016000Y-106680000D01*
D16*
X109220000Y-78497000D02*
X108070756Y-78497000D01*
D17*
X146304000Y-108204000D02*
X146304000Y-113792000D01*
D16*
X102616000Y-86360000D02*
X101600000Y-86360000D01*
D17*
X207599000Y-98044000D02*
X210280000Y-95363000D01*
X185928000Y-98044000D02*
X207599000Y-98044000D01*
X132080000Y-106680000D02*
X142764000Y-117364000D01*
D16*
X129976000Y-89500000D02*
X130796000Y-90320000D01*
D17*
X166608000Y-117364000D02*
X185928000Y-98044000D01*
D16*
X195072000Y-78740000D02*
X195555000Y-78257000D01*
D17*
X210280000Y-95363000D02*
X210280000Y-94488000D01*
D16*
X102616000Y-83951756D02*
X102616000Y-86360000D01*
D17*
X142764000Y-117364000D02*
X146304000Y-117364000D01*
%TO.N,5.0V*%
X135636000Y-104648000D02*
X131572000Y-104648000D01*
X136144000Y-105156000D02*
X135636000Y-104648000D01*
D16*
%TO.N,Net-(J3-Pin_2)*%
X166685000Y-60673000D02*
X166038000Y-61320000D01*
X169855000Y-60673000D02*
X166685000Y-60673000D01*
X170180000Y-60998000D02*
X169855000Y-60673000D01*
X135784000Y-61320000D02*
X135636000Y-61468000D01*
X166038000Y-61320000D02*
X135784000Y-61320000D01*
%TO.N,Net-(J3-Pin_3)*%
X135120933Y-68520000D02*
X164748000Y-68520000D01*
X164748000Y-68520000D02*
X165608000Y-67660000D01*
X165608000Y-67660000D02*
X165608000Y-65532000D01*
X134620000Y-64516000D02*
X134620000Y-68019067D01*
X134620000Y-68019067D02*
X135120933Y-68520000D01*
%TO.N,Net-(J3-Pin_1)*%
X167132000Y-55372000D02*
X134112000Y-55372000D01*
X134112000Y-57912000D02*
X135636000Y-59436000D01*
X134112000Y-55372000D02*
X134112000Y-57912000D01*
%TO.N,A0*%
X125476000Y-47244000D02*
X164621401Y-47244000D01*
X170717401Y-53340000D02*
X171196000Y-53340000D01*
X164621401Y-47244000D02*
X170717401Y-53340000D01*
%TO.N,A1*%
X179324000Y-57912000D02*
X173228000Y-57912000D01*
X172212000Y-52832000D02*
X164084000Y-44704000D01*
X173228000Y-57912000D02*
X172212000Y-56896000D01*
X100076000Y-76200000D02*
X110236000Y-66040000D01*
X121920000Y-44704000D02*
X121920000Y-49784000D01*
X110236000Y-66040000D02*
X112268000Y-66040000D01*
X115824000Y-53340000D02*
X118364000Y-53340000D01*
X182372000Y-67056000D02*
X182372000Y-60960000D01*
X164084000Y-44704000D02*
X121920000Y-44704000D01*
X121920000Y-49784000D02*
X122428000Y-50292000D01*
X182372000Y-60960000D02*
X179324000Y-57912000D01*
X172212000Y-56896000D02*
X172212000Y-52832000D01*
%TO.N,A2*%
X121762599Y-44324000D02*
X164720000Y-44324000D01*
X122428000Y-52832000D02*
X121540000Y-51944000D01*
X114808000Y-56896000D02*
X97536000Y-74168000D01*
X96520000Y-75184000D02*
X96520000Y-78740000D01*
X178845402Y-56896000D02*
X183388000Y-61438598D01*
X118364000Y-56896000D02*
X114808000Y-56896000D01*
X173228000Y-56896000D02*
X178845402Y-56896000D01*
X164720000Y-44324000D02*
X173228000Y-52832000D01*
X188505000Y-77253000D02*
X188976000Y-77724000D01*
X98119586Y-78740000D02*
X99798566Y-77061020D01*
X97536000Y-74168000D02*
X96520000Y-75184000D01*
X183388000Y-61438598D02*
X183388000Y-76093000D01*
X96520000Y-78740000D02*
X98119586Y-78740000D01*
X173228000Y-52832000D02*
X173228000Y-56896000D01*
X184404000Y-77253000D02*
X188505000Y-77253000D01*
X121540000Y-51944000D02*
X121540000Y-44546599D01*
X121540000Y-44546599D02*
X121762599Y-44324000D01*
%TO.N,A3*%
X123952000Y-56388000D02*
X122936000Y-56388000D01*
X181356000Y-68580000D02*
X181356000Y-62484000D01*
X176246598Y-61468000D02*
X166116000Y-51337402D01*
X174752000Y-69596000D02*
X180340000Y-69596000D01*
X110236000Y-65024000D02*
X114808000Y-65024000D01*
X181356000Y-62484000D02*
X180340000Y-61468000D01*
X186606000Y-79187000D02*
X175353000Y-79187000D01*
X174244000Y-78078000D02*
X174244000Y-77724000D01*
X173736000Y-70612000D02*
X174752000Y-69596000D01*
X122936000Y-56388000D02*
X122428000Y-56896000D01*
X166116000Y-51337402D02*
X166116000Y-49784000D01*
X180340000Y-61468000D02*
X176246598Y-61468000D01*
X175353000Y-79187000D02*
X174244000Y-78078000D01*
X116332000Y-60452000D02*
X118364000Y-60452000D01*
X165608000Y-49276000D02*
X131064000Y-49276000D01*
X131064000Y-49276000D02*
X123952000Y-56388000D01*
X99060000Y-76200000D02*
X110236000Y-65024000D01*
X166116000Y-49784000D02*
X165608000Y-49276000D01*
X180340000Y-69596000D02*
X181356000Y-68580000D01*
X187960000Y-77833000D02*
X186606000Y-79187000D01*
%TO.N,A4*%
X167000000Y-54000000D02*
X134000000Y-54000000D01*
X110236000Y-64008000D02*
X98044000Y-76200000D01*
X122428000Y-60452000D02*
X127000000Y-60452000D01*
X118364000Y-64008000D02*
X110236000Y-64008000D01*
%TO.N,A5*%
X166000000Y-52500000D02*
X166500000Y-53000000D01*
X122350000Y-69088000D02*
X126500000Y-69088000D01*
X114372000Y-78232000D02*
X113420000Y-79184000D01*
X113420000Y-79184000D02*
X108204000Y-79184000D01*
X135000000Y-52500000D02*
X166000000Y-52500000D01*
%TO.N,SDA0*%
X135636000Y-76200000D02*
X136216000Y-76780000D01*
X113792000Y-75184000D02*
X111760000Y-77216000D01*
X135757244Y-78931000D02*
X116523000Y-78931000D01*
X136216000Y-76780000D02*
X136216000Y-78472244D01*
X114808000Y-75184000D02*
X113792000Y-75184000D01*
X136216000Y-78472244D02*
X135757244Y-78931000D01*
X116523000Y-78931000D02*
X114808000Y-77216000D01*
%TO.N,SCL0*%
X134425000Y-77021000D02*
X135636000Y-78232000D01*
X130160426Y-77021000D02*
X134425000Y-77021000D01*
X112776000Y-77724000D02*
X114239000Y-76261000D01*
X129400426Y-76261000D02*
X130160426Y-77021000D01*
X114239000Y-76261000D02*
X129400426Y-76261000D01*
%TO.N,Net-(J3-Pin_8)*%
X166116000Y-79176000D02*
X166116000Y-76780000D01*
X166188000Y-79248000D02*
X166116000Y-79176000D01*
X166116000Y-76780000D02*
X166188000Y-76708000D01*
%TO.N,Net-(J3-Pin_17)*%
X165608000Y-96520000D02*
X165608000Y-98552000D01*
X165608000Y-98552000D02*
X165608000Y-99060000D01*
%TO.N,Net-(J3-Pin_14)*%
X163500000Y-85240000D02*
X163500000Y-85715401D01*
X165412599Y-87628000D02*
X167640000Y-87628000D01*
X163500000Y-85715401D02*
X165412599Y-87628000D01*
%TO.N,Net-(J28-Pin_4)*%
X128016000Y-75184000D02*
X132588000Y-75184000D01*
X133096000Y-70104000D02*
X135128000Y-70104000D01*
X133096000Y-74676000D02*
X133096000Y-70104000D01*
X132588000Y-75184000D02*
X133096000Y-74676000D01*
%TO.N,Net-(J28-Pin_8)*%
X136216000Y-63500000D02*
X165608000Y-63500000D01*
X130556000Y-67976000D02*
X131160000Y-67976000D01*
X133604000Y-63500000D02*
X134112000Y-63500000D01*
X131936000Y-67420000D02*
X131936000Y-65168000D01*
X131936000Y-65168000D02*
X133604000Y-63500000D01*
X132080000Y-67564000D02*
X131936000Y-67420000D01*
%TO.N,Net-(J28-Pin_10)*%
X162440000Y-76140000D02*
X136592000Y-76140000D01*
X134112000Y-62484000D02*
X132588000Y-62484000D01*
X163500000Y-75080000D02*
X162440000Y-76140000D01*
X136592000Y-76140000D02*
X134112000Y-73660000D01*
X132588000Y-62484000D02*
X132080000Y-62992000D01*
%TO.N,Net-(J3-Pin_12)*%
X136144000Y-84836000D02*
X136144000Y-83820000D01*
X136144000Y-83820000D02*
X165100000Y-83820000D01*
X165100000Y-83820000D02*
X165608000Y-84328000D01*
%TO.N,Net-(J28-Pin_9)*%
X162440000Y-68940000D02*
X135003531Y-68940000D01*
X163500000Y-70000000D02*
X162440000Y-68940000D01*
X133096000Y-66040000D02*
X132588000Y-65532000D01*
X132588000Y-65532000D02*
X132516000Y-65532000D01*
X135003531Y-68940000D02*
X133096000Y-67032469D01*
X133096000Y-67032469D02*
X133096000Y-66040000D01*
%TO.N,Net-(J3-Pin_11)*%
X165816067Y-94583000D02*
X163939067Y-96460000D01*
X167640000Y-81628000D02*
X171196000Y-85184000D01*
X141700000Y-96460000D02*
X138100000Y-92860000D01*
X171196000Y-85184000D02*
X171196000Y-86360000D01*
X168053000Y-94583000D02*
X165816067Y-94583000D01*
X169672000Y-92456000D02*
X169672000Y-92964000D01*
X163939067Y-96460000D02*
X141700000Y-96460000D01*
X169672000Y-92964000D02*
X168053000Y-94583000D01*
%TO.N,Net-(J3-Pin_5)*%
X165100000Y-70104000D02*
X165608000Y-70612000D01*
X165608000Y-70612000D02*
X165608000Y-72136000D01*
%TO.N,Net-(J28-Pin_5)*%
X135636000Y-62992000D02*
X135636000Y-67564000D01*
X128016000Y-73152000D02*
X128016000Y-59944000D01*
X132588000Y-59944000D02*
X128016000Y-59944000D01*
X135636000Y-62992000D02*
X132588000Y-59944000D01*
X130240000Y-73660000D02*
X130556000Y-73976000D01*
%TO.N,Net-(J3-Pin_7)*%
X165687000Y-90673000D02*
X163500000Y-92860000D01*
X169744000Y-88964574D02*
X168035574Y-90673000D01*
X168035574Y-90673000D02*
X165687000Y-90673000D01*
X169744000Y-87884000D02*
X169744000Y-88964574D01*
%TO.N,Net-(J3-Pin_10)*%
X140060000Y-89260000D02*
X136504000Y-89260000D01*
X140060000Y-89260000D02*
X144780000Y-93980000D01*
X135636000Y-88392000D02*
X135636000Y-87376000D01*
X166116000Y-93980000D02*
X144780000Y-93980000D01*
X136504000Y-89260000D02*
X135636000Y-88392000D01*
X135636000Y-87376000D02*
X136144000Y-86868000D01*
%TO.N,Net-(J3-Pin_15)*%
X162920000Y-86720000D02*
X163967197Y-86720000D01*
X163967197Y-86720000D02*
X166875197Y-89628000D01*
X161036000Y-84836000D02*
X162920000Y-86720000D01*
X166875197Y-89628000D02*
X167640000Y-89628000D01*
%TO.N,Net-(J28-Pin_7)*%
X162440000Y-58780000D02*
X165968000Y-58780000D01*
X135876244Y-60016000D02*
X134692000Y-60016000D01*
X137112244Y-58780000D02*
X135876244Y-60016000D01*
X134692000Y-60016000D02*
X134620000Y-59944000D01*
X162440000Y-58780000D02*
X137112244Y-58780000D01*
X165968000Y-58780000D02*
X166116000Y-58928000D01*
%TO.N,SDA1*%
X134112000Y-71120000D02*
X136652000Y-73660000D01*
X136652000Y-73660000D02*
X163694024Y-73660000D01*
X163694024Y-73660000D02*
X165608000Y-75573976D01*
X165608000Y-75573976D02*
X165608000Y-83036574D01*
X167244426Y-84673000D02*
X168493000Y-84673000D01*
X165608000Y-83036574D02*
X167244426Y-84673000D01*
X168493000Y-84673000D02*
X174244000Y-90424000D01*
X174244000Y-90424000D02*
X174244000Y-96012000D01*
X174752000Y-96520000D02*
X180848000Y-96520000D01*
X174244000Y-96012000D02*
X174752000Y-96520000D01*
X180848000Y-96520000D02*
X181356000Y-97028000D01*
X198784122Y-77284122D02*
X198784122Y-79599878D01*
X198784122Y-77284122D02*
X198000000Y-76500000D01*
X181356000Y-97028000D02*
X198784122Y-79599878D01*
%TD*%
M02*
