%TF.GenerationSoftware,KiCad,Pcbnew,8.0.5*%
%TF.CreationDate,2024-12-05T19:43:49+01:00*%
%TF.ProjectId,navrh03,6e617672-6830-4332-9e6b-696361645f70,rev?*%
%TF.SameCoordinates,Original*%
%TF.FileFunction,Legend,Top*%
%TF.FilePolarity,Positive*%
%FSLAX46Y46*%
G04 Gerber Fmt 4.6, Leading zero omitted, Abs format (unit mm)*
G04 Created by KiCad (PCBNEW 8.0.5) date 2024-12-05 19:43:49*
%MOMM*%
%LPD*%
G01*
G04 APERTURE LIST*
%ADD10C,0.150000*%
%ADD11C,0.080000*%
%ADD12C,0.127000*%
%ADD13C,0.120000*%
%ADD14C,0.152400*%
%ADD15C,0.200000*%
G04 APERTURE END LIST*
D10*
X116838666Y-52803819D02*
X116838666Y-53518104D01*
X116838666Y-53518104D02*
X116791047Y-53660961D01*
X116791047Y-53660961D02*
X116695809Y-53756200D01*
X116695809Y-53756200D02*
X116552952Y-53803819D01*
X116552952Y-53803819D02*
X116457714Y-53803819D01*
X117314857Y-53803819D02*
X117314857Y-52803819D01*
X117314857Y-52803819D02*
X117695809Y-52803819D01*
X117695809Y-52803819D02*
X117791047Y-52851438D01*
X117791047Y-52851438D02*
X117838666Y-52899057D01*
X117838666Y-52899057D02*
X117886285Y-52994295D01*
X117886285Y-52994295D02*
X117886285Y-53137152D01*
X117886285Y-53137152D02*
X117838666Y-53232390D01*
X117838666Y-53232390D02*
X117791047Y-53280009D01*
X117791047Y-53280009D02*
X117695809Y-53327628D01*
X117695809Y-53327628D02*
X117314857Y-53327628D01*
X118219619Y-52803819D02*
X118838666Y-52803819D01*
X118838666Y-52803819D02*
X118505333Y-53184771D01*
X118505333Y-53184771D02*
X118648190Y-53184771D01*
X118648190Y-53184771D02*
X118743428Y-53232390D01*
X118743428Y-53232390D02*
X118791047Y-53280009D01*
X118791047Y-53280009D02*
X118838666Y-53375247D01*
X118838666Y-53375247D02*
X118838666Y-53613342D01*
X118838666Y-53613342D02*
X118791047Y-53708580D01*
X118791047Y-53708580D02*
X118743428Y-53756200D01*
X118743428Y-53756200D02*
X118648190Y-53803819D01*
X118648190Y-53803819D02*
X118362476Y-53803819D01*
X118362476Y-53803819D02*
X118267238Y-53756200D01*
X118267238Y-53756200D02*
X118219619Y-53708580D01*
X145970666Y-114758819D02*
X145970666Y-115473104D01*
X145970666Y-115473104D02*
X145923047Y-115615961D01*
X145923047Y-115615961D02*
X145827809Y-115711200D01*
X145827809Y-115711200D02*
X145684952Y-115758819D01*
X145684952Y-115758819D02*
X145589714Y-115758819D01*
X146399238Y-114854057D02*
X146446857Y-114806438D01*
X146446857Y-114806438D02*
X146542095Y-114758819D01*
X146542095Y-114758819D02*
X146780190Y-114758819D01*
X146780190Y-114758819D02*
X146875428Y-114806438D01*
X146875428Y-114806438D02*
X146923047Y-114854057D01*
X146923047Y-114854057D02*
X146970666Y-114949295D01*
X146970666Y-114949295D02*
X146970666Y-115044533D01*
X146970666Y-115044533D02*
X146923047Y-115187390D01*
X146923047Y-115187390D02*
X146351619Y-115758819D01*
X146351619Y-115758819D02*
X146970666Y-115758819D01*
X114641333Y-72031580D02*
X114593714Y-72079200D01*
X114593714Y-72079200D02*
X114450857Y-72126819D01*
X114450857Y-72126819D02*
X114355619Y-72126819D01*
X114355619Y-72126819D02*
X114212762Y-72079200D01*
X114212762Y-72079200D02*
X114117524Y-71983961D01*
X114117524Y-71983961D02*
X114069905Y-71888723D01*
X114069905Y-71888723D02*
X114022286Y-71698247D01*
X114022286Y-71698247D02*
X114022286Y-71555390D01*
X114022286Y-71555390D02*
X114069905Y-71364914D01*
X114069905Y-71364914D02*
X114117524Y-71269676D01*
X114117524Y-71269676D02*
X114212762Y-71174438D01*
X114212762Y-71174438D02*
X114355619Y-71126819D01*
X114355619Y-71126819D02*
X114450857Y-71126819D01*
X114450857Y-71126819D02*
X114593714Y-71174438D01*
X114593714Y-71174438D02*
X114641333Y-71222057D01*
X115022286Y-71222057D02*
X115069905Y-71174438D01*
X115069905Y-71174438D02*
X115165143Y-71126819D01*
X115165143Y-71126819D02*
X115403238Y-71126819D01*
X115403238Y-71126819D02*
X115498476Y-71174438D01*
X115498476Y-71174438D02*
X115546095Y-71222057D01*
X115546095Y-71222057D02*
X115593714Y-71317295D01*
X115593714Y-71317295D02*
X115593714Y-71412533D01*
X115593714Y-71412533D02*
X115546095Y-71555390D01*
X115546095Y-71555390D02*
X114974667Y-72126819D01*
X114974667Y-72126819D02*
X115593714Y-72126819D01*
X79658819Y-86661523D02*
X80373104Y-86661523D01*
X80373104Y-86661523D02*
X80515961Y-86709142D01*
X80515961Y-86709142D02*
X80611200Y-86804380D01*
X80611200Y-86804380D02*
X80658819Y-86947237D01*
X80658819Y-86947237D02*
X80658819Y-87042475D01*
X79754057Y-86232951D02*
X79706438Y-86185332D01*
X79706438Y-86185332D02*
X79658819Y-86090094D01*
X79658819Y-86090094D02*
X79658819Y-85851999D01*
X79658819Y-85851999D02*
X79706438Y-85756761D01*
X79706438Y-85756761D02*
X79754057Y-85709142D01*
X79754057Y-85709142D02*
X79849295Y-85661523D01*
X79849295Y-85661523D02*
X79944533Y-85661523D01*
X79944533Y-85661523D02*
X80087390Y-85709142D01*
X80087390Y-85709142D02*
X80658819Y-86280570D01*
X80658819Y-86280570D02*
X80658819Y-85661523D01*
X79992152Y-84804380D02*
X80658819Y-84804380D01*
X79611200Y-85042475D02*
X80325485Y-85280570D01*
X80325485Y-85280570D02*
X80325485Y-84661523D01*
X126450819Y-74977523D02*
X127165104Y-74977523D01*
X127165104Y-74977523D02*
X127307961Y-75025142D01*
X127307961Y-75025142D02*
X127403200Y-75120380D01*
X127403200Y-75120380D02*
X127450819Y-75263237D01*
X127450819Y-75263237D02*
X127450819Y-75358475D01*
X127450819Y-73977523D02*
X127450819Y-74548951D01*
X127450819Y-74263237D02*
X126450819Y-74263237D01*
X126450819Y-74263237D02*
X126593676Y-74358475D01*
X126593676Y-74358475D02*
X126688914Y-74453713D01*
X126688914Y-74453713D02*
X126736533Y-74548951D01*
X127450819Y-73501332D02*
X127450819Y-73310856D01*
X127450819Y-73310856D02*
X127403200Y-73215618D01*
X127403200Y-73215618D02*
X127355580Y-73167999D01*
X127355580Y-73167999D02*
X127212723Y-73072761D01*
X127212723Y-73072761D02*
X127022247Y-73025142D01*
X127022247Y-73025142D02*
X126641295Y-73025142D01*
X126641295Y-73025142D02*
X126546057Y-73072761D01*
X126546057Y-73072761D02*
X126498438Y-73120380D01*
X126498438Y-73120380D02*
X126450819Y-73215618D01*
X126450819Y-73215618D02*
X126450819Y-73406094D01*
X126450819Y-73406094D02*
X126498438Y-73501332D01*
X126498438Y-73501332D02*
X126546057Y-73548951D01*
X126546057Y-73548951D02*
X126641295Y-73596570D01*
X126641295Y-73596570D02*
X126879390Y-73596570D01*
X126879390Y-73596570D02*
X126974628Y-73548951D01*
X126974628Y-73548951D02*
X127022247Y-73501332D01*
X127022247Y-73501332D02*
X127069866Y-73406094D01*
X127069866Y-73406094D02*
X127069866Y-73215618D01*
X127069866Y-73215618D02*
X127022247Y-73120380D01*
X127022247Y-73120380D02*
X126974628Y-73072761D01*
X126974628Y-73072761D02*
X126879390Y-73025142D01*
X116838666Y-63453819D02*
X116838666Y-64168104D01*
X116838666Y-64168104D02*
X116791047Y-64310961D01*
X116791047Y-64310961D02*
X116695809Y-64406200D01*
X116695809Y-64406200D02*
X116552952Y-64453819D01*
X116552952Y-64453819D02*
X116457714Y-64453819D01*
X117314857Y-64453819D02*
X117314857Y-63453819D01*
X117314857Y-63453819D02*
X117695809Y-63453819D01*
X117695809Y-63453819D02*
X117791047Y-63501438D01*
X117791047Y-63501438D02*
X117838666Y-63549057D01*
X117838666Y-63549057D02*
X117886285Y-63644295D01*
X117886285Y-63644295D02*
X117886285Y-63787152D01*
X117886285Y-63787152D02*
X117838666Y-63882390D01*
X117838666Y-63882390D02*
X117791047Y-63930009D01*
X117791047Y-63930009D02*
X117695809Y-63977628D01*
X117695809Y-63977628D02*
X117314857Y-63977628D01*
X118743428Y-63453819D02*
X118552952Y-63453819D01*
X118552952Y-63453819D02*
X118457714Y-63501438D01*
X118457714Y-63501438D02*
X118410095Y-63549057D01*
X118410095Y-63549057D02*
X118314857Y-63691914D01*
X118314857Y-63691914D02*
X118267238Y-63882390D01*
X118267238Y-63882390D02*
X118267238Y-64263342D01*
X118267238Y-64263342D02*
X118314857Y-64358580D01*
X118314857Y-64358580D02*
X118362476Y-64406200D01*
X118362476Y-64406200D02*
X118457714Y-64453819D01*
X118457714Y-64453819D02*
X118648190Y-64453819D01*
X118648190Y-64453819D02*
X118743428Y-64406200D01*
X118743428Y-64406200D02*
X118791047Y-64358580D01*
X118791047Y-64358580D02*
X118838666Y-64263342D01*
X118838666Y-64263342D02*
X118838666Y-64025247D01*
X118838666Y-64025247D02*
X118791047Y-63930009D01*
X118791047Y-63930009D02*
X118743428Y-63882390D01*
X118743428Y-63882390D02*
X118648190Y-63834771D01*
X118648190Y-63834771D02*
X118457714Y-63834771D01*
X118457714Y-63834771D02*
X118362476Y-63882390D01*
X118362476Y-63882390D02*
X118314857Y-63930009D01*
X118314857Y-63930009D02*
X118267238Y-64025247D01*
X79658819Y-89709523D02*
X80373104Y-89709523D01*
X80373104Y-89709523D02*
X80515961Y-89757142D01*
X80515961Y-89757142D02*
X80611200Y-89852380D01*
X80611200Y-89852380D02*
X80658819Y-89995237D01*
X80658819Y-89995237D02*
X80658819Y-90090475D01*
X79754057Y-89280951D02*
X79706438Y-89233332D01*
X79706438Y-89233332D02*
X79658819Y-89138094D01*
X79658819Y-89138094D02*
X79658819Y-88899999D01*
X79658819Y-88899999D02*
X79706438Y-88804761D01*
X79706438Y-88804761D02*
X79754057Y-88757142D01*
X79754057Y-88757142D02*
X79849295Y-88709523D01*
X79849295Y-88709523D02*
X79944533Y-88709523D01*
X79944533Y-88709523D02*
X80087390Y-88757142D01*
X80087390Y-88757142D02*
X80658819Y-89328570D01*
X80658819Y-89328570D02*
X80658819Y-88709523D01*
X79658819Y-87804761D02*
X79658819Y-88280951D01*
X79658819Y-88280951D02*
X80135009Y-88328570D01*
X80135009Y-88328570D02*
X80087390Y-88280951D01*
X80087390Y-88280951D02*
X80039771Y-88185713D01*
X80039771Y-88185713D02*
X80039771Y-87947618D01*
X80039771Y-87947618D02*
X80087390Y-87852380D01*
X80087390Y-87852380D02*
X80135009Y-87804761D01*
X80135009Y-87804761D02*
X80230247Y-87757142D01*
X80230247Y-87757142D02*
X80468342Y-87757142D01*
X80468342Y-87757142D02*
X80563580Y-87804761D01*
X80563580Y-87804761D02*
X80611200Y-87852380D01*
X80611200Y-87852380D02*
X80658819Y-87947618D01*
X80658819Y-87947618D02*
X80658819Y-88185713D01*
X80658819Y-88185713D02*
X80611200Y-88280951D01*
X80611200Y-88280951D02*
X80563580Y-88328570D01*
X116838666Y-59903819D02*
X116838666Y-60618104D01*
X116838666Y-60618104D02*
X116791047Y-60760961D01*
X116791047Y-60760961D02*
X116695809Y-60856200D01*
X116695809Y-60856200D02*
X116552952Y-60903819D01*
X116552952Y-60903819D02*
X116457714Y-60903819D01*
X117314857Y-60903819D02*
X117314857Y-59903819D01*
X117314857Y-59903819D02*
X117695809Y-59903819D01*
X117695809Y-59903819D02*
X117791047Y-59951438D01*
X117791047Y-59951438D02*
X117838666Y-59999057D01*
X117838666Y-59999057D02*
X117886285Y-60094295D01*
X117886285Y-60094295D02*
X117886285Y-60237152D01*
X117886285Y-60237152D02*
X117838666Y-60332390D01*
X117838666Y-60332390D02*
X117791047Y-60380009D01*
X117791047Y-60380009D02*
X117695809Y-60427628D01*
X117695809Y-60427628D02*
X117314857Y-60427628D01*
X118791047Y-59903819D02*
X118314857Y-59903819D01*
X118314857Y-59903819D02*
X118267238Y-60380009D01*
X118267238Y-60380009D02*
X118314857Y-60332390D01*
X118314857Y-60332390D02*
X118410095Y-60284771D01*
X118410095Y-60284771D02*
X118648190Y-60284771D01*
X118648190Y-60284771D02*
X118743428Y-60332390D01*
X118743428Y-60332390D02*
X118791047Y-60380009D01*
X118791047Y-60380009D02*
X118838666Y-60475247D01*
X118838666Y-60475247D02*
X118838666Y-60713342D01*
X118838666Y-60713342D02*
X118791047Y-60808580D01*
X118791047Y-60808580D02*
X118743428Y-60856200D01*
X118743428Y-60856200D02*
X118648190Y-60903819D01*
X118648190Y-60903819D02*
X118410095Y-60903819D01*
X118410095Y-60903819D02*
X118314857Y-60856200D01*
X118314857Y-60856200D02*
X118267238Y-60808580D01*
X126450819Y-78025523D02*
X127165104Y-78025523D01*
X127165104Y-78025523D02*
X127307961Y-78073142D01*
X127307961Y-78073142D02*
X127403200Y-78168380D01*
X127403200Y-78168380D02*
X127450819Y-78311237D01*
X127450819Y-78311237D02*
X127450819Y-78406475D01*
X127450819Y-77025523D02*
X127450819Y-77596951D01*
X127450819Y-77311237D02*
X126450819Y-77311237D01*
X126450819Y-77311237D02*
X126593676Y-77406475D01*
X126593676Y-77406475D02*
X126688914Y-77501713D01*
X126688914Y-77501713D02*
X126736533Y-77596951D01*
X126879390Y-76454094D02*
X126831771Y-76549332D01*
X126831771Y-76549332D02*
X126784152Y-76596951D01*
X126784152Y-76596951D02*
X126688914Y-76644570D01*
X126688914Y-76644570D02*
X126641295Y-76644570D01*
X126641295Y-76644570D02*
X126546057Y-76596951D01*
X126546057Y-76596951D02*
X126498438Y-76549332D01*
X126498438Y-76549332D02*
X126450819Y-76454094D01*
X126450819Y-76454094D02*
X126450819Y-76263618D01*
X126450819Y-76263618D02*
X126498438Y-76168380D01*
X126498438Y-76168380D02*
X126546057Y-76120761D01*
X126546057Y-76120761D02*
X126641295Y-76073142D01*
X126641295Y-76073142D02*
X126688914Y-76073142D01*
X126688914Y-76073142D02*
X126784152Y-76120761D01*
X126784152Y-76120761D02*
X126831771Y-76168380D01*
X126831771Y-76168380D02*
X126879390Y-76263618D01*
X126879390Y-76263618D02*
X126879390Y-76454094D01*
X126879390Y-76454094D02*
X126927009Y-76549332D01*
X126927009Y-76549332D02*
X126974628Y-76596951D01*
X126974628Y-76596951D02*
X127069866Y-76644570D01*
X127069866Y-76644570D02*
X127260342Y-76644570D01*
X127260342Y-76644570D02*
X127355580Y-76596951D01*
X127355580Y-76596951D02*
X127403200Y-76549332D01*
X127403200Y-76549332D02*
X127450819Y-76454094D01*
X127450819Y-76454094D02*
X127450819Y-76263618D01*
X127450819Y-76263618D02*
X127403200Y-76168380D01*
X127403200Y-76168380D02*
X127355580Y-76120761D01*
X127355580Y-76120761D02*
X127260342Y-76073142D01*
X127260342Y-76073142D02*
X127069866Y-76073142D01*
X127069866Y-76073142D02*
X126974628Y-76120761D01*
X126974628Y-76120761D02*
X126927009Y-76168380D01*
X126927009Y-76168380D02*
X126879390Y-76263618D01*
X126482819Y-99361523D02*
X127197104Y-99361523D01*
X127197104Y-99361523D02*
X127339961Y-99409142D01*
X127339961Y-99409142D02*
X127435200Y-99504380D01*
X127435200Y-99504380D02*
X127482819Y-99647237D01*
X127482819Y-99647237D02*
X127482819Y-99742475D01*
X127482819Y-98361523D02*
X127482819Y-98932951D01*
X127482819Y-98647237D02*
X126482819Y-98647237D01*
X126482819Y-98647237D02*
X126625676Y-98742475D01*
X126625676Y-98742475D02*
X126720914Y-98837713D01*
X126720914Y-98837713D02*
X126768533Y-98932951D01*
X126578057Y-97980570D02*
X126530438Y-97932951D01*
X126530438Y-97932951D02*
X126482819Y-97837713D01*
X126482819Y-97837713D02*
X126482819Y-97599618D01*
X126482819Y-97599618D02*
X126530438Y-97504380D01*
X126530438Y-97504380D02*
X126578057Y-97456761D01*
X126578057Y-97456761D02*
X126673295Y-97409142D01*
X126673295Y-97409142D02*
X126768533Y-97409142D01*
X126768533Y-97409142D02*
X126911390Y-97456761D01*
X126911390Y-97456761D02*
X127482819Y-98028189D01*
X127482819Y-98028189D02*
X127482819Y-97409142D01*
X79690819Y-80565523D02*
X80405104Y-80565523D01*
X80405104Y-80565523D02*
X80547961Y-80613142D01*
X80547961Y-80613142D02*
X80643200Y-80708380D01*
X80643200Y-80708380D02*
X80690819Y-80851237D01*
X80690819Y-80851237D02*
X80690819Y-80946475D01*
X79786057Y-80136951D02*
X79738438Y-80089332D01*
X79738438Y-80089332D02*
X79690819Y-79994094D01*
X79690819Y-79994094D02*
X79690819Y-79755999D01*
X79690819Y-79755999D02*
X79738438Y-79660761D01*
X79738438Y-79660761D02*
X79786057Y-79613142D01*
X79786057Y-79613142D02*
X79881295Y-79565523D01*
X79881295Y-79565523D02*
X79976533Y-79565523D01*
X79976533Y-79565523D02*
X80119390Y-79613142D01*
X80119390Y-79613142D02*
X80690819Y-80184570D01*
X80690819Y-80184570D02*
X80690819Y-79565523D01*
X79786057Y-79184570D02*
X79738438Y-79136951D01*
X79738438Y-79136951D02*
X79690819Y-79041713D01*
X79690819Y-79041713D02*
X79690819Y-78803618D01*
X79690819Y-78803618D02*
X79738438Y-78708380D01*
X79738438Y-78708380D02*
X79786057Y-78660761D01*
X79786057Y-78660761D02*
X79881295Y-78613142D01*
X79881295Y-78613142D02*
X79976533Y-78613142D01*
X79976533Y-78613142D02*
X80119390Y-78660761D01*
X80119390Y-78660761D02*
X80690819Y-79232189D01*
X80690819Y-79232189D02*
X80690819Y-78613142D01*
X167306666Y-59022819D02*
X167306666Y-59737104D01*
X167306666Y-59737104D02*
X167259047Y-59879961D01*
X167259047Y-59879961D02*
X167163809Y-59975200D01*
X167163809Y-59975200D02*
X167020952Y-60022819D01*
X167020952Y-60022819D02*
X166925714Y-60022819D01*
X167687619Y-59022819D02*
X168306666Y-59022819D01*
X168306666Y-59022819D02*
X167973333Y-59403771D01*
X167973333Y-59403771D02*
X168116190Y-59403771D01*
X168116190Y-59403771D02*
X168211428Y-59451390D01*
X168211428Y-59451390D02*
X168259047Y-59499009D01*
X168259047Y-59499009D02*
X168306666Y-59594247D01*
X168306666Y-59594247D02*
X168306666Y-59832342D01*
X168306666Y-59832342D02*
X168259047Y-59927580D01*
X168259047Y-59927580D02*
X168211428Y-59975200D01*
X168211428Y-59975200D02*
X168116190Y-60022819D01*
X168116190Y-60022819D02*
X167830476Y-60022819D01*
X167830476Y-60022819D02*
X167735238Y-59975200D01*
X167735238Y-59975200D02*
X167687619Y-59927580D01*
X79690819Y-74469523D02*
X80405104Y-74469523D01*
X80405104Y-74469523D02*
X80547961Y-74517142D01*
X80547961Y-74517142D02*
X80643200Y-74612380D01*
X80643200Y-74612380D02*
X80690819Y-74755237D01*
X80690819Y-74755237D02*
X80690819Y-74850475D01*
X79786057Y-74040951D02*
X79738438Y-73993332D01*
X79738438Y-73993332D02*
X79690819Y-73898094D01*
X79690819Y-73898094D02*
X79690819Y-73659999D01*
X79690819Y-73659999D02*
X79738438Y-73564761D01*
X79738438Y-73564761D02*
X79786057Y-73517142D01*
X79786057Y-73517142D02*
X79881295Y-73469523D01*
X79881295Y-73469523D02*
X79976533Y-73469523D01*
X79976533Y-73469523D02*
X80119390Y-73517142D01*
X80119390Y-73517142D02*
X80690819Y-74088570D01*
X80690819Y-74088570D02*
X80690819Y-73469523D01*
X79690819Y-72850475D02*
X79690819Y-72755237D01*
X79690819Y-72755237D02*
X79738438Y-72659999D01*
X79738438Y-72659999D02*
X79786057Y-72612380D01*
X79786057Y-72612380D02*
X79881295Y-72564761D01*
X79881295Y-72564761D02*
X80071771Y-72517142D01*
X80071771Y-72517142D02*
X80309866Y-72517142D01*
X80309866Y-72517142D02*
X80500342Y-72564761D01*
X80500342Y-72564761D02*
X80595580Y-72612380D01*
X80595580Y-72612380D02*
X80643200Y-72659999D01*
X80643200Y-72659999D02*
X80690819Y-72755237D01*
X80690819Y-72755237D02*
X80690819Y-72850475D01*
X80690819Y-72850475D02*
X80643200Y-72945713D01*
X80643200Y-72945713D02*
X80595580Y-72993332D01*
X80595580Y-72993332D02*
X80500342Y-73040951D01*
X80500342Y-73040951D02*
X80309866Y-73088570D01*
X80309866Y-73088570D02*
X80071771Y-73088570D01*
X80071771Y-73088570D02*
X79881295Y-73040951D01*
X79881295Y-73040951D02*
X79786057Y-72993332D01*
X79786057Y-72993332D02*
X79738438Y-72945713D01*
X79738438Y-72945713D02*
X79690819Y-72850475D01*
X211794819Y-94821333D02*
X212509104Y-94821333D01*
X212509104Y-94821333D02*
X212651961Y-94868952D01*
X212651961Y-94868952D02*
X212747200Y-94964190D01*
X212747200Y-94964190D02*
X212794819Y-95107047D01*
X212794819Y-95107047D02*
X212794819Y-95202285D01*
X212128152Y-93916571D02*
X212794819Y-93916571D01*
X211747200Y-94154666D02*
X212461485Y-94392761D01*
X212461485Y-94392761D02*
X212461485Y-93773714D01*
X79690819Y-83613523D02*
X80405104Y-83613523D01*
X80405104Y-83613523D02*
X80547961Y-83661142D01*
X80547961Y-83661142D02*
X80643200Y-83756380D01*
X80643200Y-83756380D02*
X80690819Y-83899237D01*
X80690819Y-83899237D02*
X80690819Y-83994475D01*
X79786057Y-83184951D02*
X79738438Y-83137332D01*
X79738438Y-83137332D02*
X79690819Y-83042094D01*
X79690819Y-83042094D02*
X79690819Y-82803999D01*
X79690819Y-82803999D02*
X79738438Y-82708761D01*
X79738438Y-82708761D02*
X79786057Y-82661142D01*
X79786057Y-82661142D02*
X79881295Y-82613523D01*
X79881295Y-82613523D02*
X79976533Y-82613523D01*
X79976533Y-82613523D02*
X80119390Y-82661142D01*
X80119390Y-82661142D02*
X80690819Y-83232570D01*
X80690819Y-83232570D02*
X80690819Y-82613523D01*
X79690819Y-82280189D02*
X79690819Y-81661142D01*
X79690819Y-81661142D02*
X80071771Y-81994475D01*
X80071771Y-81994475D02*
X80071771Y-81851618D01*
X80071771Y-81851618D02*
X80119390Y-81756380D01*
X80119390Y-81756380D02*
X80167009Y-81708761D01*
X80167009Y-81708761D02*
X80262247Y-81661142D01*
X80262247Y-81661142D02*
X80500342Y-81661142D01*
X80500342Y-81661142D02*
X80595580Y-81708761D01*
X80595580Y-81708761D02*
X80643200Y-81756380D01*
X80643200Y-81756380D02*
X80690819Y-81851618D01*
X80690819Y-81851618D02*
X80690819Y-82137332D01*
X80690819Y-82137332D02*
X80643200Y-82232570D01*
X80643200Y-82232570D02*
X80595580Y-82280189D01*
X211794819Y-85677333D02*
X212509104Y-85677333D01*
X212509104Y-85677333D02*
X212651961Y-85724952D01*
X212651961Y-85724952D02*
X212747200Y-85820190D01*
X212747200Y-85820190D02*
X212794819Y-85963047D01*
X212794819Y-85963047D02*
X212794819Y-86058285D01*
X211794819Y-85296380D02*
X211794819Y-84629714D01*
X211794819Y-84629714D02*
X212794819Y-85058285D01*
X116838666Y-45703819D02*
X116838666Y-46418104D01*
X116838666Y-46418104D02*
X116791047Y-46560961D01*
X116791047Y-46560961D02*
X116695809Y-46656200D01*
X116695809Y-46656200D02*
X116552952Y-46703819D01*
X116552952Y-46703819D02*
X116457714Y-46703819D01*
X117314857Y-46703819D02*
X117314857Y-45703819D01*
X117314857Y-45703819D02*
X117695809Y-45703819D01*
X117695809Y-45703819D02*
X117791047Y-45751438D01*
X117791047Y-45751438D02*
X117838666Y-45799057D01*
X117838666Y-45799057D02*
X117886285Y-45894295D01*
X117886285Y-45894295D02*
X117886285Y-46037152D01*
X117886285Y-46037152D02*
X117838666Y-46132390D01*
X117838666Y-46132390D02*
X117791047Y-46180009D01*
X117791047Y-46180009D02*
X117695809Y-46227628D01*
X117695809Y-46227628D02*
X117314857Y-46227628D01*
X118838666Y-46703819D02*
X118267238Y-46703819D01*
X118552952Y-46703819D02*
X118552952Y-45703819D01*
X118552952Y-45703819D02*
X118457714Y-45846676D01*
X118457714Y-45846676D02*
X118362476Y-45941914D01*
X118362476Y-45941914D02*
X118267238Y-45989533D01*
X211762819Y-77009523D02*
X212477104Y-77009523D01*
X212477104Y-77009523D02*
X212619961Y-77057142D01*
X212619961Y-77057142D02*
X212715200Y-77152380D01*
X212715200Y-77152380D02*
X212762819Y-77295237D01*
X212762819Y-77295237D02*
X212762819Y-77390475D01*
X212762819Y-76009523D02*
X212762819Y-76580951D01*
X212762819Y-76295237D02*
X211762819Y-76295237D01*
X211762819Y-76295237D02*
X211905676Y-76390475D01*
X211905676Y-76390475D02*
X212000914Y-76485713D01*
X212000914Y-76485713D02*
X212048533Y-76580951D01*
X211762819Y-75390475D02*
X211762819Y-75295237D01*
X211762819Y-75295237D02*
X211810438Y-75199999D01*
X211810438Y-75199999D02*
X211858057Y-75152380D01*
X211858057Y-75152380D02*
X211953295Y-75104761D01*
X211953295Y-75104761D02*
X212143771Y-75057142D01*
X212143771Y-75057142D02*
X212381866Y-75057142D01*
X212381866Y-75057142D02*
X212572342Y-75104761D01*
X212572342Y-75104761D02*
X212667580Y-75152380D01*
X212667580Y-75152380D02*
X212715200Y-75199999D01*
X212715200Y-75199999D02*
X212762819Y-75295237D01*
X212762819Y-75295237D02*
X212762819Y-75390475D01*
X212762819Y-75390475D02*
X212715200Y-75485713D01*
X212715200Y-75485713D02*
X212667580Y-75533332D01*
X212667580Y-75533332D02*
X212572342Y-75580951D01*
X212572342Y-75580951D02*
X212381866Y-75628570D01*
X212381866Y-75628570D02*
X212143771Y-75628570D01*
X212143771Y-75628570D02*
X211953295Y-75580951D01*
X211953295Y-75580951D02*
X211858057Y-75533332D01*
X211858057Y-75533332D02*
X211810438Y-75485713D01*
X211810438Y-75485713D02*
X211762819Y-75390475D01*
X126450819Y-96313523D02*
X127165104Y-96313523D01*
X127165104Y-96313523D02*
X127307961Y-96361142D01*
X127307961Y-96361142D02*
X127403200Y-96456380D01*
X127403200Y-96456380D02*
X127450819Y-96599237D01*
X127450819Y-96599237D02*
X127450819Y-96694475D01*
X127450819Y-95313523D02*
X127450819Y-95884951D01*
X127450819Y-95599237D02*
X126450819Y-95599237D01*
X126450819Y-95599237D02*
X126593676Y-95694475D01*
X126593676Y-95694475D02*
X126688914Y-95789713D01*
X126688914Y-95789713D02*
X126736533Y-95884951D01*
X126450819Y-94980189D02*
X126450819Y-94361142D01*
X126450819Y-94361142D02*
X126831771Y-94694475D01*
X126831771Y-94694475D02*
X126831771Y-94551618D01*
X126831771Y-94551618D02*
X126879390Y-94456380D01*
X126879390Y-94456380D02*
X126927009Y-94408761D01*
X126927009Y-94408761D02*
X127022247Y-94361142D01*
X127022247Y-94361142D02*
X127260342Y-94361142D01*
X127260342Y-94361142D02*
X127355580Y-94408761D01*
X127355580Y-94408761D02*
X127403200Y-94456380D01*
X127403200Y-94456380D02*
X127450819Y-94551618D01*
X127450819Y-94551618D02*
X127450819Y-94837332D01*
X127450819Y-94837332D02*
X127403200Y-94932570D01*
X127403200Y-94932570D02*
X127355580Y-94980189D01*
X79690819Y-92757523D02*
X80405104Y-92757523D01*
X80405104Y-92757523D02*
X80547961Y-92805142D01*
X80547961Y-92805142D02*
X80643200Y-92900380D01*
X80643200Y-92900380D02*
X80690819Y-93043237D01*
X80690819Y-93043237D02*
X80690819Y-93138475D01*
X79786057Y-92328951D02*
X79738438Y-92281332D01*
X79738438Y-92281332D02*
X79690819Y-92186094D01*
X79690819Y-92186094D02*
X79690819Y-91947999D01*
X79690819Y-91947999D02*
X79738438Y-91852761D01*
X79738438Y-91852761D02*
X79786057Y-91805142D01*
X79786057Y-91805142D02*
X79881295Y-91757523D01*
X79881295Y-91757523D02*
X79976533Y-91757523D01*
X79976533Y-91757523D02*
X80119390Y-91805142D01*
X80119390Y-91805142D02*
X80690819Y-92376570D01*
X80690819Y-92376570D02*
X80690819Y-91757523D01*
X79690819Y-90900380D02*
X79690819Y-91090856D01*
X79690819Y-91090856D02*
X79738438Y-91186094D01*
X79738438Y-91186094D02*
X79786057Y-91233713D01*
X79786057Y-91233713D02*
X79928914Y-91328951D01*
X79928914Y-91328951D02*
X80119390Y-91376570D01*
X80119390Y-91376570D02*
X80500342Y-91376570D01*
X80500342Y-91376570D02*
X80595580Y-91328951D01*
X80595580Y-91328951D02*
X80643200Y-91281332D01*
X80643200Y-91281332D02*
X80690819Y-91186094D01*
X80690819Y-91186094D02*
X80690819Y-90995618D01*
X80690819Y-90995618D02*
X80643200Y-90900380D01*
X80643200Y-90900380D02*
X80595580Y-90852761D01*
X80595580Y-90852761D02*
X80500342Y-90805142D01*
X80500342Y-90805142D02*
X80262247Y-90805142D01*
X80262247Y-90805142D02*
X80167009Y-90852761D01*
X80167009Y-90852761D02*
X80119390Y-90900380D01*
X80119390Y-90900380D02*
X80071771Y-90995618D01*
X80071771Y-90995618D02*
X80071771Y-91186094D01*
X80071771Y-91186094D02*
X80119390Y-91281332D01*
X80119390Y-91281332D02*
X80167009Y-91328951D01*
X80167009Y-91328951D02*
X80262247Y-91376570D01*
X126450819Y-93265523D02*
X127165104Y-93265523D01*
X127165104Y-93265523D02*
X127307961Y-93313142D01*
X127307961Y-93313142D02*
X127403200Y-93408380D01*
X127403200Y-93408380D02*
X127450819Y-93551237D01*
X127450819Y-93551237D02*
X127450819Y-93646475D01*
X127450819Y-92265523D02*
X127450819Y-92836951D01*
X127450819Y-92551237D02*
X126450819Y-92551237D01*
X126450819Y-92551237D02*
X126593676Y-92646475D01*
X126593676Y-92646475D02*
X126688914Y-92741713D01*
X126688914Y-92741713D02*
X126736533Y-92836951D01*
X126784152Y-91408380D02*
X127450819Y-91408380D01*
X126403200Y-91646475D02*
X127117485Y-91884570D01*
X127117485Y-91884570D02*
X127117485Y-91265523D01*
X172174819Y-81541714D02*
X172889104Y-81541714D01*
X172889104Y-81541714D02*
X173031961Y-81589333D01*
X173031961Y-81589333D02*
X173127200Y-81684571D01*
X173127200Y-81684571D02*
X173174819Y-81827428D01*
X173174819Y-81827428D02*
X173174819Y-81922666D01*
X173174819Y-80541714D02*
X173174819Y-81113142D01*
X173174819Y-80827428D02*
X172174819Y-80827428D01*
X172174819Y-80827428D02*
X172317676Y-80922666D01*
X172317676Y-80922666D02*
X172412914Y-81017904D01*
X172412914Y-81017904D02*
X172460533Y-81113142D01*
X172270057Y-80160761D02*
X172222438Y-80113142D01*
X172222438Y-80113142D02*
X172174819Y-80017904D01*
X172174819Y-80017904D02*
X172174819Y-79779809D01*
X172174819Y-79779809D02*
X172222438Y-79684571D01*
X172222438Y-79684571D02*
X172270057Y-79636952D01*
X172270057Y-79636952D02*
X172365295Y-79589333D01*
X172365295Y-79589333D02*
X172460533Y-79589333D01*
X172460533Y-79589333D02*
X172603390Y-79636952D01*
X172603390Y-79636952D02*
X173174819Y-80208380D01*
X173174819Y-80208380D02*
X173174819Y-79589333D01*
X173174819Y-78589333D02*
X172698628Y-78922666D01*
X173174819Y-79160761D02*
X172174819Y-79160761D01*
X172174819Y-79160761D02*
X172174819Y-78779809D01*
X172174819Y-78779809D02*
X172222438Y-78684571D01*
X172222438Y-78684571D02*
X172270057Y-78636952D01*
X172270057Y-78636952D02*
X172365295Y-78589333D01*
X172365295Y-78589333D02*
X172508152Y-78589333D01*
X172508152Y-78589333D02*
X172603390Y-78636952D01*
X172603390Y-78636952D02*
X172651009Y-78684571D01*
X172651009Y-78684571D02*
X172698628Y-78779809D01*
X172698628Y-78779809D02*
X172698628Y-79160761D01*
X173174819Y-77636952D02*
X173174819Y-78208380D01*
X173174819Y-77922666D02*
X172174819Y-77922666D01*
X172174819Y-77922666D02*
X172317676Y-78017904D01*
X172317676Y-78017904D02*
X172412914Y-78113142D01*
X172412914Y-78113142D02*
X172460533Y-78208380D01*
D11*
X193647869Y-79597935D02*
X193647869Y-80245554D01*
X193647869Y-80245554D02*
X193666916Y-80321744D01*
X193666916Y-80321744D02*
X193685964Y-80359840D01*
X193685964Y-80359840D02*
X193724059Y-80397935D01*
X193724059Y-80397935D02*
X193800250Y-80397935D01*
X193800250Y-80397935D02*
X193838345Y-80359840D01*
X193838345Y-80359840D02*
X193857392Y-80321744D01*
X193857392Y-80321744D02*
X193876440Y-80245554D01*
X193876440Y-80245554D02*
X193876440Y-79597935D01*
X194047869Y-79674125D02*
X194066917Y-79636030D01*
X194066917Y-79636030D02*
X194105012Y-79597935D01*
X194105012Y-79597935D02*
X194200250Y-79597935D01*
X194200250Y-79597935D02*
X194238345Y-79636030D01*
X194238345Y-79636030D02*
X194257393Y-79674125D01*
X194257393Y-79674125D02*
X194276440Y-79750316D01*
X194276440Y-79750316D02*
X194276440Y-79826506D01*
X194276440Y-79826506D02*
X194257393Y-79940792D01*
X194257393Y-79940792D02*
X194028821Y-80397935D01*
X194028821Y-80397935D02*
X194276440Y-80397935D01*
D10*
X154773333Y-124775580D02*
X154725714Y-124823200D01*
X154725714Y-124823200D02*
X154582857Y-124870819D01*
X154582857Y-124870819D02*
X154487619Y-124870819D01*
X154487619Y-124870819D02*
X154344762Y-124823200D01*
X154344762Y-124823200D02*
X154249524Y-124727961D01*
X154249524Y-124727961D02*
X154201905Y-124632723D01*
X154201905Y-124632723D02*
X154154286Y-124442247D01*
X154154286Y-124442247D02*
X154154286Y-124299390D01*
X154154286Y-124299390D02*
X154201905Y-124108914D01*
X154201905Y-124108914D02*
X154249524Y-124013676D01*
X154249524Y-124013676D02*
X154344762Y-123918438D01*
X154344762Y-123918438D02*
X154487619Y-123870819D01*
X154487619Y-123870819D02*
X154582857Y-123870819D01*
X154582857Y-123870819D02*
X154725714Y-123918438D01*
X154725714Y-123918438D02*
X154773333Y-123966057D01*
X155106667Y-123870819D02*
X155725714Y-123870819D01*
X155725714Y-123870819D02*
X155392381Y-124251771D01*
X155392381Y-124251771D02*
X155535238Y-124251771D01*
X155535238Y-124251771D02*
X155630476Y-124299390D01*
X155630476Y-124299390D02*
X155678095Y-124347009D01*
X155678095Y-124347009D02*
X155725714Y-124442247D01*
X155725714Y-124442247D02*
X155725714Y-124680342D01*
X155725714Y-124680342D02*
X155678095Y-124775580D01*
X155678095Y-124775580D02*
X155630476Y-124823200D01*
X155630476Y-124823200D02*
X155535238Y-124870819D01*
X155535238Y-124870819D02*
X155249524Y-124870819D01*
X155249524Y-124870819D02*
X155154286Y-124823200D01*
X155154286Y-124823200D02*
X155106667Y-124775580D01*
X211826819Y-91773333D02*
X212541104Y-91773333D01*
X212541104Y-91773333D02*
X212683961Y-91820952D01*
X212683961Y-91820952D02*
X212779200Y-91916190D01*
X212779200Y-91916190D02*
X212826819Y-92059047D01*
X212826819Y-92059047D02*
X212826819Y-92154285D01*
X211826819Y-90820952D02*
X211826819Y-91297142D01*
X211826819Y-91297142D02*
X212303009Y-91344761D01*
X212303009Y-91344761D02*
X212255390Y-91297142D01*
X212255390Y-91297142D02*
X212207771Y-91201904D01*
X212207771Y-91201904D02*
X212207771Y-90963809D01*
X212207771Y-90963809D02*
X212255390Y-90868571D01*
X212255390Y-90868571D02*
X212303009Y-90820952D01*
X212303009Y-90820952D02*
X212398247Y-90773333D01*
X212398247Y-90773333D02*
X212636342Y-90773333D01*
X212636342Y-90773333D02*
X212731580Y-90820952D01*
X212731580Y-90820952D02*
X212779200Y-90868571D01*
X212779200Y-90868571D02*
X212826819Y-90963809D01*
X212826819Y-90963809D02*
X212826819Y-91201904D01*
X212826819Y-91201904D02*
X212779200Y-91297142D01*
X212779200Y-91297142D02*
X212731580Y-91344761D01*
X116838666Y-56353819D02*
X116838666Y-57068104D01*
X116838666Y-57068104D02*
X116791047Y-57210961D01*
X116791047Y-57210961D02*
X116695809Y-57306200D01*
X116695809Y-57306200D02*
X116552952Y-57353819D01*
X116552952Y-57353819D02*
X116457714Y-57353819D01*
X117314857Y-57353819D02*
X117314857Y-56353819D01*
X117314857Y-56353819D02*
X117695809Y-56353819D01*
X117695809Y-56353819D02*
X117791047Y-56401438D01*
X117791047Y-56401438D02*
X117838666Y-56449057D01*
X117838666Y-56449057D02*
X117886285Y-56544295D01*
X117886285Y-56544295D02*
X117886285Y-56687152D01*
X117886285Y-56687152D02*
X117838666Y-56782390D01*
X117838666Y-56782390D02*
X117791047Y-56830009D01*
X117791047Y-56830009D02*
X117695809Y-56877628D01*
X117695809Y-56877628D02*
X117314857Y-56877628D01*
X118743428Y-56687152D02*
X118743428Y-57353819D01*
X118505333Y-56306200D02*
X118267238Y-57020485D01*
X118267238Y-57020485D02*
X118886285Y-57020485D01*
X126450819Y-90217523D02*
X127165104Y-90217523D01*
X127165104Y-90217523D02*
X127307961Y-90265142D01*
X127307961Y-90265142D02*
X127403200Y-90360380D01*
X127403200Y-90360380D02*
X127450819Y-90503237D01*
X127450819Y-90503237D02*
X127450819Y-90598475D01*
X127450819Y-89217523D02*
X127450819Y-89788951D01*
X127450819Y-89503237D02*
X126450819Y-89503237D01*
X126450819Y-89503237D02*
X126593676Y-89598475D01*
X126593676Y-89598475D02*
X126688914Y-89693713D01*
X126688914Y-89693713D02*
X126736533Y-89788951D01*
X126450819Y-88312761D02*
X126450819Y-88788951D01*
X126450819Y-88788951D02*
X126927009Y-88836570D01*
X126927009Y-88836570D02*
X126879390Y-88788951D01*
X126879390Y-88788951D02*
X126831771Y-88693713D01*
X126831771Y-88693713D02*
X126831771Y-88455618D01*
X126831771Y-88455618D02*
X126879390Y-88360380D01*
X126879390Y-88360380D02*
X126927009Y-88312761D01*
X126927009Y-88312761D02*
X127022247Y-88265142D01*
X127022247Y-88265142D02*
X127260342Y-88265142D01*
X127260342Y-88265142D02*
X127355580Y-88312761D01*
X127355580Y-88312761D02*
X127403200Y-88360380D01*
X127403200Y-88360380D02*
X127450819Y-88455618D01*
X127450819Y-88455618D02*
X127450819Y-88693713D01*
X127450819Y-88693713D02*
X127403200Y-88788951D01*
X127403200Y-88788951D02*
X127355580Y-88836570D01*
X211826819Y-88725333D02*
X212541104Y-88725333D01*
X212541104Y-88725333D02*
X212683961Y-88772952D01*
X212683961Y-88772952D02*
X212779200Y-88868190D01*
X212779200Y-88868190D02*
X212826819Y-89011047D01*
X212826819Y-89011047D02*
X212826819Y-89106285D01*
X211826819Y-87820571D02*
X211826819Y-88011047D01*
X211826819Y-88011047D02*
X211874438Y-88106285D01*
X211874438Y-88106285D02*
X211922057Y-88153904D01*
X211922057Y-88153904D02*
X212064914Y-88249142D01*
X212064914Y-88249142D02*
X212255390Y-88296761D01*
X212255390Y-88296761D02*
X212636342Y-88296761D01*
X212636342Y-88296761D02*
X212731580Y-88249142D01*
X212731580Y-88249142D02*
X212779200Y-88201523D01*
X212779200Y-88201523D02*
X212826819Y-88106285D01*
X212826819Y-88106285D02*
X212826819Y-87915809D01*
X212826819Y-87915809D02*
X212779200Y-87820571D01*
X212779200Y-87820571D02*
X212731580Y-87772952D01*
X212731580Y-87772952D02*
X212636342Y-87725333D01*
X212636342Y-87725333D02*
X212398247Y-87725333D01*
X212398247Y-87725333D02*
X212303009Y-87772952D01*
X212303009Y-87772952D02*
X212255390Y-87820571D01*
X212255390Y-87820571D02*
X212207771Y-87915809D01*
X212207771Y-87915809D02*
X212207771Y-88106285D01*
X212207771Y-88106285D02*
X212255390Y-88201523D01*
X212255390Y-88201523D02*
X212303009Y-88249142D01*
X212303009Y-88249142D02*
X212398247Y-88296761D01*
X126450819Y-82597523D02*
X127165104Y-82597523D01*
X127165104Y-82597523D02*
X127307961Y-82645142D01*
X127307961Y-82645142D02*
X127403200Y-82740380D01*
X127403200Y-82740380D02*
X127450819Y-82883237D01*
X127450819Y-82883237D02*
X127450819Y-82978475D01*
X127450819Y-81597523D02*
X127450819Y-82168951D01*
X127450819Y-81883237D02*
X126450819Y-81883237D01*
X126450819Y-81883237D02*
X126593676Y-81978475D01*
X126593676Y-81978475D02*
X126688914Y-82073713D01*
X126688914Y-82073713D02*
X126736533Y-82168951D01*
X126450819Y-81264189D02*
X126450819Y-80597523D01*
X126450819Y-80597523D02*
X127450819Y-81026094D01*
X129746476Y-83490819D02*
X129746476Y-84205104D01*
X129746476Y-84205104D02*
X129698857Y-84347961D01*
X129698857Y-84347961D02*
X129603619Y-84443200D01*
X129603619Y-84443200D02*
X129460762Y-84490819D01*
X129460762Y-84490819D02*
X129365524Y-84490819D01*
X130175048Y-83586057D02*
X130222667Y-83538438D01*
X130222667Y-83538438D02*
X130317905Y-83490819D01*
X130317905Y-83490819D02*
X130556000Y-83490819D01*
X130556000Y-83490819D02*
X130651238Y-83538438D01*
X130651238Y-83538438D02*
X130698857Y-83586057D01*
X130698857Y-83586057D02*
X130746476Y-83681295D01*
X130746476Y-83681295D02*
X130746476Y-83776533D01*
X130746476Y-83776533D02*
X130698857Y-83919390D01*
X130698857Y-83919390D02*
X130127429Y-84490819D01*
X130127429Y-84490819D02*
X130746476Y-84490819D01*
X131317905Y-83919390D02*
X131222667Y-83871771D01*
X131222667Y-83871771D02*
X131175048Y-83824152D01*
X131175048Y-83824152D02*
X131127429Y-83728914D01*
X131127429Y-83728914D02*
X131127429Y-83681295D01*
X131127429Y-83681295D02*
X131175048Y-83586057D01*
X131175048Y-83586057D02*
X131222667Y-83538438D01*
X131222667Y-83538438D02*
X131317905Y-83490819D01*
X131317905Y-83490819D02*
X131508381Y-83490819D01*
X131508381Y-83490819D02*
X131603619Y-83538438D01*
X131603619Y-83538438D02*
X131651238Y-83586057D01*
X131651238Y-83586057D02*
X131698857Y-83681295D01*
X131698857Y-83681295D02*
X131698857Y-83728914D01*
X131698857Y-83728914D02*
X131651238Y-83824152D01*
X131651238Y-83824152D02*
X131603619Y-83871771D01*
X131603619Y-83871771D02*
X131508381Y-83919390D01*
X131508381Y-83919390D02*
X131317905Y-83919390D01*
X131317905Y-83919390D02*
X131222667Y-83967009D01*
X131222667Y-83967009D02*
X131175048Y-84014628D01*
X131175048Y-84014628D02*
X131127429Y-84109866D01*
X131127429Y-84109866D02*
X131127429Y-84300342D01*
X131127429Y-84300342D02*
X131175048Y-84395580D01*
X131175048Y-84395580D02*
X131222667Y-84443200D01*
X131222667Y-84443200D02*
X131317905Y-84490819D01*
X131317905Y-84490819D02*
X131508381Y-84490819D01*
X131508381Y-84490819D02*
X131603619Y-84443200D01*
X131603619Y-84443200D02*
X131651238Y-84395580D01*
X131651238Y-84395580D02*
X131698857Y-84300342D01*
X131698857Y-84300342D02*
X131698857Y-84109866D01*
X131698857Y-84109866D02*
X131651238Y-84014628D01*
X131651238Y-84014628D02*
X131603619Y-83967009D01*
X131603619Y-83967009D02*
X131508381Y-83919390D01*
X79690819Y-95805523D02*
X80405104Y-95805523D01*
X80405104Y-95805523D02*
X80547961Y-95853142D01*
X80547961Y-95853142D02*
X80643200Y-95948380D01*
X80643200Y-95948380D02*
X80690819Y-96091237D01*
X80690819Y-96091237D02*
X80690819Y-96186475D01*
X79786057Y-95376951D02*
X79738438Y-95329332D01*
X79738438Y-95329332D02*
X79690819Y-95234094D01*
X79690819Y-95234094D02*
X79690819Y-94995999D01*
X79690819Y-94995999D02*
X79738438Y-94900761D01*
X79738438Y-94900761D02*
X79786057Y-94853142D01*
X79786057Y-94853142D02*
X79881295Y-94805523D01*
X79881295Y-94805523D02*
X79976533Y-94805523D01*
X79976533Y-94805523D02*
X80119390Y-94853142D01*
X80119390Y-94853142D02*
X80690819Y-95424570D01*
X80690819Y-95424570D02*
X80690819Y-94805523D01*
X79690819Y-94472189D02*
X79690819Y-93805523D01*
X79690819Y-93805523D02*
X80690819Y-94234094D01*
X211794819Y-82629333D02*
X212509104Y-82629333D01*
X212509104Y-82629333D02*
X212651961Y-82676952D01*
X212651961Y-82676952D02*
X212747200Y-82772190D01*
X212747200Y-82772190D02*
X212794819Y-82915047D01*
X212794819Y-82915047D02*
X212794819Y-83010285D01*
X212223390Y-82010285D02*
X212175771Y-82105523D01*
X212175771Y-82105523D02*
X212128152Y-82153142D01*
X212128152Y-82153142D02*
X212032914Y-82200761D01*
X212032914Y-82200761D02*
X211985295Y-82200761D01*
X211985295Y-82200761D02*
X211890057Y-82153142D01*
X211890057Y-82153142D02*
X211842438Y-82105523D01*
X211842438Y-82105523D02*
X211794819Y-82010285D01*
X211794819Y-82010285D02*
X211794819Y-81819809D01*
X211794819Y-81819809D02*
X211842438Y-81724571D01*
X211842438Y-81724571D02*
X211890057Y-81676952D01*
X211890057Y-81676952D02*
X211985295Y-81629333D01*
X211985295Y-81629333D02*
X212032914Y-81629333D01*
X212032914Y-81629333D02*
X212128152Y-81676952D01*
X212128152Y-81676952D02*
X212175771Y-81724571D01*
X212175771Y-81724571D02*
X212223390Y-81819809D01*
X212223390Y-81819809D02*
X212223390Y-82010285D01*
X212223390Y-82010285D02*
X212271009Y-82105523D01*
X212271009Y-82105523D02*
X212318628Y-82153142D01*
X212318628Y-82153142D02*
X212413866Y-82200761D01*
X212413866Y-82200761D02*
X212604342Y-82200761D01*
X212604342Y-82200761D02*
X212699580Y-82153142D01*
X212699580Y-82153142D02*
X212747200Y-82105523D01*
X212747200Y-82105523D02*
X212794819Y-82010285D01*
X212794819Y-82010285D02*
X212794819Y-81819809D01*
X212794819Y-81819809D02*
X212747200Y-81724571D01*
X212747200Y-81724571D02*
X212699580Y-81676952D01*
X212699580Y-81676952D02*
X212604342Y-81629333D01*
X212604342Y-81629333D02*
X212413866Y-81629333D01*
X212413866Y-81629333D02*
X212318628Y-81676952D01*
X212318628Y-81676952D02*
X212271009Y-81724571D01*
X212271009Y-81724571D02*
X212223390Y-81819809D01*
X211794819Y-79581333D02*
X212509104Y-79581333D01*
X212509104Y-79581333D02*
X212651961Y-79628952D01*
X212651961Y-79628952D02*
X212747200Y-79724190D01*
X212747200Y-79724190D02*
X212794819Y-79867047D01*
X212794819Y-79867047D02*
X212794819Y-79962285D01*
X212794819Y-79057523D02*
X212794819Y-78867047D01*
X212794819Y-78867047D02*
X212747200Y-78771809D01*
X212747200Y-78771809D02*
X212699580Y-78724190D01*
X212699580Y-78724190D02*
X212556723Y-78628952D01*
X212556723Y-78628952D02*
X212366247Y-78581333D01*
X212366247Y-78581333D02*
X211985295Y-78581333D01*
X211985295Y-78581333D02*
X211890057Y-78628952D01*
X211890057Y-78628952D02*
X211842438Y-78676571D01*
X211842438Y-78676571D02*
X211794819Y-78771809D01*
X211794819Y-78771809D02*
X211794819Y-78962285D01*
X211794819Y-78962285D02*
X211842438Y-79057523D01*
X211842438Y-79057523D02*
X211890057Y-79105142D01*
X211890057Y-79105142D02*
X211985295Y-79152761D01*
X211985295Y-79152761D02*
X212223390Y-79152761D01*
X212223390Y-79152761D02*
X212318628Y-79105142D01*
X212318628Y-79105142D02*
X212366247Y-79057523D01*
X212366247Y-79057523D02*
X212413866Y-78962285D01*
X212413866Y-78962285D02*
X212413866Y-78771809D01*
X212413866Y-78771809D02*
X212366247Y-78676571D01*
X212366247Y-78676571D02*
X212318628Y-78628952D01*
X212318628Y-78628952D02*
X212223390Y-78581333D01*
X211762819Y-73961523D02*
X212477104Y-73961523D01*
X212477104Y-73961523D02*
X212619961Y-74009142D01*
X212619961Y-74009142D02*
X212715200Y-74104380D01*
X212715200Y-74104380D02*
X212762819Y-74247237D01*
X212762819Y-74247237D02*
X212762819Y-74342475D01*
X212762819Y-72961523D02*
X212762819Y-73532951D01*
X212762819Y-73247237D02*
X211762819Y-73247237D01*
X211762819Y-73247237D02*
X211905676Y-73342475D01*
X211905676Y-73342475D02*
X212000914Y-73437713D01*
X212000914Y-73437713D02*
X212048533Y-73532951D01*
X212762819Y-72009142D02*
X212762819Y-72580570D01*
X212762819Y-72294856D02*
X211762819Y-72294856D01*
X211762819Y-72294856D02*
X211905676Y-72390094D01*
X211905676Y-72390094D02*
X212000914Y-72485332D01*
X212000914Y-72485332D02*
X212048533Y-72580570D01*
D12*
X151842914Y-109020931D02*
X151734057Y-108966503D01*
X151734057Y-108966503D02*
X151625200Y-108857646D01*
X151625200Y-108857646D02*
X151461914Y-108694360D01*
X151461914Y-108694360D02*
X151353057Y-108639931D01*
X151353057Y-108639931D02*
X151244200Y-108639931D01*
X151298629Y-108912074D02*
X151189772Y-108857646D01*
X151189772Y-108857646D02*
X151080914Y-108748788D01*
X151080914Y-108748788D02*
X151026486Y-108531074D01*
X151026486Y-108531074D02*
X151026486Y-108150074D01*
X151026486Y-108150074D02*
X151080914Y-107932360D01*
X151080914Y-107932360D02*
X151189772Y-107823503D01*
X151189772Y-107823503D02*
X151298629Y-107769074D01*
X151298629Y-107769074D02*
X151516343Y-107769074D01*
X151516343Y-107769074D02*
X151625200Y-107823503D01*
X151625200Y-107823503D02*
X151734057Y-107932360D01*
X151734057Y-107932360D02*
X151788486Y-108150074D01*
X151788486Y-108150074D02*
X151788486Y-108531074D01*
X151788486Y-108531074D02*
X151734057Y-108748788D01*
X151734057Y-108748788D02*
X151625200Y-108857646D01*
X151625200Y-108857646D02*
X151516343Y-108912074D01*
X151516343Y-108912074D02*
X151298629Y-108912074D01*
X152877058Y-108912074D02*
X152223915Y-108912074D01*
X152550486Y-108912074D02*
X152550486Y-107769074D01*
X152550486Y-107769074D02*
X152441629Y-107932360D01*
X152441629Y-107932360D02*
X152332772Y-108041217D01*
X152332772Y-108041217D02*
X152223915Y-108095646D01*
D10*
X79690819Y-77517523D02*
X80405104Y-77517523D01*
X80405104Y-77517523D02*
X80547961Y-77565142D01*
X80547961Y-77565142D02*
X80643200Y-77660380D01*
X80643200Y-77660380D02*
X80690819Y-77803237D01*
X80690819Y-77803237D02*
X80690819Y-77898475D01*
X79786057Y-77088951D02*
X79738438Y-77041332D01*
X79738438Y-77041332D02*
X79690819Y-76946094D01*
X79690819Y-76946094D02*
X79690819Y-76707999D01*
X79690819Y-76707999D02*
X79738438Y-76612761D01*
X79738438Y-76612761D02*
X79786057Y-76565142D01*
X79786057Y-76565142D02*
X79881295Y-76517523D01*
X79881295Y-76517523D02*
X79976533Y-76517523D01*
X79976533Y-76517523D02*
X80119390Y-76565142D01*
X80119390Y-76565142D02*
X80690819Y-77136570D01*
X80690819Y-77136570D02*
X80690819Y-76517523D01*
X80690819Y-75565142D02*
X80690819Y-76136570D01*
X80690819Y-75850856D02*
X79690819Y-75850856D01*
X79690819Y-75850856D02*
X79833676Y-75946094D01*
X79833676Y-75946094D02*
X79928914Y-76041332D01*
X79928914Y-76041332D02*
X79976533Y-76136570D01*
D11*
X102205069Y-75024335D02*
X102205069Y-75671954D01*
X102205069Y-75671954D02*
X102224116Y-75748144D01*
X102224116Y-75748144D02*
X102243164Y-75786240D01*
X102243164Y-75786240D02*
X102281259Y-75824335D01*
X102281259Y-75824335D02*
X102357450Y-75824335D01*
X102357450Y-75824335D02*
X102395545Y-75786240D01*
X102395545Y-75786240D02*
X102414592Y-75748144D01*
X102414592Y-75748144D02*
X102433640Y-75671954D01*
X102433640Y-75671954D02*
X102433640Y-75024335D01*
X102833640Y-75824335D02*
X102605069Y-75824335D01*
X102719355Y-75824335D02*
X102719355Y-75024335D01*
X102719355Y-75024335D02*
X102681259Y-75138620D01*
X102681259Y-75138620D02*
X102643164Y-75214811D01*
X102643164Y-75214811D02*
X102605069Y-75252906D01*
X103005069Y-75519573D02*
X103309831Y-75519573D01*
X103690783Y-75824335D02*
X103500307Y-75824335D01*
X103500307Y-75824335D02*
X103500307Y-75024335D01*
X103976498Y-75786240D02*
X103938402Y-75824335D01*
X103938402Y-75824335D02*
X103862212Y-75824335D01*
X103862212Y-75824335D02*
X103824117Y-75786240D01*
X103824117Y-75786240D02*
X103805069Y-75710049D01*
X103805069Y-75710049D02*
X103805069Y-75405287D01*
X103805069Y-75405287D02*
X103824117Y-75329097D01*
X103824117Y-75329097D02*
X103862212Y-75291001D01*
X103862212Y-75291001D02*
X103938402Y-75291001D01*
X103938402Y-75291001D02*
X103976498Y-75329097D01*
X103976498Y-75329097D02*
X103995545Y-75405287D01*
X103995545Y-75405287D02*
X103995545Y-75481478D01*
X103995545Y-75481478D02*
X103805069Y-75557668D01*
X104109831Y-75291001D02*
X104262212Y-75291001D01*
X104166974Y-75824335D02*
X104166974Y-75138620D01*
X104166974Y-75138620D02*
X104186021Y-75062430D01*
X104186021Y-75062430D02*
X104224116Y-75024335D01*
X104224116Y-75024335D02*
X104262212Y-75024335D01*
X104338402Y-75291001D02*
X104490783Y-75291001D01*
X104395545Y-75024335D02*
X104395545Y-75710049D01*
X104395545Y-75710049D02*
X104414592Y-75786240D01*
X104414592Y-75786240D02*
X104452687Y-75824335D01*
X104452687Y-75824335D02*
X104490783Y-75824335D01*
X104833639Y-75824335D02*
X104605068Y-75824335D01*
X104719354Y-75824335D02*
X104719354Y-75024335D01*
X104719354Y-75024335D02*
X104681258Y-75138620D01*
X104681258Y-75138620D02*
X104643163Y-75214811D01*
X104643163Y-75214811D02*
X104605068Y-75252906D01*
D10*
X126450819Y-86153523D02*
X127165104Y-86153523D01*
X127165104Y-86153523D02*
X127307961Y-86201142D01*
X127307961Y-86201142D02*
X127403200Y-86296380D01*
X127403200Y-86296380D02*
X127450819Y-86439237D01*
X127450819Y-86439237D02*
X127450819Y-86534475D01*
X127450819Y-85153523D02*
X127450819Y-85724951D01*
X127450819Y-85439237D02*
X126450819Y-85439237D01*
X126450819Y-85439237D02*
X126593676Y-85534475D01*
X126593676Y-85534475D02*
X126688914Y-85629713D01*
X126688914Y-85629713D02*
X126736533Y-85724951D01*
X126450819Y-84296380D02*
X126450819Y-84486856D01*
X126450819Y-84486856D02*
X126498438Y-84582094D01*
X126498438Y-84582094D02*
X126546057Y-84629713D01*
X126546057Y-84629713D02*
X126688914Y-84724951D01*
X126688914Y-84724951D02*
X126879390Y-84772570D01*
X126879390Y-84772570D02*
X127260342Y-84772570D01*
X127260342Y-84772570D02*
X127355580Y-84724951D01*
X127355580Y-84724951D02*
X127403200Y-84677332D01*
X127403200Y-84677332D02*
X127450819Y-84582094D01*
X127450819Y-84582094D02*
X127450819Y-84391618D01*
X127450819Y-84391618D02*
X127403200Y-84296380D01*
X127403200Y-84296380D02*
X127355580Y-84248761D01*
X127355580Y-84248761D02*
X127260342Y-84201142D01*
X127260342Y-84201142D02*
X127022247Y-84201142D01*
X127022247Y-84201142D02*
X126927009Y-84248761D01*
X126927009Y-84248761D02*
X126879390Y-84296380D01*
X126879390Y-84296380D02*
X126831771Y-84391618D01*
X126831771Y-84391618D02*
X126831771Y-84582094D01*
X126831771Y-84582094D02*
X126879390Y-84677332D01*
X126879390Y-84677332D02*
X126927009Y-84724951D01*
X126927009Y-84724951D02*
X127022247Y-84772570D01*
D13*
%TO.C,JP3*%
X116272000Y-54149000D02*
X119072000Y-54149000D01*
X116272000Y-56149000D02*
X116272000Y-54149000D01*
X119072000Y-54149000D02*
X119072000Y-56149000D01*
X119072000Y-56149000D02*
X116272000Y-56149000D01*
%TO.C,J2*%
X145244000Y-116304000D02*
X146304000Y-116304000D01*
X145244000Y-117364000D02*
X145244000Y-116304000D01*
X145244000Y-118364000D02*
X145244000Y-120424000D01*
X145244000Y-118364000D02*
X147364000Y-118364000D01*
X145244000Y-120424000D02*
X147364000Y-120424000D01*
X147364000Y-118364000D02*
X147364000Y-120424000D01*
%TO.C,J13R1*%
X175216000Y-82340000D02*
X175216000Y-81280000D01*
X176276000Y-82340000D02*
X175216000Y-82340000D01*
X177276000Y-80220000D02*
X181336000Y-80220000D01*
X177276000Y-82340000D02*
X177276000Y-80220000D01*
X177276000Y-82340000D02*
X181336000Y-82340000D01*
X181336000Y-82340000D02*
X181336000Y-80220000D01*
%TO.C,C2*%
X113298000Y-72367000D02*
X113298000Y-73937000D01*
X113298000Y-73937000D02*
X115608000Y-73937000D01*
X115608000Y-72367000D02*
X113298000Y-72367000D01*
%TO.C,J24*%
X81204000Y-86912000D02*
X81204000Y-85852000D01*
X82264000Y-86912000D02*
X81204000Y-86912000D01*
X83264000Y-84792000D02*
X87324000Y-84792000D01*
X83264000Y-86912000D02*
X83264000Y-84792000D01*
X83264000Y-86912000D02*
X87324000Y-86912000D01*
X87324000Y-86912000D02*
X87324000Y-84792000D01*
%TO.C,J15R1*%
X175184000Y-88436000D02*
X175184000Y-87376000D01*
X176244000Y-88436000D02*
X175184000Y-88436000D01*
X177244000Y-86316000D02*
X181304000Y-86316000D01*
X177244000Y-88436000D02*
X177244000Y-86316000D01*
X177244000Y-88436000D02*
X181304000Y-88436000D01*
X181304000Y-88436000D02*
X181304000Y-86316000D01*
%TO.C,J19*%
X119876000Y-73108000D02*
X119876000Y-75228000D01*
X123936000Y-73108000D02*
X119876000Y-73108000D01*
X123936000Y-73108000D02*
X123936000Y-75228000D01*
X123936000Y-75228000D02*
X119876000Y-75228000D01*
X124936000Y-73108000D02*
X125996000Y-73108000D01*
X125996000Y-73108000D02*
X125996000Y-74168000D01*
%TO.C,JP6*%
X116272000Y-64799000D02*
X119072000Y-64799000D01*
X116272000Y-66799000D02*
X116272000Y-64799000D01*
X119072000Y-64799000D02*
X119072000Y-66799000D01*
X119072000Y-66799000D02*
X116272000Y-66799000D01*
%TO.C,J14R1*%
X175184000Y-85388000D02*
X175184000Y-84328000D01*
X176244000Y-85388000D02*
X175184000Y-85388000D01*
X177244000Y-83268000D02*
X181304000Y-83268000D01*
X177244000Y-85388000D02*
X177244000Y-83268000D01*
X177244000Y-85388000D02*
X181304000Y-85388000D01*
X181304000Y-85388000D02*
X181304000Y-83268000D01*
%TO.C,J25*%
X81204000Y-89960000D02*
X81204000Y-88900000D01*
X82264000Y-89960000D02*
X81204000Y-89960000D01*
X83264000Y-87840000D02*
X87324000Y-87840000D01*
X83264000Y-89960000D02*
X83264000Y-87840000D01*
X83264000Y-89960000D02*
X87324000Y-89960000D01*
X87324000Y-89960000D02*
X87324000Y-87840000D01*
%TO.C,JP5*%
X116272000Y-61249000D02*
X119072000Y-61249000D01*
X116272000Y-63249000D02*
X116272000Y-61249000D01*
X119072000Y-61249000D02*
X119072000Y-63249000D01*
X119072000Y-63249000D02*
X116272000Y-63249000D01*
%TO.C,J18*%
X119876000Y-76156000D02*
X119876000Y-78276000D01*
X123936000Y-76156000D02*
X119876000Y-76156000D01*
X123936000Y-76156000D02*
X123936000Y-78276000D01*
X123936000Y-78276000D02*
X119876000Y-78276000D01*
X124936000Y-76156000D02*
X125996000Y-76156000D01*
X125996000Y-76156000D02*
X125996000Y-77216000D01*
%TO.C,J12*%
X119908000Y-97492000D02*
X119908000Y-99612000D01*
X123968000Y-97492000D02*
X119908000Y-97492000D01*
X123968000Y-97492000D02*
X123968000Y-99612000D01*
X123968000Y-99612000D02*
X119908000Y-99612000D01*
X124968000Y-97492000D02*
X126028000Y-97492000D01*
X126028000Y-97492000D02*
X126028000Y-98552000D01*
%TO.C,J22*%
X81236000Y-80816000D02*
X81236000Y-79756000D01*
X82296000Y-80816000D02*
X81236000Y-80816000D01*
X83296000Y-78696000D02*
X87356000Y-78696000D01*
X83296000Y-80816000D02*
X83296000Y-78696000D01*
X83296000Y-80816000D02*
X87356000Y-80816000D01*
X87356000Y-80816000D02*
X87356000Y-78696000D01*
%TO.C,J3*%
X166580000Y-60568000D02*
X167640000Y-60568000D01*
X166580000Y-61628000D02*
X166580000Y-60568000D01*
X166580000Y-62628000D02*
X166580000Y-98688000D01*
X166580000Y-62628000D02*
X168700000Y-62628000D01*
X166580000Y-98688000D02*
X168700000Y-98688000D01*
X168700000Y-62628000D02*
X168700000Y-98688000D01*
%TO.C,J20*%
X81236000Y-74720000D02*
X81236000Y-73660000D01*
X82296000Y-74720000D02*
X81236000Y-74720000D01*
X83296000Y-72600000D02*
X87356000Y-72600000D01*
X83296000Y-74720000D02*
X83296000Y-72600000D01*
X83296000Y-74720000D02*
X87356000Y-74720000D01*
X87356000Y-74720000D02*
X87356000Y-72600000D01*
%TO.C,J4*%
X205220000Y-93428000D02*
X205220000Y-95548000D01*
X209280000Y-93428000D02*
X205220000Y-93428000D01*
X209280000Y-93428000D02*
X209280000Y-95548000D01*
X209280000Y-95548000D02*
X205220000Y-95548000D01*
X210280000Y-93428000D02*
X211340000Y-93428000D01*
X211340000Y-93428000D02*
X211340000Y-94488000D01*
%TO.C,J23*%
X81236000Y-83864000D02*
X81236000Y-82804000D01*
X82296000Y-83864000D02*
X81236000Y-83864000D01*
X83296000Y-81744000D02*
X87356000Y-81744000D01*
X83296000Y-83864000D02*
X83296000Y-81744000D01*
X83296000Y-83864000D02*
X87356000Y-83864000D01*
X87356000Y-83864000D02*
X87356000Y-81744000D01*
%TO.C,J7*%
X205220000Y-84284000D02*
X205220000Y-86404000D01*
X209280000Y-84284000D02*
X205220000Y-84284000D01*
X209280000Y-84284000D02*
X209280000Y-86404000D01*
X209280000Y-86404000D02*
X205220000Y-86404000D01*
X210280000Y-84284000D02*
X211340000Y-84284000D01*
X211340000Y-84284000D02*
X211340000Y-85344000D01*
%TO.C,JP1*%
X116272000Y-47049000D02*
X119072000Y-47049000D01*
X116272000Y-49049000D02*
X116272000Y-47049000D01*
X119072000Y-47049000D02*
X119072000Y-49049000D01*
X119072000Y-49049000D02*
X116272000Y-49049000D01*
%TO.C,J10*%
X205188000Y-75140000D02*
X205188000Y-77260000D01*
X209248000Y-75140000D02*
X205188000Y-75140000D01*
X209248000Y-75140000D02*
X209248000Y-77260000D01*
X209248000Y-77260000D02*
X205188000Y-77260000D01*
X210248000Y-75140000D02*
X211308000Y-75140000D01*
X211308000Y-75140000D02*
X211308000Y-76200000D01*
%TO.C,J13*%
X119876000Y-94444000D02*
X119876000Y-96564000D01*
X123936000Y-94444000D02*
X119876000Y-94444000D01*
X123936000Y-94444000D02*
X123936000Y-96564000D01*
X123936000Y-96564000D02*
X119876000Y-96564000D01*
X124936000Y-94444000D02*
X125996000Y-94444000D01*
X125996000Y-94444000D02*
X125996000Y-95504000D01*
%TO.C,J10R1*%
X175216000Y-73196000D02*
X175216000Y-72136000D01*
X176276000Y-73196000D02*
X175216000Y-73196000D01*
X177276000Y-71076000D02*
X181336000Y-71076000D01*
X177276000Y-73196000D02*
X177276000Y-71076000D01*
X177276000Y-73196000D02*
X181336000Y-73196000D01*
X181336000Y-73196000D02*
X181336000Y-71076000D01*
%TO.C,J26*%
X81236000Y-93008000D02*
X81236000Y-91948000D01*
X82296000Y-93008000D02*
X81236000Y-93008000D01*
X83296000Y-90888000D02*
X87356000Y-90888000D01*
X83296000Y-93008000D02*
X83296000Y-90888000D01*
X83296000Y-93008000D02*
X87356000Y-93008000D01*
X87356000Y-93008000D02*
X87356000Y-90888000D01*
%TO.C,J16R1*%
X175184000Y-91484000D02*
X175184000Y-90424000D01*
X176244000Y-91484000D02*
X175184000Y-91484000D01*
X177244000Y-89364000D02*
X181304000Y-89364000D01*
X177244000Y-91484000D02*
X177244000Y-89364000D01*
X177244000Y-91484000D02*
X181304000Y-91484000D01*
X181304000Y-91484000D02*
X181304000Y-89364000D01*
%TO.C,J14*%
X119876000Y-91396000D02*
X119876000Y-93516000D01*
X123936000Y-91396000D02*
X119876000Y-91396000D01*
X123936000Y-91396000D02*
X123936000Y-93516000D01*
X123936000Y-93516000D02*
X119876000Y-93516000D01*
X124936000Y-91396000D02*
X125996000Y-91396000D01*
X125996000Y-91396000D02*
X125996000Y-92456000D01*
%TO.C,J12R1*%
X175248000Y-79292000D02*
X175248000Y-78232000D01*
X176308000Y-79292000D02*
X175248000Y-79292000D01*
X177308000Y-77172000D02*
X181368000Y-77172000D01*
X177308000Y-79292000D02*
X177308000Y-77172000D01*
X177308000Y-79292000D02*
X181368000Y-79292000D01*
X181368000Y-79292000D02*
X181368000Y-77172000D01*
D14*
%TO.C,U2*%
X191217200Y-76035400D02*
X195782800Y-76035400D01*
X195782800Y-84964600D02*
X191217200Y-84964600D01*
X192738000Y-76924400D02*
G75*
G02*
X191823600Y-76924400I-457200J0D01*
G01*
X191823600Y-76924400D02*
G75*
G02*
X192738000Y-76924400I457200J0D01*
G01*
D13*
%TO.C,C3*%
X154140000Y-123721000D02*
X156450000Y-123721000D01*
X156450000Y-122151000D02*
X154140000Y-122151000D01*
X156450000Y-123721000D02*
X156450000Y-122151000D01*
%TO.C,J17R1*%
X175184000Y-94532000D02*
X175184000Y-93472000D01*
X176244000Y-94532000D02*
X175184000Y-94532000D01*
X177244000Y-92412000D02*
X181304000Y-92412000D01*
X177244000Y-94532000D02*
X177244000Y-92412000D01*
X177244000Y-94532000D02*
X181304000Y-94532000D01*
X181304000Y-94532000D02*
X181304000Y-92412000D01*
%TO.C,J5*%
X205252000Y-90380000D02*
X205252000Y-92500000D01*
X209312000Y-90380000D02*
X205252000Y-90380000D01*
X209312000Y-90380000D02*
X209312000Y-92500000D01*
X209312000Y-92500000D02*
X205252000Y-92500000D01*
X210312000Y-90380000D02*
X211372000Y-90380000D01*
X211372000Y-90380000D02*
X211372000Y-91440000D01*
%TO.C,JP4*%
X116272000Y-57699000D02*
X119072000Y-57699000D01*
X116272000Y-59699000D02*
X116272000Y-57699000D01*
X119072000Y-57699000D02*
X119072000Y-59699000D01*
X119072000Y-59699000D02*
X116272000Y-59699000D01*
%TO.C,J11R1*%
X175248000Y-76244000D02*
X175248000Y-75184000D01*
X176308000Y-76244000D02*
X175248000Y-76244000D01*
X177308000Y-74124000D02*
X181368000Y-74124000D01*
X177308000Y-76244000D02*
X177308000Y-74124000D01*
X177308000Y-76244000D02*
X181368000Y-76244000D01*
X181368000Y-76244000D02*
X181368000Y-74124000D01*
%TO.C,J15*%
X119876000Y-88348000D02*
X119876000Y-90468000D01*
X123936000Y-88348000D02*
X119876000Y-88348000D01*
X123936000Y-88348000D02*
X123936000Y-90468000D01*
X123936000Y-90468000D02*
X119876000Y-90468000D01*
X124936000Y-88348000D02*
X125996000Y-88348000D01*
X125996000Y-88348000D02*
X125996000Y-89408000D01*
%TO.C,J6*%
X205252000Y-87332000D02*
X205252000Y-89452000D01*
X209312000Y-87332000D02*
X205252000Y-87332000D01*
X209312000Y-87332000D02*
X209312000Y-89452000D01*
X209312000Y-89452000D02*
X205252000Y-89452000D01*
X210312000Y-87332000D02*
X211372000Y-87332000D01*
X211372000Y-87332000D02*
X211372000Y-88392000D01*
%TO.C,J17*%
X119876000Y-80728000D02*
X119876000Y-82848000D01*
X123936000Y-80728000D02*
X119876000Y-80728000D01*
X123936000Y-80728000D02*
X123936000Y-82848000D01*
X123936000Y-82848000D02*
X119876000Y-82848000D01*
X124936000Y-80728000D02*
X125996000Y-80728000D01*
X125996000Y-80728000D02*
X125996000Y-81788000D01*
%TO.C,J28*%
X129496000Y-80976000D02*
X129496000Y-60916000D01*
X131616000Y-60916000D02*
X129496000Y-60916000D01*
X131616000Y-80976000D02*
X129496000Y-80976000D01*
X131616000Y-80976000D02*
X131616000Y-60916000D01*
X131616000Y-81976000D02*
X131616000Y-83036000D01*
X131616000Y-83036000D02*
X130556000Y-83036000D01*
%TO.C,J27*%
X81236000Y-96056000D02*
X81236000Y-94996000D01*
X82296000Y-96056000D02*
X81236000Y-96056000D01*
X83296000Y-93936000D02*
X87356000Y-93936000D01*
X83296000Y-96056000D02*
X83296000Y-93936000D01*
X83296000Y-96056000D02*
X87356000Y-96056000D01*
X87356000Y-96056000D02*
X87356000Y-93936000D01*
%TO.C,C1*%
X170568000Y-64784000D02*
X170568000Y-63420000D01*
X170568000Y-68660000D02*
X170568000Y-67296000D01*
X178308000Y-63420000D02*
X170568000Y-63420000D01*
X178308000Y-64784000D02*
X178308000Y-63420000D01*
X178308000Y-68660000D02*
X170568000Y-68660000D01*
X178308000Y-68660000D02*
X178308000Y-67296000D01*
%TO.C,J8*%
X205220000Y-81236000D02*
X205220000Y-83356000D01*
X209280000Y-81236000D02*
X205220000Y-81236000D01*
X209280000Y-81236000D02*
X209280000Y-83356000D01*
X209280000Y-83356000D02*
X205220000Y-83356000D01*
X210280000Y-81236000D02*
X211340000Y-81236000D01*
X211340000Y-81236000D02*
X211340000Y-82296000D01*
%TO.C,JP2*%
X116272000Y-50308000D02*
X119072000Y-50308000D01*
X116272000Y-52308000D02*
X116272000Y-50308000D01*
X119072000Y-50308000D02*
X119072000Y-52308000D01*
X119072000Y-52308000D02*
X116272000Y-52308000D01*
%TO.C,J9*%
X205220000Y-78188000D02*
X205220000Y-80308000D01*
X209280000Y-78188000D02*
X205220000Y-78188000D01*
X209280000Y-78188000D02*
X209280000Y-80308000D01*
X209280000Y-80308000D02*
X205220000Y-80308000D01*
X210280000Y-78188000D02*
X211340000Y-78188000D01*
X211340000Y-78188000D02*
X211340000Y-79248000D01*
%TO.C,J11*%
X205188000Y-72092000D02*
X205188000Y-74212000D01*
X209248000Y-72092000D02*
X205188000Y-72092000D01*
X209248000Y-72092000D02*
X209248000Y-74212000D01*
X209248000Y-74212000D02*
X205188000Y-74212000D01*
X210248000Y-72092000D02*
X211308000Y-72092000D01*
X211308000Y-72092000D02*
X211308000Y-73152000D01*
D15*
%TO.C,Q1*%
X150746000Y-119177000D02*
G75*
G02*
X150546000Y-119177000I-100000J0D01*
G01*
X150546000Y-119177000D02*
G75*
G02*
X150746000Y-119177000I100000J0D01*
G01*
D12*
X157832000Y-117360000D02*
X151032000Y-117360000D01*
X157832000Y-111140000D02*
X157832000Y-117360000D01*
X157278000Y-111140000D02*
X157832000Y-111140000D01*
X151586000Y-111140000D02*
X151032000Y-111140000D01*
X151032000Y-111140000D02*
X151032000Y-117360000D01*
D13*
%TO.C,J21*%
X81236000Y-77768000D02*
X81236000Y-76708000D01*
X82296000Y-77768000D02*
X81236000Y-77768000D01*
X83296000Y-75648000D02*
X87356000Y-75648000D01*
X83296000Y-77768000D02*
X83296000Y-75648000D01*
X83296000Y-77768000D02*
X87356000Y-77768000D01*
X87356000Y-77768000D02*
X87356000Y-75648000D01*
D12*
%TO.C,U3*%
X136850000Y-49860000D02*
X164750000Y-49860000D01*
X136850000Y-104260000D02*
X136850000Y-49860000D01*
X164750000Y-49860000D02*
X164750000Y-104260000D01*
X164750000Y-104260000D02*
X136850000Y-104260000D01*
D15*
X135400000Y-57160000D02*
G75*
G02*
X135200000Y-57160000I-100000J0D01*
G01*
X135200000Y-57160000D02*
G75*
G02*
X135400000Y-57160000I100000J0D01*
G01*
D14*
%TO.C,U1-Left1*%
X101857200Y-76307400D02*
X106422800Y-76307400D01*
X106422800Y-85236600D02*
X101857200Y-85236600D01*
X103378000Y-77196400D02*
G75*
G02*
X102463600Y-77196400I-457200J0D01*
G01*
X102463600Y-77196400D02*
G75*
G02*
X103378000Y-77196400I457200J0D01*
G01*
D13*
%TO.C,J16*%
X119876000Y-84284000D02*
X119876000Y-86404000D01*
X123936000Y-84284000D02*
X119876000Y-84284000D01*
X123936000Y-84284000D02*
X123936000Y-86404000D01*
X123936000Y-86404000D02*
X119876000Y-86404000D01*
X124936000Y-84284000D02*
X125996000Y-84284000D01*
X125996000Y-84284000D02*
X125996000Y-85344000D01*
%TD*%
M02*
